G04 #@! TF.GenerationSoftware,KiCad,Pcbnew,5.1.5+dfsg1-2build2*
G04 #@! TF.CreationDate,2022-03-06T19:54:29+01:00*
G04 #@! TF.ProjectId,yusufitium-USB-RS232,79757375-6669-4746-9975-6d2d5553422d,rev?*
G04 #@! TF.SameCoordinates,Original*
G04 #@! TF.FileFunction,Copper,L2,Bot*
G04 #@! TF.FilePolarity,Positive*
%FSLAX46Y46*%
G04 Gerber Fmt 4.6, Leading zero omitted, Abs format (unit mm)*
G04 Created by KiCad (PCBNEW 5.1.5+dfsg1-2build2) date 2022-03-06 19:54:29*
%MOMM*%
%LPD*%
G04 APERTURE LIST*
%ADD10R,1.700000X1.700000*%
%ADD11O,1.700000X1.700000*%
%ADD12R,1.200000X0.400000*%
%ADD13R,1.800000X1.800000*%
%ADD14C,1.800000*%
%ADD15R,3.480000X1.846667*%
%ADD16R,0.900000X0.800000*%
%ADD17C,0.100000*%
%ADD18R,5.000000X2.000000*%
%ADD19C,0.800000*%
%ADD20C,0.250000*%
%ADD21C,0.500000*%
%ADD22C,0.254000*%
G04 APERTURE END LIST*
D10*
X149643000Y-112427000D03*
D11*
X152183000Y-112427000D03*
X154723000Y-112427000D03*
X157263000Y-112427000D03*
D12*
X145053000Y-105759500D03*
X145053000Y-105124500D03*
X145053000Y-104489500D03*
X145053000Y-103854500D03*
X145053000Y-103219500D03*
X145053000Y-102584500D03*
X145053000Y-101949500D03*
X145053000Y-101314500D03*
X145053000Y-100679500D03*
X145053000Y-100044500D03*
X150253000Y-100044500D03*
X150253000Y-100679500D03*
X150253000Y-101314500D03*
X150253000Y-101949500D03*
X150253000Y-102584500D03*
X150253000Y-103219500D03*
X150253000Y-103854500D03*
X150253000Y-104489500D03*
X150253000Y-105124500D03*
X150253000Y-105759500D03*
D13*
X134826000Y-112427000D03*
D14*
X137366000Y-112427000D03*
X143589000Y-112427000D03*
D13*
X141049000Y-112427000D03*
X128603000Y-112427000D03*
D14*
X131143000Y-112427000D03*
D15*
X176484000Y-109851000D03*
X176484000Y-107081000D03*
X176484000Y-104311000D03*
X176484000Y-101541000D03*
D16*
X160591000Y-103029000D03*
X158591000Y-102079000D03*
X158591000Y-103979000D03*
X158575000Y-100296000D03*
X158575000Y-98396000D03*
X160575000Y-99346000D03*
G04 #@! TA.AperFunction,SMDPad,CuDef*
D17*
G36*
X135277779Y-108778144D02*
G01*
X135300834Y-108781563D01*
X135323443Y-108787227D01*
X135345387Y-108795079D01*
X135366457Y-108805044D01*
X135386448Y-108817026D01*
X135405168Y-108830910D01*
X135422438Y-108846562D01*
X135438090Y-108863832D01*
X135451974Y-108882552D01*
X135463956Y-108902543D01*
X135473921Y-108923613D01*
X135481773Y-108945557D01*
X135487437Y-108968166D01*
X135490856Y-108991221D01*
X135492000Y-109014500D01*
X135492000Y-109489500D01*
X135490856Y-109512779D01*
X135487437Y-109535834D01*
X135481773Y-109558443D01*
X135473921Y-109580387D01*
X135463956Y-109601457D01*
X135451974Y-109621448D01*
X135438090Y-109640168D01*
X135422438Y-109657438D01*
X135405168Y-109673090D01*
X135386448Y-109686974D01*
X135366457Y-109698956D01*
X135345387Y-109708921D01*
X135323443Y-109716773D01*
X135300834Y-109722437D01*
X135277779Y-109725856D01*
X135254500Y-109727000D01*
X134679500Y-109727000D01*
X134656221Y-109725856D01*
X134633166Y-109722437D01*
X134610557Y-109716773D01*
X134588613Y-109708921D01*
X134567543Y-109698956D01*
X134547552Y-109686974D01*
X134528832Y-109673090D01*
X134511562Y-109657438D01*
X134495910Y-109640168D01*
X134482026Y-109621448D01*
X134470044Y-109601457D01*
X134460079Y-109580387D01*
X134452227Y-109558443D01*
X134446563Y-109535834D01*
X134443144Y-109512779D01*
X134442000Y-109489500D01*
X134442000Y-109014500D01*
X134443144Y-108991221D01*
X134446563Y-108968166D01*
X134452227Y-108945557D01*
X134460079Y-108923613D01*
X134470044Y-108902543D01*
X134482026Y-108882552D01*
X134495910Y-108863832D01*
X134511562Y-108846562D01*
X134528832Y-108830910D01*
X134547552Y-108817026D01*
X134567543Y-108805044D01*
X134588613Y-108795079D01*
X134610557Y-108787227D01*
X134633166Y-108781563D01*
X134656221Y-108778144D01*
X134679500Y-108777000D01*
X135254500Y-108777000D01*
X135277779Y-108778144D01*
G37*
G04 #@! TD.AperFunction*
G04 #@! TA.AperFunction,SMDPad,CuDef*
G36*
X137027779Y-108778144D02*
G01*
X137050834Y-108781563D01*
X137073443Y-108787227D01*
X137095387Y-108795079D01*
X137116457Y-108805044D01*
X137136448Y-108817026D01*
X137155168Y-108830910D01*
X137172438Y-108846562D01*
X137188090Y-108863832D01*
X137201974Y-108882552D01*
X137213956Y-108902543D01*
X137223921Y-108923613D01*
X137231773Y-108945557D01*
X137237437Y-108968166D01*
X137240856Y-108991221D01*
X137242000Y-109014500D01*
X137242000Y-109489500D01*
X137240856Y-109512779D01*
X137237437Y-109535834D01*
X137231773Y-109558443D01*
X137223921Y-109580387D01*
X137213956Y-109601457D01*
X137201974Y-109621448D01*
X137188090Y-109640168D01*
X137172438Y-109657438D01*
X137155168Y-109673090D01*
X137136448Y-109686974D01*
X137116457Y-109698956D01*
X137095387Y-109708921D01*
X137073443Y-109716773D01*
X137050834Y-109722437D01*
X137027779Y-109725856D01*
X137004500Y-109727000D01*
X136429500Y-109727000D01*
X136406221Y-109725856D01*
X136383166Y-109722437D01*
X136360557Y-109716773D01*
X136338613Y-109708921D01*
X136317543Y-109698956D01*
X136297552Y-109686974D01*
X136278832Y-109673090D01*
X136261562Y-109657438D01*
X136245910Y-109640168D01*
X136232026Y-109621448D01*
X136220044Y-109601457D01*
X136210079Y-109580387D01*
X136202227Y-109558443D01*
X136196563Y-109535834D01*
X136193144Y-109512779D01*
X136192000Y-109489500D01*
X136192000Y-109014500D01*
X136193144Y-108991221D01*
X136196563Y-108968166D01*
X136202227Y-108945557D01*
X136210079Y-108923613D01*
X136220044Y-108902543D01*
X136232026Y-108882552D01*
X136245910Y-108863832D01*
X136261562Y-108846562D01*
X136278832Y-108830910D01*
X136297552Y-108817026D01*
X136317543Y-108805044D01*
X136338613Y-108795079D01*
X136360557Y-108787227D01*
X136383166Y-108781563D01*
X136406221Y-108778144D01*
X136429500Y-108777000D01*
X137004500Y-108777000D01*
X137027779Y-108778144D01*
G37*
G04 #@! TD.AperFunction*
G04 #@! TA.AperFunction,SMDPad,CuDef*
G36*
X143264779Y-108778144D02*
G01*
X143287834Y-108781563D01*
X143310443Y-108787227D01*
X143332387Y-108795079D01*
X143353457Y-108805044D01*
X143373448Y-108817026D01*
X143392168Y-108830910D01*
X143409438Y-108846562D01*
X143425090Y-108863832D01*
X143438974Y-108882552D01*
X143450956Y-108902543D01*
X143460921Y-108923613D01*
X143468773Y-108945557D01*
X143474437Y-108968166D01*
X143477856Y-108991221D01*
X143479000Y-109014500D01*
X143479000Y-109489500D01*
X143477856Y-109512779D01*
X143474437Y-109535834D01*
X143468773Y-109558443D01*
X143460921Y-109580387D01*
X143450956Y-109601457D01*
X143438974Y-109621448D01*
X143425090Y-109640168D01*
X143409438Y-109657438D01*
X143392168Y-109673090D01*
X143373448Y-109686974D01*
X143353457Y-109698956D01*
X143332387Y-109708921D01*
X143310443Y-109716773D01*
X143287834Y-109722437D01*
X143264779Y-109725856D01*
X143241500Y-109727000D01*
X142666500Y-109727000D01*
X142643221Y-109725856D01*
X142620166Y-109722437D01*
X142597557Y-109716773D01*
X142575613Y-109708921D01*
X142554543Y-109698956D01*
X142534552Y-109686974D01*
X142515832Y-109673090D01*
X142498562Y-109657438D01*
X142482910Y-109640168D01*
X142469026Y-109621448D01*
X142457044Y-109601457D01*
X142447079Y-109580387D01*
X142439227Y-109558443D01*
X142433563Y-109535834D01*
X142430144Y-109512779D01*
X142429000Y-109489500D01*
X142429000Y-109014500D01*
X142430144Y-108991221D01*
X142433563Y-108968166D01*
X142439227Y-108945557D01*
X142447079Y-108923613D01*
X142457044Y-108902543D01*
X142469026Y-108882552D01*
X142482910Y-108863832D01*
X142498562Y-108846562D01*
X142515832Y-108830910D01*
X142534552Y-108817026D01*
X142554543Y-108805044D01*
X142575613Y-108795079D01*
X142597557Y-108787227D01*
X142620166Y-108781563D01*
X142643221Y-108778144D01*
X142666500Y-108777000D01*
X143241500Y-108777000D01*
X143264779Y-108778144D01*
G37*
G04 #@! TD.AperFunction*
G04 #@! TA.AperFunction,SMDPad,CuDef*
G36*
X141514779Y-108778144D02*
G01*
X141537834Y-108781563D01*
X141560443Y-108787227D01*
X141582387Y-108795079D01*
X141603457Y-108805044D01*
X141623448Y-108817026D01*
X141642168Y-108830910D01*
X141659438Y-108846562D01*
X141675090Y-108863832D01*
X141688974Y-108882552D01*
X141700956Y-108902543D01*
X141710921Y-108923613D01*
X141718773Y-108945557D01*
X141724437Y-108968166D01*
X141727856Y-108991221D01*
X141729000Y-109014500D01*
X141729000Y-109489500D01*
X141727856Y-109512779D01*
X141724437Y-109535834D01*
X141718773Y-109558443D01*
X141710921Y-109580387D01*
X141700956Y-109601457D01*
X141688974Y-109621448D01*
X141675090Y-109640168D01*
X141659438Y-109657438D01*
X141642168Y-109673090D01*
X141623448Y-109686974D01*
X141603457Y-109698956D01*
X141582387Y-109708921D01*
X141560443Y-109716773D01*
X141537834Y-109722437D01*
X141514779Y-109725856D01*
X141491500Y-109727000D01*
X140916500Y-109727000D01*
X140893221Y-109725856D01*
X140870166Y-109722437D01*
X140847557Y-109716773D01*
X140825613Y-109708921D01*
X140804543Y-109698956D01*
X140784552Y-109686974D01*
X140765832Y-109673090D01*
X140748562Y-109657438D01*
X140732910Y-109640168D01*
X140719026Y-109621448D01*
X140707044Y-109601457D01*
X140697079Y-109580387D01*
X140689227Y-109558443D01*
X140683563Y-109535834D01*
X140680144Y-109512779D01*
X140679000Y-109489500D01*
X140679000Y-109014500D01*
X140680144Y-108991221D01*
X140683563Y-108968166D01*
X140689227Y-108945557D01*
X140697079Y-108923613D01*
X140707044Y-108902543D01*
X140719026Y-108882552D01*
X140732910Y-108863832D01*
X140748562Y-108846562D01*
X140765832Y-108830910D01*
X140784552Y-108817026D01*
X140804543Y-108805044D01*
X140825613Y-108795079D01*
X140847557Y-108787227D01*
X140870166Y-108781563D01*
X140893221Y-108778144D01*
X140916500Y-108777000D01*
X141491500Y-108777000D01*
X141514779Y-108778144D01*
G37*
G04 #@! TD.AperFunction*
G04 #@! TA.AperFunction,SMDPad,CuDef*
G36*
X156712779Y-106111144D02*
G01*
X156735834Y-106114563D01*
X156758443Y-106120227D01*
X156780387Y-106128079D01*
X156801457Y-106138044D01*
X156821448Y-106150026D01*
X156840168Y-106163910D01*
X156857438Y-106179562D01*
X156873090Y-106196832D01*
X156886974Y-106215552D01*
X156898956Y-106235543D01*
X156908921Y-106256613D01*
X156916773Y-106278557D01*
X156922437Y-106301166D01*
X156925856Y-106324221D01*
X156927000Y-106347500D01*
X156927000Y-106822500D01*
X156925856Y-106845779D01*
X156922437Y-106868834D01*
X156916773Y-106891443D01*
X156908921Y-106913387D01*
X156898956Y-106934457D01*
X156886974Y-106954448D01*
X156873090Y-106973168D01*
X156857438Y-106990438D01*
X156840168Y-107006090D01*
X156821448Y-107019974D01*
X156801457Y-107031956D01*
X156780387Y-107041921D01*
X156758443Y-107049773D01*
X156735834Y-107055437D01*
X156712779Y-107058856D01*
X156689500Y-107060000D01*
X156114500Y-107060000D01*
X156091221Y-107058856D01*
X156068166Y-107055437D01*
X156045557Y-107049773D01*
X156023613Y-107041921D01*
X156002543Y-107031956D01*
X155982552Y-107019974D01*
X155963832Y-107006090D01*
X155946562Y-106990438D01*
X155930910Y-106973168D01*
X155917026Y-106954448D01*
X155905044Y-106934457D01*
X155895079Y-106913387D01*
X155887227Y-106891443D01*
X155881563Y-106868834D01*
X155878144Y-106845779D01*
X155877000Y-106822500D01*
X155877000Y-106347500D01*
X155878144Y-106324221D01*
X155881563Y-106301166D01*
X155887227Y-106278557D01*
X155895079Y-106256613D01*
X155905044Y-106235543D01*
X155917026Y-106215552D01*
X155930910Y-106196832D01*
X155946562Y-106179562D01*
X155963832Y-106163910D01*
X155982552Y-106150026D01*
X156002543Y-106138044D01*
X156023613Y-106128079D01*
X156045557Y-106120227D01*
X156068166Y-106114563D01*
X156091221Y-106111144D01*
X156114500Y-106110000D01*
X156689500Y-106110000D01*
X156712779Y-106111144D01*
G37*
G04 #@! TD.AperFunction*
G04 #@! TA.AperFunction,SMDPad,CuDef*
G36*
X154962779Y-106111144D02*
G01*
X154985834Y-106114563D01*
X155008443Y-106120227D01*
X155030387Y-106128079D01*
X155051457Y-106138044D01*
X155071448Y-106150026D01*
X155090168Y-106163910D01*
X155107438Y-106179562D01*
X155123090Y-106196832D01*
X155136974Y-106215552D01*
X155148956Y-106235543D01*
X155158921Y-106256613D01*
X155166773Y-106278557D01*
X155172437Y-106301166D01*
X155175856Y-106324221D01*
X155177000Y-106347500D01*
X155177000Y-106822500D01*
X155175856Y-106845779D01*
X155172437Y-106868834D01*
X155166773Y-106891443D01*
X155158921Y-106913387D01*
X155148956Y-106934457D01*
X155136974Y-106954448D01*
X155123090Y-106973168D01*
X155107438Y-106990438D01*
X155090168Y-107006090D01*
X155071448Y-107019974D01*
X155051457Y-107031956D01*
X155030387Y-107041921D01*
X155008443Y-107049773D01*
X154985834Y-107055437D01*
X154962779Y-107058856D01*
X154939500Y-107060000D01*
X154364500Y-107060000D01*
X154341221Y-107058856D01*
X154318166Y-107055437D01*
X154295557Y-107049773D01*
X154273613Y-107041921D01*
X154252543Y-107031956D01*
X154232552Y-107019974D01*
X154213832Y-107006090D01*
X154196562Y-106990438D01*
X154180910Y-106973168D01*
X154167026Y-106954448D01*
X154155044Y-106934457D01*
X154145079Y-106913387D01*
X154137227Y-106891443D01*
X154131563Y-106868834D01*
X154128144Y-106845779D01*
X154127000Y-106822500D01*
X154127000Y-106347500D01*
X154128144Y-106324221D01*
X154131563Y-106301166D01*
X154137227Y-106278557D01*
X154145079Y-106256613D01*
X154155044Y-106235543D01*
X154167026Y-106215552D01*
X154180910Y-106196832D01*
X154196562Y-106179562D01*
X154213832Y-106163910D01*
X154232552Y-106150026D01*
X154252543Y-106138044D01*
X154273613Y-106128079D01*
X154295557Y-106120227D01*
X154318166Y-106114563D01*
X154341221Y-106111144D01*
X154364500Y-106110000D01*
X154939500Y-106110000D01*
X154962779Y-106111144D01*
G37*
G04 #@! TD.AperFunction*
G04 #@! TA.AperFunction,SMDPad,CuDef*
G36*
X154948779Y-104333144D02*
G01*
X154971834Y-104336563D01*
X154994443Y-104342227D01*
X155016387Y-104350079D01*
X155037457Y-104360044D01*
X155057448Y-104372026D01*
X155076168Y-104385910D01*
X155093438Y-104401562D01*
X155109090Y-104418832D01*
X155122974Y-104437552D01*
X155134956Y-104457543D01*
X155144921Y-104478613D01*
X155152773Y-104500557D01*
X155158437Y-104523166D01*
X155161856Y-104546221D01*
X155163000Y-104569500D01*
X155163000Y-105044500D01*
X155161856Y-105067779D01*
X155158437Y-105090834D01*
X155152773Y-105113443D01*
X155144921Y-105135387D01*
X155134956Y-105156457D01*
X155122974Y-105176448D01*
X155109090Y-105195168D01*
X155093438Y-105212438D01*
X155076168Y-105228090D01*
X155057448Y-105241974D01*
X155037457Y-105253956D01*
X155016387Y-105263921D01*
X154994443Y-105271773D01*
X154971834Y-105277437D01*
X154948779Y-105280856D01*
X154925500Y-105282000D01*
X154350500Y-105282000D01*
X154327221Y-105280856D01*
X154304166Y-105277437D01*
X154281557Y-105271773D01*
X154259613Y-105263921D01*
X154238543Y-105253956D01*
X154218552Y-105241974D01*
X154199832Y-105228090D01*
X154182562Y-105212438D01*
X154166910Y-105195168D01*
X154153026Y-105176448D01*
X154141044Y-105156457D01*
X154131079Y-105135387D01*
X154123227Y-105113443D01*
X154117563Y-105090834D01*
X154114144Y-105067779D01*
X154113000Y-105044500D01*
X154113000Y-104569500D01*
X154114144Y-104546221D01*
X154117563Y-104523166D01*
X154123227Y-104500557D01*
X154131079Y-104478613D01*
X154141044Y-104457543D01*
X154153026Y-104437552D01*
X154166910Y-104418832D01*
X154182562Y-104401562D01*
X154199832Y-104385910D01*
X154218552Y-104372026D01*
X154238543Y-104360044D01*
X154259613Y-104350079D01*
X154281557Y-104342227D01*
X154304166Y-104336563D01*
X154327221Y-104333144D01*
X154350500Y-104332000D01*
X154925500Y-104332000D01*
X154948779Y-104333144D01*
G37*
G04 #@! TD.AperFunction*
G04 #@! TA.AperFunction,SMDPad,CuDef*
G36*
X156698779Y-104333144D02*
G01*
X156721834Y-104336563D01*
X156744443Y-104342227D01*
X156766387Y-104350079D01*
X156787457Y-104360044D01*
X156807448Y-104372026D01*
X156826168Y-104385910D01*
X156843438Y-104401562D01*
X156859090Y-104418832D01*
X156872974Y-104437552D01*
X156884956Y-104457543D01*
X156894921Y-104478613D01*
X156902773Y-104500557D01*
X156908437Y-104523166D01*
X156911856Y-104546221D01*
X156913000Y-104569500D01*
X156913000Y-105044500D01*
X156911856Y-105067779D01*
X156908437Y-105090834D01*
X156902773Y-105113443D01*
X156894921Y-105135387D01*
X156884956Y-105156457D01*
X156872974Y-105176448D01*
X156859090Y-105195168D01*
X156843438Y-105212438D01*
X156826168Y-105228090D01*
X156807448Y-105241974D01*
X156787457Y-105253956D01*
X156766387Y-105263921D01*
X156744443Y-105271773D01*
X156721834Y-105277437D01*
X156698779Y-105280856D01*
X156675500Y-105282000D01*
X156100500Y-105282000D01*
X156077221Y-105280856D01*
X156054166Y-105277437D01*
X156031557Y-105271773D01*
X156009613Y-105263921D01*
X155988543Y-105253956D01*
X155968552Y-105241974D01*
X155949832Y-105228090D01*
X155932562Y-105212438D01*
X155916910Y-105195168D01*
X155903026Y-105176448D01*
X155891044Y-105156457D01*
X155881079Y-105135387D01*
X155873227Y-105113443D01*
X155867563Y-105090834D01*
X155864144Y-105067779D01*
X155863000Y-105044500D01*
X155863000Y-104569500D01*
X155864144Y-104546221D01*
X155867563Y-104523166D01*
X155873227Y-104500557D01*
X155881079Y-104478613D01*
X155891044Y-104457543D01*
X155903026Y-104437552D01*
X155916910Y-104418832D01*
X155932562Y-104401562D01*
X155949832Y-104385910D01*
X155968552Y-104372026D01*
X155988543Y-104360044D01*
X156009613Y-104350079D01*
X156031557Y-104342227D01*
X156054166Y-104336563D01*
X156077221Y-104333144D01*
X156100500Y-104332000D01*
X156675500Y-104332000D01*
X156698779Y-104333144D01*
G37*
G04 #@! TD.AperFunction*
G04 #@! TA.AperFunction,SMDPad,CuDef*
G36*
X130677779Y-108778144D02*
G01*
X130700834Y-108781563D01*
X130723443Y-108787227D01*
X130745387Y-108795079D01*
X130766457Y-108805044D01*
X130786448Y-108817026D01*
X130805168Y-108830910D01*
X130822438Y-108846562D01*
X130838090Y-108863832D01*
X130851974Y-108882552D01*
X130863956Y-108902543D01*
X130873921Y-108923613D01*
X130881773Y-108945557D01*
X130887437Y-108968166D01*
X130890856Y-108991221D01*
X130892000Y-109014500D01*
X130892000Y-109489500D01*
X130890856Y-109512779D01*
X130887437Y-109535834D01*
X130881773Y-109558443D01*
X130873921Y-109580387D01*
X130863956Y-109601457D01*
X130851974Y-109621448D01*
X130838090Y-109640168D01*
X130822438Y-109657438D01*
X130805168Y-109673090D01*
X130786448Y-109686974D01*
X130766457Y-109698956D01*
X130745387Y-109708921D01*
X130723443Y-109716773D01*
X130700834Y-109722437D01*
X130677779Y-109725856D01*
X130654500Y-109727000D01*
X130079500Y-109727000D01*
X130056221Y-109725856D01*
X130033166Y-109722437D01*
X130010557Y-109716773D01*
X129988613Y-109708921D01*
X129967543Y-109698956D01*
X129947552Y-109686974D01*
X129928832Y-109673090D01*
X129911562Y-109657438D01*
X129895910Y-109640168D01*
X129882026Y-109621448D01*
X129870044Y-109601457D01*
X129860079Y-109580387D01*
X129852227Y-109558443D01*
X129846563Y-109535834D01*
X129843144Y-109512779D01*
X129842000Y-109489500D01*
X129842000Y-109014500D01*
X129843144Y-108991221D01*
X129846563Y-108968166D01*
X129852227Y-108945557D01*
X129860079Y-108923613D01*
X129870044Y-108902543D01*
X129882026Y-108882552D01*
X129895910Y-108863832D01*
X129911562Y-108846562D01*
X129928832Y-108830910D01*
X129947552Y-108817026D01*
X129967543Y-108805044D01*
X129988613Y-108795079D01*
X130010557Y-108787227D01*
X130033166Y-108781563D01*
X130056221Y-108778144D01*
X130079500Y-108777000D01*
X130654500Y-108777000D01*
X130677779Y-108778144D01*
G37*
G04 #@! TD.AperFunction*
G04 #@! TA.AperFunction,SMDPad,CuDef*
G36*
X128927779Y-108778144D02*
G01*
X128950834Y-108781563D01*
X128973443Y-108787227D01*
X128995387Y-108795079D01*
X129016457Y-108805044D01*
X129036448Y-108817026D01*
X129055168Y-108830910D01*
X129072438Y-108846562D01*
X129088090Y-108863832D01*
X129101974Y-108882552D01*
X129113956Y-108902543D01*
X129123921Y-108923613D01*
X129131773Y-108945557D01*
X129137437Y-108968166D01*
X129140856Y-108991221D01*
X129142000Y-109014500D01*
X129142000Y-109489500D01*
X129140856Y-109512779D01*
X129137437Y-109535834D01*
X129131773Y-109558443D01*
X129123921Y-109580387D01*
X129113956Y-109601457D01*
X129101974Y-109621448D01*
X129088090Y-109640168D01*
X129072438Y-109657438D01*
X129055168Y-109673090D01*
X129036448Y-109686974D01*
X129016457Y-109698956D01*
X128995387Y-109708921D01*
X128973443Y-109716773D01*
X128950834Y-109722437D01*
X128927779Y-109725856D01*
X128904500Y-109727000D01*
X128329500Y-109727000D01*
X128306221Y-109725856D01*
X128283166Y-109722437D01*
X128260557Y-109716773D01*
X128238613Y-109708921D01*
X128217543Y-109698956D01*
X128197552Y-109686974D01*
X128178832Y-109673090D01*
X128161562Y-109657438D01*
X128145910Y-109640168D01*
X128132026Y-109621448D01*
X128120044Y-109601457D01*
X128110079Y-109580387D01*
X128102227Y-109558443D01*
X128096563Y-109535834D01*
X128093144Y-109512779D01*
X128092000Y-109489500D01*
X128092000Y-109014500D01*
X128093144Y-108991221D01*
X128096563Y-108968166D01*
X128102227Y-108945557D01*
X128110079Y-108923613D01*
X128120044Y-108902543D01*
X128132026Y-108882552D01*
X128145910Y-108863832D01*
X128161562Y-108846562D01*
X128178832Y-108830910D01*
X128197552Y-108817026D01*
X128217543Y-108805044D01*
X128238613Y-108795079D01*
X128260557Y-108787227D01*
X128283166Y-108781563D01*
X128306221Y-108778144D01*
X128329500Y-108777000D01*
X128904500Y-108777000D01*
X128927779Y-108778144D01*
G37*
G04 #@! TD.AperFunction*
G04 #@! TA.AperFunction,SMDPad,CuDef*
G36*
X161502779Y-105680144D02*
G01*
X161525834Y-105683563D01*
X161548443Y-105689227D01*
X161570387Y-105697079D01*
X161591457Y-105707044D01*
X161611448Y-105719026D01*
X161630168Y-105732910D01*
X161647438Y-105748562D01*
X161663090Y-105765832D01*
X161676974Y-105784552D01*
X161688956Y-105804543D01*
X161698921Y-105825613D01*
X161706773Y-105847557D01*
X161712437Y-105870166D01*
X161715856Y-105893221D01*
X161717000Y-105916500D01*
X161717000Y-106491500D01*
X161715856Y-106514779D01*
X161712437Y-106537834D01*
X161706773Y-106560443D01*
X161698921Y-106582387D01*
X161688956Y-106603457D01*
X161676974Y-106623448D01*
X161663090Y-106642168D01*
X161647438Y-106659438D01*
X161630168Y-106675090D01*
X161611448Y-106688974D01*
X161591457Y-106700956D01*
X161570387Y-106710921D01*
X161548443Y-106718773D01*
X161525834Y-106724437D01*
X161502779Y-106727856D01*
X161479500Y-106729000D01*
X161004500Y-106729000D01*
X160981221Y-106727856D01*
X160958166Y-106724437D01*
X160935557Y-106718773D01*
X160913613Y-106710921D01*
X160892543Y-106700956D01*
X160872552Y-106688974D01*
X160853832Y-106675090D01*
X160836562Y-106659438D01*
X160820910Y-106642168D01*
X160807026Y-106623448D01*
X160795044Y-106603457D01*
X160785079Y-106582387D01*
X160777227Y-106560443D01*
X160771563Y-106537834D01*
X160768144Y-106514779D01*
X160767000Y-106491500D01*
X160767000Y-105916500D01*
X160768144Y-105893221D01*
X160771563Y-105870166D01*
X160777227Y-105847557D01*
X160785079Y-105825613D01*
X160795044Y-105804543D01*
X160807026Y-105784552D01*
X160820910Y-105765832D01*
X160836562Y-105748562D01*
X160853832Y-105732910D01*
X160872552Y-105719026D01*
X160892543Y-105707044D01*
X160913613Y-105697079D01*
X160935557Y-105689227D01*
X160958166Y-105683563D01*
X160981221Y-105680144D01*
X161004500Y-105679000D01*
X161479500Y-105679000D01*
X161502779Y-105680144D01*
G37*
G04 #@! TD.AperFunction*
G04 #@! TA.AperFunction,SMDPad,CuDef*
G36*
X161502779Y-107430144D02*
G01*
X161525834Y-107433563D01*
X161548443Y-107439227D01*
X161570387Y-107447079D01*
X161591457Y-107457044D01*
X161611448Y-107469026D01*
X161630168Y-107482910D01*
X161647438Y-107498562D01*
X161663090Y-107515832D01*
X161676974Y-107534552D01*
X161688956Y-107554543D01*
X161698921Y-107575613D01*
X161706773Y-107597557D01*
X161712437Y-107620166D01*
X161715856Y-107643221D01*
X161717000Y-107666500D01*
X161717000Y-108241500D01*
X161715856Y-108264779D01*
X161712437Y-108287834D01*
X161706773Y-108310443D01*
X161698921Y-108332387D01*
X161688956Y-108353457D01*
X161676974Y-108373448D01*
X161663090Y-108392168D01*
X161647438Y-108409438D01*
X161630168Y-108425090D01*
X161611448Y-108438974D01*
X161591457Y-108450956D01*
X161570387Y-108460921D01*
X161548443Y-108468773D01*
X161525834Y-108474437D01*
X161502779Y-108477856D01*
X161479500Y-108479000D01*
X161004500Y-108479000D01*
X160981221Y-108477856D01*
X160958166Y-108474437D01*
X160935557Y-108468773D01*
X160913613Y-108460921D01*
X160892543Y-108450956D01*
X160872552Y-108438974D01*
X160853832Y-108425090D01*
X160836562Y-108409438D01*
X160820910Y-108392168D01*
X160807026Y-108373448D01*
X160795044Y-108353457D01*
X160785079Y-108332387D01*
X160777227Y-108310443D01*
X160771563Y-108287834D01*
X160768144Y-108264779D01*
X160767000Y-108241500D01*
X160767000Y-107666500D01*
X160768144Y-107643221D01*
X160771563Y-107620166D01*
X160777227Y-107597557D01*
X160785079Y-107575613D01*
X160795044Y-107554543D01*
X160807026Y-107534552D01*
X160820910Y-107515832D01*
X160836562Y-107498562D01*
X160853832Y-107482910D01*
X160872552Y-107469026D01*
X160892543Y-107457044D01*
X160913613Y-107447079D01*
X160935557Y-107439227D01*
X160958166Y-107433563D01*
X160981221Y-107430144D01*
X161004500Y-107429000D01*
X161479500Y-107429000D01*
X161502779Y-107430144D01*
G37*
G04 #@! TD.AperFunction*
G04 #@! TA.AperFunction,SMDPad,CuDef*
G36*
X159724779Y-107444144D02*
G01*
X159747834Y-107447563D01*
X159770443Y-107453227D01*
X159792387Y-107461079D01*
X159813457Y-107471044D01*
X159833448Y-107483026D01*
X159852168Y-107496910D01*
X159869438Y-107512562D01*
X159885090Y-107529832D01*
X159898974Y-107548552D01*
X159910956Y-107568543D01*
X159920921Y-107589613D01*
X159928773Y-107611557D01*
X159934437Y-107634166D01*
X159937856Y-107657221D01*
X159939000Y-107680500D01*
X159939000Y-108255500D01*
X159937856Y-108278779D01*
X159934437Y-108301834D01*
X159928773Y-108324443D01*
X159920921Y-108346387D01*
X159910956Y-108367457D01*
X159898974Y-108387448D01*
X159885090Y-108406168D01*
X159869438Y-108423438D01*
X159852168Y-108439090D01*
X159833448Y-108452974D01*
X159813457Y-108464956D01*
X159792387Y-108474921D01*
X159770443Y-108482773D01*
X159747834Y-108488437D01*
X159724779Y-108491856D01*
X159701500Y-108493000D01*
X159226500Y-108493000D01*
X159203221Y-108491856D01*
X159180166Y-108488437D01*
X159157557Y-108482773D01*
X159135613Y-108474921D01*
X159114543Y-108464956D01*
X159094552Y-108452974D01*
X159075832Y-108439090D01*
X159058562Y-108423438D01*
X159042910Y-108406168D01*
X159029026Y-108387448D01*
X159017044Y-108367457D01*
X159007079Y-108346387D01*
X158999227Y-108324443D01*
X158993563Y-108301834D01*
X158990144Y-108278779D01*
X158989000Y-108255500D01*
X158989000Y-107680500D01*
X158990144Y-107657221D01*
X158993563Y-107634166D01*
X158999227Y-107611557D01*
X159007079Y-107589613D01*
X159017044Y-107568543D01*
X159029026Y-107548552D01*
X159042910Y-107529832D01*
X159058562Y-107512562D01*
X159075832Y-107496910D01*
X159094552Y-107483026D01*
X159114543Y-107471044D01*
X159135613Y-107461079D01*
X159157557Y-107453227D01*
X159180166Y-107447563D01*
X159203221Y-107444144D01*
X159226500Y-107443000D01*
X159701500Y-107443000D01*
X159724779Y-107444144D01*
G37*
G04 #@! TD.AperFunction*
G04 #@! TA.AperFunction,SMDPad,CuDef*
G36*
X159724779Y-105694144D02*
G01*
X159747834Y-105697563D01*
X159770443Y-105703227D01*
X159792387Y-105711079D01*
X159813457Y-105721044D01*
X159833448Y-105733026D01*
X159852168Y-105746910D01*
X159869438Y-105762562D01*
X159885090Y-105779832D01*
X159898974Y-105798552D01*
X159910956Y-105818543D01*
X159920921Y-105839613D01*
X159928773Y-105861557D01*
X159934437Y-105884166D01*
X159937856Y-105907221D01*
X159939000Y-105930500D01*
X159939000Y-106505500D01*
X159937856Y-106528779D01*
X159934437Y-106551834D01*
X159928773Y-106574443D01*
X159920921Y-106596387D01*
X159910956Y-106617457D01*
X159898974Y-106637448D01*
X159885090Y-106656168D01*
X159869438Y-106673438D01*
X159852168Y-106689090D01*
X159833448Y-106702974D01*
X159813457Y-106714956D01*
X159792387Y-106724921D01*
X159770443Y-106732773D01*
X159747834Y-106738437D01*
X159724779Y-106741856D01*
X159701500Y-106743000D01*
X159226500Y-106743000D01*
X159203221Y-106741856D01*
X159180166Y-106738437D01*
X159157557Y-106732773D01*
X159135613Y-106724921D01*
X159114543Y-106714956D01*
X159094552Y-106702974D01*
X159075832Y-106689090D01*
X159058562Y-106673438D01*
X159042910Y-106656168D01*
X159029026Y-106637448D01*
X159017044Y-106617457D01*
X159007079Y-106596387D01*
X158999227Y-106574443D01*
X158993563Y-106551834D01*
X158990144Y-106528779D01*
X158989000Y-106505500D01*
X158989000Y-105930500D01*
X158990144Y-105907221D01*
X158993563Y-105884166D01*
X158999227Y-105861557D01*
X159007079Y-105839613D01*
X159017044Y-105818543D01*
X159029026Y-105798552D01*
X159042910Y-105779832D01*
X159058562Y-105762562D01*
X159075832Y-105746910D01*
X159094552Y-105733026D01*
X159114543Y-105721044D01*
X159135613Y-105711079D01*
X159157557Y-105703227D01*
X159180166Y-105697563D01*
X159203221Y-105694144D01*
X159226500Y-105693000D01*
X159701500Y-105693000D01*
X159724779Y-105694144D01*
G37*
G04 #@! TD.AperFunction*
D18*
X124412000Y-104426000D03*
X124412000Y-101251000D03*
X124412000Y-107601000D03*
X124412000Y-110776000D03*
D19*
X160353000Y-107982000D03*
X146891000Y-102521000D03*
X136985000Y-102013000D03*
X164798000Y-113570000D03*
X162893000Y-108109000D03*
X129873000Y-100489000D03*
X142573000Y-102775000D03*
X165560000Y-110268000D03*
X122000000Y-115000000D03*
X127000000Y-115000000D03*
X148000000Y-115000000D03*
X167000000Y-115000000D03*
X177000000Y-115000000D03*
X177000000Y-97000000D03*
X172000000Y-97000000D03*
X167000000Y-97000000D03*
X162000000Y-97000000D03*
X157000000Y-97000000D03*
X143000000Y-97000000D03*
X136000000Y-97000000D03*
X129000000Y-97000000D03*
X122000000Y-97000000D03*
X132000000Y-108000000D03*
X139000000Y-110000000D03*
X139000000Y-102000000D03*
X149000000Y-109000000D03*
X161000000Y-112000000D03*
X170000000Y-111000000D03*
X173000000Y-103000000D03*
X166000000Y-103000000D03*
X155250000Y-102750000D03*
X154638000Y-104807000D03*
X148259499Y-101152501D03*
X154638000Y-106585000D03*
X163909000Y-103029000D03*
X165433000Y-104299000D03*
X173942000Y-108617000D03*
X166576000Y-105569000D03*
X172672000Y-109125000D03*
X166576000Y-106839000D03*
X167719000Y-101759000D03*
X168862000Y-100489000D03*
X151336000Y-107347000D03*
X152987000Y-105696000D03*
X147780000Y-105823000D03*
X163909000Y-101759000D03*
X146917000Y-101277000D03*
X141684000Y-105315000D03*
X136731000Y-109252000D03*
X147018000Y-103918000D03*
X142954000Y-109252000D03*
X148415000Y-98330000D03*
X133302000Y-101759000D03*
X139398000Y-98711000D03*
X147526000Y-99346000D03*
X131905000Y-100489000D03*
X141303000Y-99346000D03*
X149050000Y-104680000D03*
X153876000Y-100616000D03*
X128477500Y-104173500D03*
X127991500Y-105719500D03*
X127587000Y-100235000D03*
D20*
X150253000Y-102584500D02*
X146954500Y-102584500D01*
D21*
X136985000Y-102013000D02*
X136985000Y-104553000D01*
X131143000Y-112427000D02*
X132794000Y-110776000D01*
X132794000Y-108744000D02*
X136985000Y-104553000D01*
X132794000Y-110776000D02*
X132794000Y-108744000D01*
X131143000Y-112427000D02*
X131143000Y-113951000D01*
X131143000Y-113951000D02*
X132159000Y-114967000D01*
X164798000Y-113570000D02*
X164798000Y-113570000D01*
D20*
X161482000Y-107968000D02*
X161496000Y-107982000D01*
X159464000Y-107968000D02*
X161482000Y-107968000D01*
D21*
X132159000Y-114967000D02*
X144605000Y-114967000D01*
X144605000Y-114967000D02*
X145494000Y-114967000D01*
X145494000Y-114967000D02*
X148034000Y-112427000D01*
X148034000Y-112427000D02*
X149558000Y-112427000D01*
X149643000Y-113777000D02*
X150706000Y-114840000D01*
X149643000Y-112427000D02*
X149643000Y-113777000D01*
X164798000Y-114045000D02*
X164798000Y-113570000D01*
X164003000Y-114840000D02*
X164798000Y-114045000D01*
X150706000Y-114840000D02*
X164003000Y-114840000D01*
D20*
X146568999Y-100551999D02*
X147588999Y-100551999D01*
X146165999Y-100954999D02*
X146568999Y-100551999D01*
X146165999Y-104226501D02*
X146165999Y-100954999D01*
X145903000Y-104489500D02*
X146165999Y-104226501D01*
X145053000Y-104489500D02*
X145903000Y-104489500D01*
X147588999Y-100551999D02*
X148288000Y-101251000D01*
X148288000Y-101251000D02*
X150320000Y-101251000D01*
X154638000Y-106585000D02*
X154638000Y-106585000D01*
X134967000Y-109252000D02*
X134967000Y-112413000D01*
X141204000Y-109252000D02*
X141204000Y-112272000D01*
X128617000Y-109252000D02*
X128617000Y-112540000D01*
X163909000Y-108363000D02*
X163909000Y-103029000D01*
X162258000Y-110014000D02*
X163909000Y-108363000D01*
X160591000Y-103029000D02*
X163909000Y-103029000D01*
X160607000Y-104045000D02*
X160607000Y-103029000D01*
X160607000Y-104045000D02*
X160607000Y-104553000D01*
X160607000Y-104553000D02*
X161242000Y-105188000D01*
X161242000Y-105188000D02*
X161242000Y-106077000D01*
X162258000Y-110014000D02*
X154257000Y-110014000D01*
X154257000Y-110014000D02*
X152098000Y-112173000D01*
X165433000Y-108617000D02*
X165433000Y-104299000D01*
X163401000Y-110649000D02*
X165433000Y-108617000D01*
X163401000Y-110649000D02*
X156162000Y-110649000D01*
X156162000Y-110649000D02*
X154638000Y-112173000D01*
X173376315Y-108617000D02*
X173942000Y-108617000D01*
X170328315Y-105569000D02*
X173376315Y-108617000D01*
X166576000Y-105569000D02*
X170328315Y-105569000D01*
X170386000Y-106839000D02*
X172672000Y-109125000D01*
X166576000Y-106839000D02*
X170386000Y-106839000D01*
X171519335Y-105559335D02*
X172916335Y-105559335D01*
X167719000Y-101759000D02*
X171519335Y-105559335D01*
X172916335Y-105559335D02*
X174450000Y-107093000D01*
X174450000Y-107093000D02*
X176355000Y-107093000D01*
X172684000Y-104311000D02*
X168862000Y-100489000D01*
X176484000Y-104311000D02*
X172684000Y-104311000D01*
X150253000Y-106264000D02*
X151336000Y-107347000D01*
X150253000Y-105759500D02*
X150253000Y-106264000D01*
X157559000Y-102521000D02*
X157940000Y-102140000D01*
X157940000Y-102140000D02*
X158575000Y-102140000D01*
X156819510Y-105696000D02*
X157559000Y-104956510D01*
X157559000Y-104956510D02*
X157559000Y-102521000D01*
X152569490Y-107347000D02*
X154220490Y-105696000D01*
X154220490Y-105696000D02*
X156819510Y-105696000D01*
X151336000Y-107347000D02*
X152569490Y-107347000D01*
X158575000Y-104934000D02*
X158575000Y-104045000D01*
X158575000Y-104934000D02*
X158575000Y-105315000D01*
X158575000Y-105315000D02*
X157305000Y-106585000D01*
X157305000Y-106585000D02*
X156416000Y-106585000D01*
X157686000Y-100485000D02*
X157686000Y-100489000D01*
X157875000Y-100296000D02*
X157686000Y-100485000D01*
X156289000Y-101886000D02*
X156289000Y-104807000D01*
X157686000Y-100489000D02*
X156289000Y-101886000D01*
X158575000Y-100296000D02*
X157875000Y-100296000D01*
X145053000Y-105124500D02*
X147081500Y-105124500D01*
X147081500Y-105124500D02*
X147780000Y-105823000D01*
X147780000Y-105823000D02*
X147780000Y-105823000D01*
X152987000Y-105130315D02*
X152987000Y-105696000D01*
X152987000Y-103472000D02*
X152987000Y-105130315D01*
X158063000Y-98396000D02*
X152987000Y-103472000D01*
X158575000Y-98396000D02*
X158063000Y-98396000D01*
X163343315Y-101759000D02*
X163909000Y-101759000D01*
X161896000Y-101759000D02*
X163343315Y-101759000D01*
X160575000Y-100438000D02*
X161896000Y-101759000D01*
X160575000Y-99788000D02*
X160575000Y-100438000D01*
X159591000Y-99854000D02*
X159591000Y-106218000D01*
X160099000Y-99346000D02*
X159591000Y-99854000D01*
X160575000Y-99346000D02*
X160099000Y-99346000D01*
X160575000Y-99788000D02*
X160575000Y-99378000D01*
X147589500Y-101949500D02*
X146917000Y-101277000D01*
X150253000Y-101949500D02*
X147589500Y-101949500D01*
X141684000Y-100997000D02*
X141684000Y-104807000D01*
X142636500Y-100044500D02*
X141684000Y-100997000D01*
X145053000Y-100044500D02*
X142636500Y-100044500D01*
X141684000Y-104807000D02*
X141684000Y-105372685D01*
X147018000Y-103918000D02*
X150320000Y-103918000D01*
X139398000Y-98711000D02*
X139525000Y-98711000D01*
X148814999Y-98729999D02*
X148814999Y-99491999D01*
X148415000Y-98330000D02*
X148814999Y-98729999D01*
X148814999Y-99491999D02*
X149304000Y-99981000D01*
X149304000Y-99981000D02*
X150193000Y-99981000D01*
X131651000Y-101759000D02*
X133302000Y-101759000D01*
X130889000Y-100997000D02*
X131651000Y-101759000D01*
X130889000Y-99727000D02*
X130889000Y-100997000D01*
X131905000Y-98711000D02*
X130889000Y-99727000D01*
X139398000Y-98711000D02*
X131905000Y-98711000D01*
X131905000Y-100489000D02*
X140160000Y-100489000D01*
X140160000Y-100489000D02*
X141303000Y-99346000D01*
X141303000Y-99346000D02*
X141303000Y-99346000D01*
X147526000Y-99346000D02*
X147925999Y-99745999D01*
X147925999Y-99745999D02*
X148796000Y-100616000D01*
X148796000Y-100616000D02*
X150320000Y-100616000D01*
X144203000Y-103854500D02*
X143970000Y-104087500D01*
X145053000Y-103854500D02*
X144203000Y-103854500D01*
X143970000Y-106061502D02*
X144493498Y-106585000D01*
X143970000Y-104087500D02*
X143970000Y-106061502D01*
X149050000Y-105245685D02*
X149050000Y-104680000D01*
X149050000Y-105626002D02*
X149050000Y-105245685D01*
X148091002Y-106585000D02*
X149050000Y-105626002D01*
X144493498Y-106585000D02*
X148091002Y-106585000D01*
X145803002Y-100679500D02*
X146383000Y-100099502D01*
X145053000Y-100679500D02*
X145803002Y-100679500D01*
X146383000Y-100099502D02*
X146383000Y-99288998D01*
X146383000Y-99288998D02*
X146383000Y-98330000D01*
X146383000Y-98330000D02*
X147145000Y-97568000D01*
X147145000Y-97568000D02*
X152733000Y-97568000D01*
X152733000Y-97568000D02*
X153876000Y-98711000D01*
X153876000Y-98711000D02*
X153876000Y-100616000D01*
X153876000Y-100616000D02*
X153876000Y-100616000D01*
D21*
X128225000Y-104426000D02*
X128477500Y-104173500D01*
X124412000Y-104426000D02*
X128225000Y-104426000D01*
X127991500Y-106285185D02*
X127991500Y-105719500D01*
X127412000Y-107601000D02*
X127991500Y-107021500D01*
X127991500Y-107021500D02*
X127991500Y-106285185D01*
X124412000Y-107601000D02*
X127412000Y-107601000D01*
X127587000Y-100800685D02*
X127136685Y-101251000D01*
X127587000Y-100235000D02*
X127587000Y-100800685D01*
X127136685Y-101251000D02*
X124285000Y-101251000D01*
D22*
G36*
X178053000Y-100234824D02*
G01*
X174744000Y-100234824D01*
X174669311Y-100242180D01*
X174597492Y-100263966D01*
X174531304Y-100299345D01*
X174473289Y-100346956D01*
X174425678Y-100404971D01*
X174390299Y-100471159D01*
X174368513Y-100542978D01*
X174361157Y-100617667D01*
X174361157Y-102464333D01*
X174368513Y-102539022D01*
X174390299Y-102610841D01*
X174425678Y-102677029D01*
X174473289Y-102735044D01*
X174531304Y-102782655D01*
X174597492Y-102818034D01*
X174669311Y-102839820D01*
X174744000Y-102847176D01*
X178053000Y-102847176D01*
X178053000Y-103004824D01*
X174744000Y-103004824D01*
X174669311Y-103012180D01*
X174597492Y-103033966D01*
X174531304Y-103069345D01*
X174473289Y-103116956D01*
X174425678Y-103174971D01*
X174390299Y-103241159D01*
X174368513Y-103312978D01*
X174361157Y-103387667D01*
X174361157Y-103805000D01*
X172893592Y-103805000D01*
X169643000Y-100554409D01*
X169643000Y-100412078D01*
X169612987Y-100261191D01*
X169554113Y-100119058D01*
X169468642Y-99991141D01*
X169359859Y-99882358D01*
X169231942Y-99796887D01*
X169089809Y-99738013D01*
X168938922Y-99708000D01*
X168785078Y-99708000D01*
X168634191Y-99738013D01*
X168492058Y-99796887D01*
X168364141Y-99882358D01*
X168255358Y-99991141D01*
X168169887Y-100119058D01*
X168111013Y-100261191D01*
X168081000Y-100412078D01*
X168081000Y-100565922D01*
X168111013Y-100716809D01*
X168169887Y-100858942D01*
X168255358Y-100986859D01*
X168364141Y-101095642D01*
X168492058Y-101181113D01*
X168634191Y-101239987D01*
X168785078Y-101270000D01*
X168927409Y-101270000D01*
X172308628Y-104651220D01*
X172324473Y-104670527D01*
X172401521Y-104733759D01*
X172473025Y-104771979D01*
X172489425Y-104780745D01*
X172584806Y-104809678D01*
X172594694Y-104810652D01*
X172659146Y-104817000D01*
X172659153Y-104817000D01*
X172683999Y-104819447D01*
X172708845Y-104817000D01*
X174361157Y-104817000D01*
X174361157Y-105234333D01*
X174368513Y-105309022D01*
X174390299Y-105380841D01*
X174425678Y-105447029D01*
X174473289Y-105505044D01*
X174531304Y-105552655D01*
X174597492Y-105588034D01*
X174669311Y-105609820D01*
X174744000Y-105617176D01*
X178053000Y-105617176D01*
X178053000Y-105774824D01*
X174744000Y-105774824D01*
X174669311Y-105782180D01*
X174597492Y-105803966D01*
X174531304Y-105839345D01*
X174473289Y-105886956D01*
X174425678Y-105944971D01*
X174390299Y-106011159D01*
X174368513Y-106082978D01*
X174361157Y-106157667D01*
X174361157Y-106288565D01*
X173291711Y-105219120D01*
X173275862Y-105199808D01*
X173198814Y-105136576D01*
X173110910Y-105089590D01*
X173015528Y-105060657D01*
X172941189Y-105053335D01*
X172941181Y-105053335D01*
X172916335Y-105050888D01*
X172891489Y-105053335D01*
X171728927Y-105053335D01*
X168500000Y-101824409D01*
X168500000Y-101682078D01*
X168469987Y-101531191D01*
X168411113Y-101389058D01*
X168325642Y-101261141D01*
X168216859Y-101152358D01*
X168088942Y-101066887D01*
X167946809Y-101008013D01*
X167795922Y-100978000D01*
X167642078Y-100978000D01*
X167491191Y-101008013D01*
X167349058Y-101066887D01*
X167221141Y-101152358D01*
X167112358Y-101261141D01*
X167026887Y-101389058D01*
X166968013Y-101531191D01*
X166938000Y-101682078D01*
X166938000Y-101835922D01*
X166968013Y-101986809D01*
X167026887Y-102128942D01*
X167112358Y-102256859D01*
X167221141Y-102365642D01*
X167349058Y-102451113D01*
X167491191Y-102509987D01*
X167642078Y-102540000D01*
X167784409Y-102540000D01*
X170307055Y-105062647D01*
X170303469Y-105063000D01*
X167174501Y-105063000D01*
X167073859Y-104962358D01*
X166945942Y-104876887D01*
X166803809Y-104818013D01*
X166652922Y-104788000D01*
X166499078Y-104788000D01*
X166348191Y-104818013D01*
X166206058Y-104876887D01*
X166078141Y-104962358D01*
X165969358Y-105071141D01*
X165939000Y-105116575D01*
X165939000Y-104897501D01*
X166039642Y-104796859D01*
X166125113Y-104668942D01*
X166183987Y-104526809D01*
X166214000Y-104375922D01*
X166214000Y-104222078D01*
X166183987Y-104071191D01*
X166125113Y-103929058D01*
X166039642Y-103801141D01*
X165930859Y-103692358D01*
X165802942Y-103606887D01*
X165660809Y-103548013D01*
X165509922Y-103518000D01*
X165356078Y-103518000D01*
X165205191Y-103548013D01*
X165063058Y-103606887D01*
X164935141Y-103692358D01*
X164826358Y-103801141D01*
X164740887Y-103929058D01*
X164682013Y-104071191D01*
X164652000Y-104222078D01*
X164652000Y-104375922D01*
X164682013Y-104526809D01*
X164740887Y-104668942D01*
X164826358Y-104796859D01*
X164927001Y-104897502D01*
X164927000Y-108407408D01*
X163191409Y-110143000D01*
X162844591Y-110143000D01*
X164249220Y-108738372D01*
X164268527Y-108722527D01*
X164331759Y-108645479D01*
X164378745Y-108557575D01*
X164407678Y-108462193D01*
X164415000Y-108387854D01*
X164415000Y-108387853D01*
X164417448Y-108363000D01*
X164415000Y-108338146D01*
X164415000Y-103627501D01*
X164515642Y-103526859D01*
X164601113Y-103398942D01*
X164659987Y-103256809D01*
X164690000Y-103105922D01*
X164690000Y-102952078D01*
X164659987Y-102801191D01*
X164601113Y-102659058D01*
X164515642Y-102531141D01*
X164406859Y-102422358D01*
X164364418Y-102394000D01*
X164406859Y-102365642D01*
X164515642Y-102256859D01*
X164601113Y-102128942D01*
X164659987Y-101986809D01*
X164690000Y-101835922D01*
X164690000Y-101682078D01*
X164659987Y-101531191D01*
X164601113Y-101389058D01*
X164515642Y-101261141D01*
X164406859Y-101152358D01*
X164278942Y-101066887D01*
X164136809Y-101008013D01*
X163985922Y-100978000D01*
X163832078Y-100978000D01*
X163681191Y-101008013D01*
X163539058Y-101066887D01*
X163411141Y-101152358D01*
X163310499Y-101253000D01*
X162105592Y-101253000D01*
X161081000Y-100228409D01*
X161081000Y-100123328D01*
X161099689Y-100121487D01*
X161171508Y-100099701D01*
X161237696Y-100064322D01*
X161295711Y-100016711D01*
X161343322Y-99958696D01*
X161378701Y-99892508D01*
X161400487Y-99820689D01*
X161407843Y-99746000D01*
X161407843Y-98946000D01*
X161400487Y-98871311D01*
X161378701Y-98799492D01*
X161343322Y-98733304D01*
X161295711Y-98675289D01*
X161237696Y-98627678D01*
X161171508Y-98592299D01*
X161099689Y-98570513D01*
X161025000Y-98563157D01*
X160125000Y-98563157D01*
X160050311Y-98570513D01*
X159978492Y-98592299D01*
X159912304Y-98627678D01*
X159854289Y-98675289D01*
X159806678Y-98733304D01*
X159771299Y-98799492D01*
X159749513Y-98871311D01*
X159742157Y-98946000D01*
X159742157Y-98984270D01*
X159739473Y-98986473D01*
X159723628Y-99005780D01*
X159250785Y-99478624D01*
X159231473Y-99494473D01*
X159185907Y-99549995D01*
X159171508Y-99542299D01*
X159099689Y-99520513D01*
X159025000Y-99513157D01*
X158125000Y-99513157D01*
X158050311Y-99520513D01*
X157978492Y-99542299D01*
X157912304Y-99577678D01*
X157854289Y-99625289D01*
X157806678Y-99683304D01*
X157771299Y-99749492D01*
X157754863Y-99803675D01*
X157680425Y-99826255D01*
X157592521Y-99873241D01*
X157515473Y-99936473D01*
X157499624Y-99955785D01*
X157345785Y-100109624D01*
X157326473Y-100125473D01*
X157292321Y-100167087D01*
X155948785Y-101510624D01*
X155929473Y-101526473D01*
X155866241Y-101603521D01*
X155819255Y-101691426D01*
X155790322Y-101786808D01*
X155783000Y-101861147D01*
X155783000Y-101861154D01*
X155780553Y-101886000D01*
X155783000Y-101910846D01*
X155783001Y-104039195D01*
X155755856Y-104053704D01*
X155661851Y-104130851D01*
X155584704Y-104224856D01*
X155527378Y-104332105D01*
X155513000Y-104379503D01*
X155498622Y-104332105D01*
X155441296Y-104224856D01*
X155364149Y-104130851D01*
X155270144Y-104053704D01*
X155162895Y-103996378D01*
X155046523Y-103961077D01*
X154925500Y-103949157D01*
X154350500Y-103949157D01*
X154229477Y-103961077D01*
X154113105Y-103996378D01*
X154005856Y-104053704D01*
X153911851Y-104130851D01*
X153834704Y-104224856D01*
X153777378Y-104332105D01*
X153742077Y-104448477D01*
X153730157Y-104569500D01*
X153730157Y-105044500D01*
X153742077Y-105165523D01*
X153777378Y-105281895D01*
X153826710Y-105374188D01*
X153736441Y-105464458D01*
X153679113Y-105326058D01*
X153593642Y-105198141D01*
X153493000Y-105097499D01*
X153493000Y-103681591D01*
X158014092Y-99160500D01*
X158050311Y-99171487D01*
X158125000Y-99178843D01*
X159025000Y-99178843D01*
X159099689Y-99171487D01*
X159171508Y-99149701D01*
X159237696Y-99114322D01*
X159295711Y-99066711D01*
X159343322Y-99008696D01*
X159378701Y-98942508D01*
X159400487Y-98870689D01*
X159407843Y-98796000D01*
X159407843Y-97996000D01*
X159400487Y-97921311D01*
X159378701Y-97849492D01*
X159343322Y-97783304D01*
X159295711Y-97725289D01*
X159237696Y-97677678D01*
X159171508Y-97642299D01*
X159099689Y-97620513D01*
X159025000Y-97613157D01*
X158125000Y-97613157D01*
X158050311Y-97620513D01*
X157978492Y-97642299D01*
X157912304Y-97677678D01*
X157854289Y-97725289D01*
X157806678Y-97783304D01*
X157771299Y-97849492D01*
X157749513Y-97921311D01*
X157742157Y-97996000D01*
X157742157Y-98004726D01*
X157703473Y-98036473D01*
X157687628Y-98055780D01*
X152646785Y-103096624D01*
X152627473Y-103112473D01*
X152564241Y-103189521D01*
X152517255Y-103277426D01*
X152488322Y-103372808D01*
X152481000Y-103447147D01*
X152481000Y-103447154D01*
X152478553Y-103472000D01*
X152481000Y-103496847D01*
X152481001Y-105097498D01*
X152380358Y-105198141D01*
X152294887Y-105326058D01*
X152236013Y-105468191D01*
X152206000Y-105619078D01*
X152206000Y-105772922D01*
X152236013Y-105923809D01*
X152294887Y-106065942D01*
X152380358Y-106193859D01*
X152489141Y-106302642D01*
X152617058Y-106388113D01*
X152755458Y-106445441D01*
X152359899Y-106841000D01*
X151934501Y-106841000D01*
X151833859Y-106740358D01*
X151705942Y-106654887D01*
X151563809Y-106596013D01*
X151412922Y-106566000D01*
X151270592Y-106566000D01*
X151011423Y-106306832D01*
X151065696Y-106277822D01*
X151123711Y-106230211D01*
X151171322Y-106172196D01*
X151206701Y-106106008D01*
X151228487Y-106034189D01*
X151235843Y-105959500D01*
X151235843Y-105559500D01*
X151228487Y-105484811D01*
X151215500Y-105442000D01*
X151228487Y-105399189D01*
X151235843Y-105324500D01*
X151235843Y-104924500D01*
X151228487Y-104849811D01*
X151215500Y-104807000D01*
X151228487Y-104764189D01*
X151235843Y-104689500D01*
X151235843Y-104289500D01*
X151228487Y-104214811D01*
X151215500Y-104172000D01*
X151228487Y-104129189D01*
X151235843Y-104054500D01*
X151235843Y-103926323D01*
X151296312Y-103878423D01*
X151377325Y-103783119D01*
X151438189Y-103673841D01*
X151476564Y-103554789D01*
X151488000Y-103451250D01*
X151329250Y-103292500D01*
X150972150Y-103292500D01*
X150927689Y-103279013D01*
X150853000Y-103271657D01*
X149653000Y-103271657D01*
X149578311Y-103279013D01*
X149533850Y-103292500D01*
X149176750Y-103292500D01*
X149057250Y-103412000D01*
X147616501Y-103412000D01*
X147515859Y-103311358D01*
X147387942Y-103225887D01*
X147297742Y-103188524D01*
X147388859Y-103127642D01*
X147426001Y-103090500D01*
X149120750Y-103090500D01*
X149176750Y-103146500D01*
X149533850Y-103146500D01*
X149578311Y-103159987D01*
X149653000Y-103167343D01*
X150853000Y-103167343D01*
X150927689Y-103159987D01*
X150972150Y-103146500D01*
X151329250Y-103146500D01*
X151488000Y-102987750D01*
X151476564Y-102884211D01*
X151438189Y-102765159D01*
X151377325Y-102655881D01*
X151296312Y-102560577D01*
X151235843Y-102512677D01*
X151235843Y-102384500D01*
X151228487Y-102309811D01*
X151215500Y-102267000D01*
X151228487Y-102224189D01*
X151235843Y-102149500D01*
X151235843Y-101749500D01*
X151228487Y-101674811D01*
X151215500Y-101632000D01*
X151228487Y-101589189D01*
X151235843Y-101514500D01*
X151235843Y-101114500D01*
X151228487Y-101039811D01*
X151215500Y-100997000D01*
X151228487Y-100954189D01*
X151235843Y-100879500D01*
X151235843Y-100479500D01*
X151228487Y-100404811D01*
X151215500Y-100362000D01*
X151228487Y-100319189D01*
X151235843Y-100244500D01*
X151235843Y-99844500D01*
X151228487Y-99769811D01*
X151206701Y-99697992D01*
X151171322Y-99631804D01*
X151123711Y-99573789D01*
X151065696Y-99526178D01*
X150999508Y-99490799D01*
X150927689Y-99469013D01*
X150853000Y-99461657D01*
X149653000Y-99461657D01*
X149578311Y-99469013D01*
X149558574Y-99475000D01*
X149513592Y-99475000D01*
X149320999Y-99282408D01*
X149320999Y-98754844D01*
X149323446Y-98729998D01*
X149320999Y-98705152D01*
X149320999Y-98705145D01*
X149313677Y-98630806D01*
X149284744Y-98535424D01*
X149237758Y-98447520D01*
X149196000Y-98396638D01*
X149196000Y-98253078D01*
X149165987Y-98102191D01*
X149154310Y-98074000D01*
X152523409Y-98074000D01*
X153370000Y-98920592D01*
X153370001Y-100017498D01*
X153269358Y-100118141D01*
X153183887Y-100246058D01*
X153125013Y-100388191D01*
X153095000Y-100539078D01*
X153095000Y-100692922D01*
X153125013Y-100843809D01*
X153183887Y-100985942D01*
X153269358Y-101113859D01*
X153378141Y-101222642D01*
X153506058Y-101308113D01*
X153648191Y-101366987D01*
X153799078Y-101397000D01*
X153952922Y-101397000D01*
X154103809Y-101366987D01*
X154245942Y-101308113D01*
X154373859Y-101222642D01*
X154482642Y-101113859D01*
X154568113Y-100985942D01*
X154626987Y-100843809D01*
X154657000Y-100692922D01*
X154657000Y-100539078D01*
X154626987Y-100388191D01*
X154568113Y-100246058D01*
X154482642Y-100118141D01*
X154382000Y-100017499D01*
X154382000Y-98735845D01*
X154384447Y-98710999D01*
X154382000Y-98686153D01*
X154382000Y-98686146D01*
X154374678Y-98611807D01*
X154368761Y-98592299D01*
X154345745Y-98516425D01*
X154327981Y-98483191D01*
X154298759Y-98428521D01*
X154235527Y-98351473D01*
X154216220Y-98335628D01*
X153108376Y-97227785D01*
X153092527Y-97208473D01*
X153015479Y-97145241D01*
X152927575Y-97098255D01*
X152832193Y-97069322D01*
X152757854Y-97062000D01*
X152757846Y-97062000D01*
X152733000Y-97059553D01*
X152708154Y-97062000D01*
X147169854Y-97062000D01*
X147145000Y-97059552D01*
X147120146Y-97062000D01*
X147045807Y-97069322D01*
X146950425Y-97098255D01*
X146862521Y-97145241D01*
X146785473Y-97208473D01*
X146769628Y-97227780D01*
X146042780Y-97954629D01*
X146023474Y-97970473D01*
X145960242Y-98047521D01*
X145946089Y-98074000D01*
X145913255Y-98135426D01*
X145884322Y-98230808D01*
X145874553Y-98330000D01*
X145877001Y-98354856D01*
X145877000Y-99313851D01*
X145877001Y-99313861D01*
X145877001Y-99535455D01*
X145865696Y-99526178D01*
X145799508Y-99490799D01*
X145727689Y-99469013D01*
X145653000Y-99461657D01*
X144453000Y-99461657D01*
X144378311Y-99469013D01*
X144306492Y-99490799D01*
X144240304Y-99526178D01*
X144225289Y-99538500D01*
X142661345Y-99538500D01*
X142636499Y-99536053D01*
X142611653Y-99538500D01*
X142611646Y-99538500D01*
X142547194Y-99544848D01*
X142537306Y-99545822D01*
X142518839Y-99551424D01*
X142441925Y-99574755D01*
X142354021Y-99621741D01*
X142276973Y-99684973D01*
X142261128Y-99704280D01*
X141343785Y-100621624D01*
X141324473Y-100637473D01*
X141261241Y-100714521D01*
X141214255Y-100802426D01*
X141185322Y-100897808D01*
X141178000Y-100972147D01*
X141178000Y-100972154D01*
X141175553Y-100997000D01*
X141178000Y-101021846D01*
X141178001Y-104716498D01*
X141077358Y-104817141D01*
X140991887Y-104945058D01*
X140933013Y-105087191D01*
X140903000Y-105238078D01*
X140903000Y-105391922D01*
X140933013Y-105542809D01*
X140991887Y-105684942D01*
X141077358Y-105812859D01*
X141186141Y-105921642D01*
X141314058Y-106007113D01*
X141456191Y-106065987D01*
X141607078Y-106096000D01*
X141760922Y-106096000D01*
X141911809Y-106065987D01*
X142053942Y-106007113D01*
X142181859Y-105921642D01*
X142290642Y-105812859D01*
X142376113Y-105684942D01*
X142434987Y-105542809D01*
X142465000Y-105391922D01*
X142465000Y-105238078D01*
X142434987Y-105087191D01*
X142376113Y-104945058D01*
X142290642Y-104817141D01*
X142190000Y-104716499D01*
X142190000Y-101206591D01*
X142846092Y-100550500D01*
X144070157Y-100550500D01*
X144070157Y-100879500D01*
X144077513Y-100954189D01*
X144090500Y-100997000D01*
X144077513Y-101039811D01*
X144070157Y-101114500D01*
X144070157Y-101514500D01*
X144077513Y-101589189D01*
X144090500Y-101632000D01*
X144077513Y-101674811D01*
X144070157Y-101749500D01*
X144070157Y-101877677D01*
X144009688Y-101925577D01*
X143928675Y-102020881D01*
X143867811Y-102130159D01*
X143829436Y-102249211D01*
X143818000Y-102352750D01*
X143976750Y-102511500D01*
X144333850Y-102511500D01*
X144378311Y-102524987D01*
X144453000Y-102532343D01*
X145200000Y-102532343D01*
X145200000Y-102636657D01*
X144453000Y-102636657D01*
X144378311Y-102644013D01*
X144333850Y-102657500D01*
X143976750Y-102657500D01*
X143818000Y-102816250D01*
X143829436Y-102919789D01*
X143867811Y-103038841D01*
X143928675Y-103148119D01*
X144009688Y-103243423D01*
X144070157Y-103291323D01*
X144070157Y-103366029D01*
X144008425Y-103384755D01*
X143920521Y-103431741D01*
X143843473Y-103494973D01*
X143827624Y-103514285D01*
X143629785Y-103712124D01*
X143610473Y-103727973D01*
X143547241Y-103805021D01*
X143500255Y-103892926D01*
X143471322Y-103988308D01*
X143464000Y-104062647D01*
X143464000Y-104062654D01*
X143461553Y-104087500D01*
X143464000Y-104112346D01*
X143464001Y-106036646D01*
X143461553Y-106061502D01*
X143471322Y-106160694D01*
X143500255Y-106256076D01*
X143517776Y-106288854D01*
X143547242Y-106343981D01*
X143610474Y-106421029D01*
X143629780Y-106436873D01*
X144118126Y-106925220D01*
X144133971Y-106944527D01*
X144211019Y-107007759D01*
X144298923Y-107054745D01*
X144394305Y-107083678D01*
X144468644Y-107091000D01*
X144468652Y-107091000D01*
X144493498Y-107093447D01*
X144518344Y-107091000D01*
X148066156Y-107091000D01*
X148091002Y-107093447D01*
X148115848Y-107091000D01*
X148115856Y-107091000D01*
X148190195Y-107083678D01*
X148285577Y-107054745D01*
X148373481Y-107007759D01*
X148450529Y-106944527D01*
X148466378Y-106925215D01*
X149296107Y-106095487D01*
X149299299Y-106106008D01*
X149334678Y-106172196D01*
X149382289Y-106230211D01*
X149440304Y-106277822D01*
X149506492Y-106313201D01*
X149578311Y-106334987D01*
X149653000Y-106342343D01*
X149752269Y-106342343D01*
X149754322Y-106363192D01*
X149783255Y-106458574D01*
X149797812Y-106485807D01*
X149830242Y-106546479D01*
X149893474Y-106623527D01*
X149912780Y-106639371D01*
X150555000Y-107281592D01*
X150555000Y-107423922D01*
X150585013Y-107574809D01*
X150643887Y-107716942D01*
X150729358Y-107844859D01*
X150838141Y-107953642D01*
X150966058Y-108039113D01*
X151108191Y-108097987D01*
X151259078Y-108128000D01*
X151412922Y-108128000D01*
X151563809Y-108097987D01*
X151705942Y-108039113D01*
X151833859Y-107953642D01*
X151934501Y-107853000D01*
X152544644Y-107853000D01*
X152569490Y-107855447D01*
X152594336Y-107853000D01*
X152594344Y-107853000D01*
X152668683Y-107845678D01*
X152764065Y-107816745D01*
X152851969Y-107769759D01*
X152929017Y-107706527D01*
X152944866Y-107687215D01*
X153750023Y-106882058D01*
X153756077Y-106943523D01*
X153791378Y-107059895D01*
X153848704Y-107167144D01*
X153925851Y-107261149D01*
X154019856Y-107338296D01*
X154127105Y-107395622D01*
X154243477Y-107430923D01*
X154364500Y-107442843D01*
X154939500Y-107442843D01*
X155060523Y-107430923D01*
X155176895Y-107395622D01*
X155284144Y-107338296D01*
X155378149Y-107261149D01*
X155455296Y-107167144D01*
X155512622Y-107059895D01*
X155527000Y-107012497D01*
X155541378Y-107059895D01*
X155598704Y-107167144D01*
X155675851Y-107261149D01*
X155769856Y-107338296D01*
X155877105Y-107395622D01*
X155993477Y-107430923D01*
X156114500Y-107442843D01*
X156689500Y-107442843D01*
X156810523Y-107430923D01*
X156926895Y-107395622D01*
X157034144Y-107338296D01*
X157128149Y-107261149D01*
X157205296Y-107167144D01*
X157245996Y-107091000D01*
X157280154Y-107091000D01*
X157305000Y-107093447D01*
X157329846Y-107091000D01*
X157329854Y-107091000D01*
X157404193Y-107083678D01*
X157499575Y-107054745D01*
X157587479Y-107007759D01*
X157664527Y-106944527D01*
X157680376Y-106925215D01*
X158606157Y-105999435D01*
X158606157Y-106505500D01*
X158618077Y-106626523D01*
X158653378Y-106742895D01*
X158710704Y-106850144D01*
X158787851Y-106944149D01*
X158881856Y-107021296D01*
X158989105Y-107078622D01*
X159036503Y-107093000D01*
X158989105Y-107107378D01*
X158881856Y-107164704D01*
X158787851Y-107241851D01*
X158710704Y-107335856D01*
X158653378Y-107443105D01*
X158618077Y-107559477D01*
X158606157Y-107680500D01*
X158606157Y-108255500D01*
X158618077Y-108376523D01*
X158653378Y-108492895D01*
X158710704Y-108600144D01*
X158787851Y-108694149D01*
X158881856Y-108771296D01*
X158989105Y-108828622D01*
X159105477Y-108863923D01*
X159226500Y-108875843D01*
X159701500Y-108875843D01*
X159822523Y-108863923D01*
X159938895Y-108828622D01*
X160046144Y-108771296D01*
X160103681Y-108724077D01*
X160125191Y-108732987D01*
X160276078Y-108763000D01*
X160429922Y-108763000D01*
X160580809Y-108732987D01*
X160613656Y-108719381D01*
X160659856Y-108757296D01*
X160767105Y-108814622D01*
X160883477Y-108849923D01*
X161004500Y-108861843D01*
X161479500Y-108861843D01*
X161600523Y-108849923D01*
X161716895Y-108814622D01*
X161824144Y-108757296D01*
X161918149Y-108680149D01*
X161995296Y-108586144D01*
X162052622Y-108478895D01*
X162087923Y-108362523D01*
X162099843Y-108241500D01*
X162099843Y-107666500D01*
X162087923Y-107545477D01*
X162052622Y-107429105D01*
X161995296Y-107321856D01*
X161918149Y-107227851D01*
X161824144Y-107150704D01*
X161716895Y-107093378D01*
X161669497Y-107079000D01*
X161716895Y-107064622D01*
X161824144Y-107007296D01*
X161918149Y-106930149D01*
X161995296Y-106836144D01*
X162052622Y-106728895D01*
X162087923Y-106612523D01*
X162099843Y-106491500D01*
X162099843Y-105916500D01*
X162087923Y-105795477D01*
X162052622Y-105679105D01*
X161995296Y-105571856D01*
X161918149Y-105477851D01*
X161824144Y-105400704D01*
X161748000Y-105360004D01*
X161748000Y-105212854D01*
X161750448Y-105188000D01*
X161740678Y-105088807D01*
X161711745Y-104993425D01*
X161695139Y-104962358D01*
X161664759Y-104905521D01*
X161601527Y-104828473D01*
X161582220Y-104812628D01*
X161113000Y-104343409D01*
X161113000Y-103804752D01*
X161115689Y-103804487D01*
X161187508Y-103782701D01*
X161253696Y-103747322D01*
X161311711Y-103699711D01*
X161359322Y-103641696D01*
X161394701Y-103575508D01*
X161406989Y-103535000D01*
X163310499Y-103535000D01*
X163403001Y-103627502D01*
X163403000Y-108153408D01*
X162048409Y-109508000D01*
X154281845Y-109508000D01*
X154256999Y-109505553D01*
X154232153Y-109508000D01*
X154232146Y-109508000D01*
X154157807Y-109515322D01*
X154062425Y-109544255D01*
X153974521Y-109591241D01*
X153897473Y-109654473D01*
X153881629Y-109673779D01*
X152350256Y-111205153D01*
X152304243Y-111196000D01*
X152061757Y-111196000D01*
X151823931Y-111243307D01*
X151599903Y-111336102D01*
X151398283Y-111470820D01*
X151226820Y-111642283D01*
X151092102Y-111843903D01*
X150999307Y-112067931D01*
X150952000Y-112305757D01*
X150952000Y-112548243D01*
X150999307Y-112786069D01*
X151092102Y-113010097D01*
X151226820Y-113211717D01*
X151398283Y-113383180D01*
X151599903Y-113517898D01*
X151823931Y-113610693D01*
X152061757Y-113658000D01*
X152304243Y-113658000D01*
X152542069Y-113610693D01*
X152766097Y-113517898D01*
X152967717Y-113383180D01*
X153139180Y-113211717D01*
X153273898Y-113010097D01*
X153366693Y-112786069D01*
X153414000Y-112548243D01*
X153414000Y-112305757D01*
X153366693Y-112067931D01*
X153273898Y-111843903D01*
X153221343Y-111765249D01*
X154466592Y-110520000D01*
X155575408Y-110520000D01*
X154890256Y-111205153D01*
X154844243Y-111196000D01*
X154601757Y-111196000D01*
X154363931Y-111243307D01*
X154139903Y-111336102D01*
X153938283Y-111470820D01*
X153766820Y-111642283D01*
X153632102Y-111843903D01*
X153539307Y-112067931D01*
X153492000Y-112305757D01*
X153492000Y-112548243D01*
X153539307Y-112786069D01*
X153632102Y-113010097D01*
X153766820Y-113211717D01*
X153938283Y-113383180D01*
X154139903Y-113517898D01*
X154363931Y-113610693D01*
X154601757Y-113658000D01*
X154844243Y-113658000D01*
X155082069Y-113610693D01*
X155306097Y-113517898D01*
X155507717Y-113383180D01*
X155679180Y-113211717D01*
X155813898Y-113010097D01*
X155861228Y-112895832D01*
X155918843Y-113058252D01*
X156067822Y-113308355D01*
X156262731Y-113524588D01*
X156496080Y-113698641D01*
X156758901Y-113823825D01*
X156906110Y-113868476D01*
X157136000Y-113747155D01*
X157136000Y-112554000D01*
X157390000Y-112554000D01*
X157390000Y-113747155D01*
X157619890Y-113868476D01*
X157767099Y-113823825D01*
X158029920Y-113698641D01*
X158263269Y-113524588D01*
X158458178Y-113308355D01*
X158607157Y-113058252D01*
X158704481Y-112783891D01*
X158583814Y-112554000D01*
X157390000Y-112554000D01*
X157136000Y-112554000D01*
X157116000Y-112554000D01*
X157116000Y-112300000D01*
X157136000Y-112300000D01*
X157136000Y-112280000D01*
X157390000Y-112280000D01*
X157390000Y-112300000D01*
X158583814Y-112300000D01*
X158704481Y-112070109D01*
X158607157Y-111795748D01*
X158458178Y-111545645D01*
X158263269Y-111329412D01*
X158029920Y-111155359D01*
X158029166Y-111155000D01*
X163376154Y-111155000D01*
X163401000Y-111157447D01*
X163425846Y-111155000D01*
X163425854Y-111155000D01*
X163500193Y-111147678D01*
X163595575Y-111118745D01*
X163683479Y-111071759D01*
X163760527Y-111008527D01*
X163776376Y-110989215D01*
X165773222Y-108992370D01*
X165792527Y-108976527D01*
X165855759Y-108899479D01*
X165902745Y-108811575D01*
X165931678Y-108716193D01*
X165939000Y-108641854D01*
X165939000Y-108641846D01*
X165941447Y-108617000D01*
X165939000Y-108592154D01*
X165939000Y-107291425D01*
X165969358Y-107336859D01*
X166078141Y-107445642D01*
X166206058Y-107531113D01*
X166348191Y-107589987D01*
X166499078Y-107620000D01*
X166652922Y-107620000D01*
X166803809Y-107589987D01*
X166945942Y-107531113D01*
X167073859Y-107445642D01*
X167174501Y-107345000D01*
X170176409Y-107345000D01*
X171891000Y-109059592D01*
X171891000Y-109201922D01*
X171921013Y-109352809D01*
X171979887Y-109494942D01*
X172065358Y-109622859D01*
X172174141Y-109731642D01*
X172302058Y-109817113D01*
X172444191Y-109875987D01*
X172595078Y-109906000D01*
X172748922Y-109906000D01*
X172899809Y-109875987D01*
X173041942Y-109817113D01*
X173169859Y-109731642D01*
X173278642Y-109622859D01*
X173364113Y-109494942D01*
X173422987Y-109352809D01*
X173448147Y-109226319D01*
X173572058Y-109309113D01*
X173714191Y-109367987D01*
X173865078Y-109398000D01*
X174018922Y-109398000D01*
X174169809Y-109367987D01*
X174311942Y-109309113D01*
X174361157Y-109276229D01*
X174361157Y-110774333D01*
X174368513Y-110849022D01*
X174390299Y-110920841D01*
X174425678Y-110987029D01*
X174473289Y-111045044D01*
X174531304Y-111092655D01*
X174597492Y-111128034D01*
X174669311Y-111149820D01*
X174744000Y-111157176D01*
X178053001Y-111157176D01*
X178053001Y-115695000D01*
X120915000Y-115695000D01*
X120915000Y-111776000D01*
X121273928Y-111776000D01*
X121286188Y-111900482D01*
X121322498Y-112020180D01*
X121381463Y-112130494D01*
X121460815Y-112227185D01*
X121557506Y-112306537D01*
X121667820Y-112365502D01*
X121787518Y-112401812D01*
X121912000Y-112414072D01*
X124126250Y-112411000D01*
X124285000Y-112252250D01*
X124285000Y-110903000D01*
X124539000Y-110903000D01*
X124539000Y-112252250D01*
X124697750Y-112411000D01*
X126912000Y-112414072D01*
X127036482Y-112401812D01*
X127156180Y-112365502D01*
X127266494Y-112306537D01*
X127320157Y-112262497D01*
X127320157Y-113327000D01*
X127327513Y-113401689D01*
X127349299Y-113473508D01*
X127384678Y-113539696D01*
X127432289Y-113597711D01*
X127490304Y-113645322D01*
X127556492Y-113680701D01*
X127628311Y-113702487D01*
X127703000Y-113709843D01*
X129503000Y-113709843D01*
X129577689Y-113702487D01*
X129649508Y-113680701D01*
X129715696Y-113645322D01*
X129773711Y-113597711D01*
X129821322Y-113539696D01*
X129856701Y-113473508D01*
X129878487Y-113401689D01*
X129885843Y-113327000D01*
X129885843Y-112673034D01*
X129911228Y-112800654D01*
X130007793Y-113033781D01*
X130147982Y-113243590D01*
X130326410Y-113422018D01*
X130512001Y-113546025D01*
X130512001Y-113920000D01*
X130508948Y-113951000D01*
X130521130Y-114074697D01*
X130557211Y-114193641D01*
X130615804Y-114303260D01*
X130674897Y-114375265D01*
X130674900Y-114375268D01*
X130694658Y-114399343D01*
X130718733Y-114419101D01*
X131690899Y-115391268D01*
X131710657Y-115415343D01*
X131734732Y-115435101D01*
X131734734Y-115435103D01*
X131806739Y-115494196D01*
X131916358Y-115552789D01*
X132035302Y-115588870D01*
X132128002Y-115598000D01*
X132128009Y-115598000D01*
X132159000Y-115601052D01*
X132189990Y-115598000D01*
X145463010Y-115598000D01*
X145494000Y-115601052D01*
X145524990Y-115598000D01*
X145524998Y-115598000D01*
X145617698Y-115588870D01*
X145736642Y-115552789D01*
X145846261Y-115494196D01*
X145942343Y-115415343D01*
X145962105Y-115391263D01*
X148295368Y-113058000D01*
X148410157Y-113058000D01*
X148410157Y-113277000D01*
X148417513Y-113351689D01*
X148439299Y-113423508D01*
X148474678Y-113489696D01*
X148522289Y-113547711D01*
X148580304Y-113595322D01*
X148646492Y-113630701D01*
X148718311Y-113652487D01*
X148793000Y-113659843D01*
X149012001Y-113659843D01*
X149012001Y-113746000D01*
X149008948Y-113777000D01*
X149021130Y-113900697D01*
X149057211Y-114019641D01*
X149115804Y-114129260D01*
X149174897Y-114201265D01*
X149174900Y-114201268D01*
X149194658Y-114225343D01*
X149218733Y-114245101D01*
X150237899Y-115264268D01*
X150257657Y-115288343D01*
X150353739Y-115367196D01*
X150463358Y-115425789D01*
X150582302Y-115461870D01*
X150675002Y-115471000D01*
X150675011Y-115471000D01*
X150705999Y-115474052D01*
X150736987Y-115471000D01*
X163972010Y-115471000D01*
X164003000Y-115474052D01*
X164033990Y-115471000D01*
X164033998Y-115471000D01*
X164126698Y-115461870D01*
X164245642Y-115425789D01*
X164355261Y-115367196D01*
X164451343Y-115288343D01*
X164471105Y-115264263D01*
X165222269Y-114513100D01*
X165246343Y-114493343D01*
X165310036Y-114415734D01*
X165325196Y-114397261D01*
X165383789Y-114287642D01*
X165419870Y-114168698D01*
X165426912Y-114097196D01*
X165429000Y-114075998D01*
X165429000Y-114075991D01*
X165432052Y-114045000D01*
X165430493Y-114029170D01*
X165490113Y-113939942D01*
X165548987Y-113797809D01*
X165579000Y-113646922D01*
X165579000Y-113493078D01*
X165548987Y-113342191D01*
X165490113Y-113200058D01*
X165404642Y-113072141D01*
X165295859Y-112963358D01*
X165167942Y-112877887D01*
X165025809Y-112819013D01*
X164874922Y-112789000D01*
X164721078Y-112789000D01*
X164570191Y-112819013D01*
X164428058Y-112877887D01*
X164300141Y-112963358D01*
X164191358Y-113072141D01*
X164105887Y-113200058D01*
X164047013Y-113342191D01*
X164017000Y-113493078D01*
X164017000Y-113646922D01*
X164047013Y-113797809D01*
X164078004Y-113872627D01*
X163741632Y-114209000D01*
X150967369Y-114209000D01*
X150418211Y-113659843D01*
X150493000Y-113659843D01*
X150567689Y-113652487D01*
X150639508Y-113630701D01*
X150705696Y-113595322D01*
X150763711Y-113547711D01*
X150811322Y-113489696D01*
X150846701Y-113423508D01*
X150868487Y-113351689D01*
X150875843Y-113277000D01*
X150875843Y-111577000D01*
X150868487Y-111502311D01*
X150846701Y-111430492D01*
X150811322Y-111364304D01*
X150763711Y-111306289D01*
X150705696Y-111258678D01*
X150639508Y-111223299D01*
X150567689Y-111201513D01*
X150493000Y-111194157D01*
X148793000Y-111194157D01*
X148718311Y-111201513D01*
X148646492Y-111223299D01*
X148580304Y-111258678D01*
X148522289Y-111306289D01*
X148474678Y-111364304D01*
X148439299Y-111430492D01*
X148417513Y-111502311D01*
X148410157Y-111577000D01*
X148410157Y-111796000D01*
X148064987Y-111796000D01*
X148033999Y-111792948D01*
X148003011Y-111796000D01*
X148003002Y-111796000D01*
X147910302Y-111805130D01*
X147791358Y-111841211D01*
X147681739Y-111899804D01*
X147585657Y-111978657D01*
X147565897Y-112002735D01*
X145232632Y-114336000D01*
X132420369Y-114336000D01*
X131774000Y-113689632D01*
X131774000Y-113546024D01*
X131959590Y-113422018D01*
X132138018Y-113243590D01*
X132278207Y-113033781D01*
X132374772Y-112800654D01*
X132424000Y-112553167D01*
X132424000Y-112300833D01*
X132380454Y-112081914D01*
X132935368Y-111527000D01*
X133543157Y-111527000D01*
X133543157Y-113327000D01*
X133550513Y-113401689D01*
X133572299Y-113473508D01*
X133607678Y-113539696D01*
X133655289Y-113597711D01*
X133713304Y-113645322D01*
X133779492Y-113680701D01*
X133851311Y-113702487D01*
X133926000Y-113709843D01*
X135726000Y-113709843D01*
X135800689Y-113702487D01*
X135872508Y-113680701D01*
X135938696Y-113645322D01*
X135996711Y-113597711D01*
X136044322Y-113539696D01*
X136079701Y-113473508D01*
X136101487Y-113401689D01*
X136108843Y-113327000D01*
X136108843Y-112673034D01*
X136134228Y-112800654D01*
X136230793Y-113033781D01*
X136370982Y-113243590D01*
X136549410Y-113422018D01*
X136759219Y-113562207D01*
X136992346Y-113658772D01*
X137239833Y-113708000D01*
X137492167Y-113708000D01*
X137739654Y-113658772D01*
X137972781Y-113562207D01*
X138182590Y-113422018D01*
X138361018Y-113243590D01*
X138501207Y-113033781D01*
X138597772Y-112800654D01*
X138647000Y-112553167D01*
X138647000Y-112300833D01*
X138597772Y-112053346D01*
X138501207Y-111820219D01*
X138361018Y-111610410D01*
X138277608Y-111527000D01*
X139766157Y-111527000D01*
X139766157Y-113327000D01*
X139773513Y-113401689D01*
X139795299Y-113473508D01*
X139830678Y-113539696D01*
X139878289Y-113597711D01*
X139936304Y-113645322D01*
X140002492Y-113680701D01*
X140074311Y-113702487D01*
X140149000Y-113709843D01*
X141949000Y-113709843D01*
X142023689Y-113702487D01*
X142095508Y-113680701D01*
X142161696Y-113645322D01*
X142219711Y-113597711D01*
X142267322Y-113539696D01*
X142302701Y-113473508D01*
X142324487Y-113401689D01*
X142331843Y-113327000D01*
X142331843Y-112673034D01*
X142357228Y-112800654D01*
X142453793Y-113033781D01*
X142593982Y-113243590D01*
X142772410Y-113422018D01*
X142982219Y-113562207D01*
X143215346Y-113658772D01*
X143462833Y-113708000D01*
X143715167Y-113708000D01*
X143962654Y-113658772D01*
X144195781Y-113562207D01*
X144405590Y-113422018D01*
X144584018Y-113243590D01*
X144724207Y-113033781D01*
X144820772Y-112800654D01*
X144870000Y-112553167D01*
X144870000Y-112300833D01*
X144820772Y-112053346D01*
X144724207Y-111820219D01*
X144584018Y-111610410D01*
X144405590Y-111431982D01*
X144195781Y-111291793D01*
X143962654Y-111195228D01*
X143715167Y-111146000D01*
X143462833Y-111146000D01*
X143215346Y-111195228D01*
X142982219Y-111291793D01*
X142772410Y-111431982D01*
X142593982Y-111610410D01*
X142453793Y-111820219D01*
X142357228Y-112053346D01*
X142331843Y-112180966D01*
X142331843Y-111527000D01*
X142324487Y-111452311D01*
X142302701Y-111380492D01*
X142267322Y-111314304D01*
X142219711Y-111256289D01*
X142161696Y-111208678D01*
X142095508Y-111173299D01*
X142023689Y-111151513D01*
X141949000Y-111144157D01*
X141710000Y-111144157D01*
X141710000Y-110068354D01*
X141728895Y-110062622D01*
X141836144Y-110005296D01*
X141930149Y-109928149D01*
X142007296Y-109834144D01*
X142064622Y-109726895D01*
X142079000Y-109679497D01*
X142093378Y-109726895D01*
X142150704Y-109834144D01*
X142227851Y-109928149D01*
X142321856Y-110005296D01*
X142429105Y-110062622D01*
X142545477Y-110097923D01*
X142666500Y-110109843D01*
X143241500Y-110109843D01*
X143362523Y-110097923D01*
X143478895Y-110062622D01*
X143586144Y-110005296D01*
X143680149Y-109928149D01*
X143757296Y-109834144D01*
X143814622Y-109726895D01*
X143849923Y-109610523D01*
X143861843Y-109489500D01*
X143861843Y-109014500D01*
X143849923Y-108893477D01*
X143814622Y-108777105D01*
X143757296Y-108669856D01*
X143680149Y-108575851D01*
X143586144Y-108498704D01*
X143478895Y-108441378D01*
X143362523Y-108406077D01*
X143241500Y-108394157D01*
X142666500Y-108394157D01*
X142545477Y-108406077D01*
X142429105Y-108441378D01*
X142321856Y-108498704D01*
X142227851Y-108575851D01*
X142150704Y-108669856D01*
X142093378Y-108777105D01*
X142079000Y-108824503D01*
X142064622Y-108777105D01*
X142007296Y-108669856D01*
X141930149Y-108575851D01*
X141836144Y-108498704D01*
X141728895Y-108441378D01*
X141612523Y-108406077D01*
X141491500Y-108394157D01*
X140916500Y-108394157D01*
X140795477Y-108406077D01*
X140679105Y-108441378D01*
X140571856Y-108498704D01*
X140477851Y-108575851D01*
X140400704Y-108669856D01*
X140343378Y-108777105D01*
X140308077Y-108893477D01*
X140296157Y-109014500D01*
X140296157Y-109489500D01*
X140308077Y-109610523D01*
X140343378Y-109726895D01*
X140400704Y-109834144D01*
X140477851Y-109928149D01*
X140571856Y-110005296D01*
X140679105Y-110062622D01*
X140698000Y-110068354D01*
X140698001Y-111144157D01*
X140149000Y-111144157D01*
X140074311Y-111151513D01*
X140002492Y-111173299D01*
X139936304Y-111208678D01*
X139878289Y-111256289D01*
X139830678Y-111314304D01*
X139795299Y-111380492D01*
X139773513Y-111452311D01*
X139766157Y-111527000D01*
X138277608Y-111527000D01*
X138182590Y-111431982D01*
X137972781Y-111291793D01*
X137739654Y-111195228D01*
X137492167Y-111146000D01*
X137239833Y-111146000D01*
X136992346Y-111195228D01*
X136759219Y-111291793D01*
X136549410Y-111431982D01*
X136370982Y-111610410D01*
X136230793Y-111820219D01*
X136134228Y-112053346D01*
X136108843Y-112180966D01*
X136108843Y-111527000D01*
X136101487Y-111452311D01*
X136079701Y-111380492D01*
X136044322Y-111314304D01*
X135996711Y-111256289D01*
X135938696Y-111208678D01*
X135872508Y-111173299D01*
X135800689Y-111151513D01*
X135726000Y-111144157D01*
X135473000Y-111144157D01*
X135473000Y-110068354D01*
X135491895Y-110062622D01*
X135599144Y-110005296D01*
X135693149Y-109928149D01*
X135770296Y-109834144D01*
X135827622Y-109726895D01*
X135842000Y-109679497D01*
X135856378Y-109726895D01*
X135913704Y-109834144D01*
X135990851Y-109928149D01*
X136084856Y-110005296D01*
X136192105Y-110062622D01*
X136308477Y-110097923D01*
X136429500Y-110109843D01*
X137004500Y-110109843D01*
X137125523Y-110097923D01*
X137241895Y-110062622D01*
X137349144Y-110005296D01*
X137443149Y-109928149D01*
X137520296Y-109834144D01*
X137577622Y-109726895D01*
X137612923Y-109610523D01*
X137624843Y-109489500D01*
X137624843Y-109014500D01*
X137612923Y-108893477D01*
X137577622Y-108777105D01*
X137520296Y-108669856D01*
X137443149Y-108575851D01*
X137349144Y-108498704D01*
X137241895Y-108441378D01*
X137125523Y-108406077D01*
X137004500Y-108394157D01*
X136429500Y-108394157D01*
X136308477Y-108406077D01*
X136192105Y-108441378D01*
X136084856Y-108498704D01*
X135990851Y-108575851D01*
X135913704Y-108669856D01*
X135856378Y-108777105D01*
X135842000Y-108824503D01*
X135827622Y-108777105D01*
X135770296Y-108669856D01*
X135693149Y-108575851D01*
X135599144Y-108498704D01*
X135491895Y-108441378D01*
X135375523Y-108406077D01*
X135254500Y-108394157D01*
X134679500Y-108394157D01*
X134558477Y-108406077D01*
X134442105Y-108441378D01*
X134334856Y-108498704D01*
X134240851Y-108575851D01*
X134163704Y-108669856D01*
X134106378Y-108777105D01*
X134071077Y-108893477D01*
X134059157Y-109014500D01*
X134059157Y-109489500D01*
X134071077Y-109610523D01*
X134106378Y-109726895D01*
X134163704Y-109834144D01*
X134240851Y-109928149D01*
X134334856Y-110005296D01*
X134442105Y-110062622D01*
X134461000Y-110068354D01*
X134461001Y-111144157D01*
X133926000Y-111144157D01*
X133851311Y-111151513D01*
X133779492Y-111173299D01*
X133713304Y-111208678D01*
X133655289Y-111256289D01*
X133607678Y-111314304D01*
X133572299Y-111380492D01*
X133550513Y-111452311D01*
X133543157Y-111527000D01*
X132935368Y-111527000D01*
X133218269Y-111244100D01*
X133242343Y-111224343D01*
X133266238Y-111195228D01*
X133321196Y-111128261D01*
X133379789Y-111018642D01*
X133415870Y-110899698D01*
X133428053Y-110776000D01*
X133425000Y-110745002D01*
X133425000Y-109005368D01*
X137409268Y-105021101D01*
X137433343Y-105001343D01*
X137454340Y-104975759D01*
X137512196Y-104905261D01*
X137570789Y-104795642D01*
X137580330Y-104764189D01*
X137606870Y-104676698D01*
X137616000Y-104583998D01*
X137616000Y-104583989D01*
X137619052Y-104553001D01*
X137616000Y-104522013D01*
X137616000Y-102474405D01*
X137677113Y-102382942D01*
X137735987Y-102240809D01*
X137766000Y-102089922D01*
X137766000Y-101936078D01*
X137735987Y-101785191D01*
X137677113Y-101643058D01*
X137591642Y-101515141D01*
X137482859Y-101406358D01*
X137354942Y-101320887D01*
X137212809Y-101262013D01*
X137061922Y-101232000D01*
X136908078Y-101232000D01*
X136757191Y-101262013D01*
X136615058Y-101320887D01*
X136487141Y-101406358D01*
X136378358Y-101515141D01*
X136292887Y-101643058D01*
X136234013Y-101785191D01*
X136204000Y-101936078D01*
X136204000Y-102089922D01*
X136234013Y-102240809D01*
X136292887Y-102382942D01*
X136354000Y-102474405D01*
X136354001Y-104291630D01*
X132369733Y-108275899D01*
X132345658Y-108295657D01*
X132325900Y-108319732D01*
X132325897Y-108319735D01*
X132266804Y-108391740D01*
X132208211Y-108501359D01*
X132172130Y-108620303D01*
X132159948Y-108744000D01*
X132163001Y-108775000D01*
X132163000Y-110514631D01*
X131488086Y-111189546D01*
X131269167Y-111146000D01*
X131016833Y-111146000D01*
X130769346Y-111195228D01*
X130536219Y-111291793D01*
X130326410Y-111431982D01*
X130147982Y-111610410D01*
X130007793Y-111820219D01*
X129911228Y-112053346D01*
X129885843Y-112180966D01*
X129885843Y-111527000D01*
X129878487Y-111452311D01*
X129856701Y-111380492D01*
X129821322Y-111314304D01*
X129773711Y-111256289D01*
X129715696Y-111208678D01*
X129649508Y-111173299D01*
X129577689Y-111151513D01*
X129503000Y-111144157D01*
X129123000Y-111144157D01*
X129123000Y-110068354D01*
X129141895Y-110062622D01*
X129249144Y-110005296D01*
X129264151Y-109992980D01*
X129311463Y-110081494D01*
X129390815Y-110178185D01*
X129487506Y-110257537D01*
X129597820Y-110316502D01*
X129717518Y-110352812D01*
X129842000Y-110365072D01*
X130081250Y-110362000D01*
X130240000Y-110203250D01*
X130240000Y-109379000D01*
X130494000Y-109379000D01*
X130494000Y-110203250D01*
X130652750Y-110362000D01*
X130892000Y-110365072D01*
X131016482Y-110352812D01*
X131136180Y-110316502D01*
X131246494Y-110257537D01*
X131343185Y-110178185D01*
X131422537Y-110081494D01*
X131481502Y-109971180D01*
X131517812Y-109851482D01*
X131530072Y-109727000D01*
X131527000Y-109537750D01*
X131368250Y-109379000D01*
X130494000Y-109379000D01*
X130240000Y-109379000D01*
X130220000Y-109379000D01*
X130220000Y-109125000D01*
X130240000Y-109125000D01*
X130240000Y-108300750D01*
X130494000Y-108300750D01*
X130494000Y-109125000D01*
X131368250Y-109125000D01*
X131527000Y-108966250D01*
X131530072Y-108777000D01*
X131517812Y-108652518D01*
X131481502Y-108532820D01*
X131422537Y-108422506D01*
X131343185Y-108325815D01*
X131246494Y-108246463D01*
X131136180Y-108187498D01*
X131016482Y-108151188D01*
X130892000Y-108138928D01*
X130652750Y-108142000D01*
X130494000Y-108300750D01*
X130240000Y-108300750D01*
X130081250Y-108142000D01*
X129842000Y-108138928D01*
X129717518Y-108151188D01*
X129597820Y-108187498D01*
X129487506Y-108246463D01*
X129390815Y-108325815D01*
X129311463Y-108422506D01*
X129264151Y-108511020D01*
X129249144Y-108498704D01*
X129141895Y-108441378D01*
X129025523Y-108406077D01*
X128904500Y-108394157D01*
X128329500Y-108394157D01*
X128208477Y-108406077D01*
X128092105Y-108441378D01*
X127984856Y-108498704D01*
X127890851Y-108575851D01*
X127813704Y-108669856D01*
X127756378Y-108777105D01*
X127721077Y-108893477D01*
X127709157Y-109014500D01*
X127709157Y-109489500D01*
X127721077Y-109610523D01*
X127756378Y-109726895D01*
X127813704Y-109834144D01*
X127890851Y-109928149D01*
X127984856Y-110005296D01*
X128092105Y-110062622D01*
X128111000Y-110068354D01*
X128111001Y-111144157D01*
X127703000Y-111144157D01*
X127628311Y-111151513D01*
X127556492Y-111173299D01*
X127547500Y-111178105D01*
X127547000Y-111061750D01*
X127388250Y-110903000D01*
X124539000Y-110903000D01*
X124285000Y-110903000D01*
X121435750Y-110903000D01*
X121277000Y-111061750D01*
X121273928Y-111776000D01*
X120915000Y-111776000D01*
X120915000Y-109776000D01*
X121273928Y-109776000D01*
X121277000Y-110490250D01*
X121435750Y-110649000D01*
X124285000Y-110649000D01*
X124285000Y-109299750D01*
X124539000Y-109299750D01*
X124539000Y-110649000D01*
X127388250Y-110649000D01*
X127547000Y-110490250D01*
X127550072Y-109776000D01*
X127537812Y-109651518D01*
X127501502Y-109531820D01*
X127442537Y-109421506D01*
X127363185Y-109324815D01*
X127266494Y-109245463D01*
X127156180Y-109186498D01*
X127036482Y-109150188D01*
X126912000Y-109137928D01*
X124697750Y-109141000D01*
X124539000Y-109299750D01*
X124285000Y-109299750D01*
X124126250Y-109141000D01*
X121912000Y-109137928D01*
X121787518Y-109150188D01*
X121667820Y-109186498D01*
X121557506Y-109245463D01*
X121460815Y-109324815D01*
X121381463Y-109421506D01*
X121322498Y-109531820D01*
X121286188Y-109651518D01*
X121273928Y-109776000D01*
X120915000Y-109776000D01*
X120915000Y-103426000D01*
X121529157Y-103426000D01*
X121529157Y-105426000D01*
X121536513Y-105500689D01*
X121558299Y-105572508D01*
X121593678Y-105638696D01*
X121641289Y-105696711D01*
X121699304Y-105744322D01*
X121765492Y-105779701D01*
X121837311Y-105801487D01*
X121912000Y-105808843D01*
X126912000Y-105808843D01*
X126986689Y-105801487D01*
X127058508Y-105779701D01*
X127124696Y-105744322D01*
X127182711Y-105696711D01*
X127210500Y-105662850D01*
X127210500Y-105796422D01*
X127240513Y-105947309D01*
X127299387Y-106089442D01*
X127360500Y-106180905D01*
X127360500Y-106760131D01*
X127294843Y-106825788D01*
X127294843Y-106601000D01*
X127287487Y-106526311D01*
X127265701Y-106454492D01*
X127230322Y-106388304D01*
X127182711Y-106330289D01*
X127124696Y-106282678D01*
X127058508Y-106247299D01*
X126986689Y-106225513D01*
X126912000Y-106218157D01*
X121912000Y-106218157D01*
X121837311Y-106225513D01*
X121765492Y-106247299D01*
X121699304Y-106282678D01*
X121641289Y-106330289D01*
X121593678Y-106388304D01*
X121558299Y-106454492D01*
X121536513Y-106526311D01*
X121529157Y-106601000D01*
X121529157Y-108601000D01*
X121536513Y-108675689D01*
X121558299Y-108747508D01*
X121593678Y-108813696D01*
X121641289Y-108871711D01*
X121699304Y-108919322D01*
X121765492Y-108954701D01*
X121837311Y-108976487D01*
X121912000Y-108983843D01*
X126912000Y-108983843D01*
X126986689Y-108976487D01*
X127058508Y-108954701D01*
X127124696Y-108919322D01*
X127182711Y-108871711D01*
X127230322Y-108813696D01*
X127265701Y-108747508D01*
X127287487Y-108675689D01*
X127294843Y-108601000D01*
X127294843Y-108232000D01*
X127381010Y-108232000D01*
X127412000Y-108235052D01*
X127442990Y-108232000D01*
X127442998Y-108232000D01*
X127535698Y-108222870D01*
X127654642Y-108186789D01*
X127764261Y-108128196D01*
X127860343Y-108049343D01*
X127880105Y-108025263D01*
X128415769Y-107489600D01*
X128439843Y-107469843D01*
X128459705Y-107445642D01*
X128518696Y-107373761D01*
X128577289Y-107264142D01*
X128613370Y-107145198D01*
X128618467Y-107093447D01*
X128622500Y-107052498D01*
X128622500Y-107052491D01*
X128625552Y-107021500D01*
X128622500Y-106990510D01*
X128622500Y-106180905D01*
X128683613Y-106089442D01*
X128742487Y-105947309D01*
X128772500Y-105796422D01*
X128772500Y-105642578D01*
X128742487Y-105491691D01*
X128683613Y-105349558D01*
X128598142Y-105221641D01*
X128489359Y-105112858D01*
X128378546Y-105038816D01*
X128467642Y-105011789D01*
X128577261Y-104953196D01*
X128582470Y-104948921D01*
X128705309Y-104924487D01*
X128847442Y-104865613D01*
X128975359Y-104780142D01*
X129084142Y-104671359D01*
X129169613Y-104543442D01*
X129228487Y-104401309D01*
X129258500Y-104250422D01*
X129258500Y-104096578D01*
X129228487Y-103945691D01*
X129169613Y-103803558D01*
X129084142Y-103675641D01*
X128975359Y-103566858D01*
X128847442Y-103481387D01*
X128705309Y-103422513D01*
X128554422Y-103392500D01*
X128400578Y-103392500D01*
X128249691Y-103422513D01*
X128107558Y-103481387D01*
X127979641Y-103566858D01*
X127870858Y-103675641D01*
X127791105Y-103795000D01*
X127294843Y-103795000D01*
X127294843Y-103426000D01*
X127287487Y-103351311D01*
X127265701Y-103279492D01*
X127230322Y-103213304D01*
X127182711Y-103155289D01*
X127124696Y-103107678D01*
X127058508Y-103072299D01*
X126986689Y-103050513D01*
X126912000Y-103043157D01*
X121912000Y-103043157D01*
X121837311Y-103050513D01*
X121765492Y-103072299D01*
X121699304Y-103107678D01*
X121641289Y-103155289D01*
X121593678Y-103213304D01*
X121558299Y-103279492D01*
X121536513Y-103351311D01*
X121529157Y-103426000D01*
X120915000Y-103426000D01*
X120915000Y-100251000D01*
X121529157Y-100251000D01*
X121529157Y-102251000D01*
X121536513Y-102325689D01*
X121558299Y-102397508D01*
X121593678Y-102463696D01*
X121641289Y-102521711D01*
X121699304Y-102569322D01*
X121765492Y-102604701D01*
X121837311Y-102626487D01*
X121912000Y-102633843D01*
X126912000Y-102633843D01*
X126986689Y-102626487D01*
X127058508Y-102604701D01*
X127124696Y-102569322D01*
X127182711Y-102521711D01*
X127230322Y-102463696D01*
X127265701Y-102397508D01*
X127287487Y-102325689D01*
X127294843Y-102251000D01*
X127294843Y-101862417D01*
X127379327Y-101836789D01*
X127488946Y-101778196D01*
X127585028Y-101699343D01*
X127604790Y-101675263D01*
X128011268Y-101268786D01*
X128035343Y-101249028D01*
X128087480Y-101185500D01*
X128114196Y-101152946D01*
X128172789Y-101043327D01*
X128208870Y-100924383D01*
X128221053Y-100800685D01*
X128218000Y-100769687D01*
X128218000Y-100696405D01*
X128279113Y-100604942D01*
X128337987Y-100462809D01*
X128368000Y-100311922D01*
X128368000Y-100158078D01*
X128337987Y-100007191D01*
X128279113Y-99865058D01*
X128193642Y-99737141D01*
X128183501Y-99727000D01*
X130380553Y-99727000D01*
X130383000Y-99751847D01*
X130383001Y-100972144D01*
X130380553Y-100997000D01*
X130390322Y-101096192D01*
X130419255Y-101191574D01*
X130419256Y-101191575D01*
X130466242Y-101279479D01*
X130529474Y-101356527D01*
X130548779Y-101372370D01*
X131275628Y-102099220D01*
X131291473Y-102118527D01*
X131368521Y-102181759D01*
X131449368Y-102224973D01*
X131456425Y-102228745D01*
X131551807Y-102257678D01*
X131651000Y-102267448D01*
X131675854Y-102265000D01*
X132703499Y-102265000D01*
X132804141Y-102365642D01*
X132932058Y-102451113D01*
X133074191Y-102509987D01*
X133225078Y-102540000D01*
X133378922Y-102540000D01*
X133529809Y-102509987D01*
X133671942Y-102451113D01*
X133799859Y-102365642D01*
X133908642Y-102256859D01*
X133994113Y-102128942D01*
X134052987Y-101986809D01*
X134083000Y-101835922D01*
X134083000Y-101682078D01*
X134052987Y-101531191D01*
X133994113Y-101389058D01*
X133908642Y-101261141D01*
X133799859Y-101152358D01*
X133671942Y-101066887D01*
X133529809Y-101008013D01*
X133464388Y-100995000D01*
X140135154Y-100995000D01*
X140160000Y-100997447D01*
X140184846Y-100995000D01*
X140184854Y-100995000D01*
X140259193Y-100987678D01*
X140354575Y-100958745D01*
X140442479Y-100911759D01*
X140519527Y-100848527D01*
X140535376Y-100829215D01*
X141237592Y-100127000D01*
X141379922Y-100127000D01*
X141530809Y-100096987D01*
X141672942Y-100038113D01*
X141800859Y-99952642D01*
X141909642Y-99843859D01*
X141995113Y-99715942D01*
X142053987Y-99573809D01*
X142084000Y-99422922D01*
X142084000Y-99269078D01*
X142053987Y-99118191D01*
X141995113Y-98976058D01*
X141909642Y-98848141D01*
X141800859Y-98739358D01*
X141672942Y-98653887D01*
X141530809Y-98595013D01*
X141379922Y-98565000D01*
X141226078Y-98565000D01*
X141075191Y-98595013D01*
X140933058Y-98653887D01*
X140805141Y-98739358D01*
X140696358Y-98848141D01*
X140610887Y-98976058D01*
X140552013Y-99118191D01*
X140522000Y-99269078D01*
X140522000Y-99411408D01*
X139950409Y-99983000D01*
X132503501Y-99983000D01*
X132402859Y-99882358D01*
X132274942Y-99796887D01*
X132132809Y-99738013D01*
X131981922Y-99708000D01*
X131828078Y-99708000D01*
X131677191Y-99738013D01*
X131535058Y-99796887D01*
X131533992Y-99797599D01*
X132114592Y-99217000D01*
X138799499Y-99217000D01*
X138900141Y-99317642D01*
X139028058Y-99403113D01*
X139170191Y-99461987D01*
X139321078Y-99492000D01*
X139474922Y-99492000D01*
X139625809Y-99461987D01*
X139767942Y-99403113D01*
X139895859Y-99317642D01*
X140004642Y-99208859D01*
X140090113Y-99080942D01*
X140148987Y-98938809D01*
X140179000Y-98787922D01*
X140179000Y-98634078D01*
X140148987Y-98483191D01*
X140090113Y-98341058D01*
X140004642Y-98213141D01*
X139895859Y-98104358D01*
X139767942Y-98018887D01*
X139625809Y-97960013D01*
X139474922Y-97930000D01*
X139321078Y-97930000D01*
X139170191Y-97960013D01*
X139028058Y-98018887D01*
X138900141Y-98104358D01*
X138799499Y-98205000D01*
X131929846Y-98205000D01*
X131905000Y-98202553D01*
X131880154Y-98205000D01*
X131880146Y-98205000D01*
X131805807Y-98212322D01*
X131710425Y-98241255D01*
X131622521Y-98288241D01*
X131545473Y-98351473D01*
X131529630Y-98370778D01*
X130548785Y-99351624D01*
X130529473Y-99367473D01*
X130466241Y-99444521D01*
X130419255Y-99532426D01*
X130390322Y-99627808D01*
X130383000Y-99702147D01*
X130383000Y-99702154D01*
X130380553Y-99727000D01*
X128183501Y-99727000D01*
X128084859Y-99628358D01*
X127956942Y-99542887D01*
X127814809Y-99484013D01*
X127663922Y-99454000D01*
X127510078Y-99454000D01*
X127359191Y-99484013D01*
X127217058Y-99542887D01*
X127089141Y-99628358D01*
X126980358Y-99737141D01*
X126894887Y-99865058D01*
X126893603Y-99868157D01*
X121912000Y-99868157D01*
X121837311Y-99875513D01*
X121765492Y-99897299D01*
X121699304Y-99932678D01*
X121641289Y-99980289D01*
X121593678Y-100038304D01*
X121558299Y-100104492D01*
X121536513Y-100176311D01*
X121529157Y-100251000D01*
X120915000Y-100251000D01*
X120915000Y-96557000D01*
X178053000Y-96557000D01*
X178053000Y-100234824D01*
G37*
X178053000Y-100234824D02*
X174744000Y-100234824D01*
X174669311Y-100242180D01*
X174597492Y-100263966D01*
X174531304Y-100299345D01*
X174473289Y-100346956D01*
X174425678Y-100404971D01*
X174390299Y-100471159D01*
X174368513Y-100542978D01*
X174361157Y-100617667D01*
X174361157Y-102464333D01*
X174368513Y-102539022D01*
X174390299Y-102610841D01*
X174425678Y-102677029D01*
X174473289Y-102735044D01*
X174531304Y-102782655D01*
X174597492Y-102818034D01*
X174669311Y-102839820D01*
X174744000Y-102847176D01*
X178053000Y-102847176D01*
X178053000Y-103004824D01*
X174744000Y-103004824D01*
X174669311Y-103012180D01*
X174597492Y-103033966D01*
X174531304Y-103069345D01*
X174473289Y-103116956D01*
X174425678Y-103174971D01*
X174390299Y-103241159D01*
X174368513Y-103312978D01*
X174361157Y-103387667D01*
X174361157Y-103805000D01*
X172893592Y-103805000D01*
X169643000Y-100554409D01*
X169643000Y-100412078D01*
X169612987Y-100261191D01*
X169554113Y-100119058D01*
X169468642Y-99991141D01*
X169359859Y-99882358D01*
X169231942Y-99796887D01*
X169089809Y-99738013D01*
X168938922Y-99708000D01*
X168785078Y-99708000D01*
X168634191Y-99738013D01*
X168492058Y-99796887D01*
X168364141Y-99882358D01*
X168255358Y-99991141D01*
X168169887Y-100119058D01*
X168111013Y-100261191D01*
X168081000Y-100412078D01*
X168081000Y-100565922D01*
X168111013Y-100716809D01*
X168169887Y-100858942D01*
X168255358Y-100986859D01*
X168364141Y-101095642D01*
X168492058Y-101181113D01*
X168634191Y-101239987D01*
X168785078Y-101270000D01*
X168927409Y-101270000D01*
X172308628Y-104651220D01*
X172324473Y-104670527D01*
X172401521Y-104733759D01*
X172473025Y-104771979D01*
X172489425Y-104780745D01*
X172584806Y-104809678D01*
X172594694Y-104810652D01*
X172659146Y-104817000D01*
X172659153Y-104817000D01*
X172683999Y-104819447D01*
X172708845Y-104817000D01*
X174361157Y-104817000D01*
X174361157Y-105234333D01*
X174368513Y-105309022D01*
X174390299Y-105380841D01*
X174425678Y-105447029D01*
X174473289Y-105505044D01*
X174531304Y-105552655D01*
X174597492Y-105588034D01*
X174669311Y-105609820D01*
X174744000Y-105617176D01*
X178053000Y-105617176D01*
X178053000Y-105774824D01*
X174744000Y-105774824D01*
X174669311Y-105782180D01*
X174597492Y-105803966D01*
X174531304Y-105839345D01*
X174473289Y-105886956D01*
X174425678Y-105944971D01*
X174390299Y-106011159D01*
X174368513Y-106082978D01*
X174361157Y-106157667D01*
X174361157Y-106288565D01*
X173291711Y-105219120D01*
X173275862Y-105199808D01*
X173198814Y-105136576D01*
X173110910Y-105089590D01*
X173015528Y-105060657D01*
X172941189Y-105053335D01*
X172941181Y-105053335D01*
X172916335Y-105050888D01*
X172891489Y-105053335D01*
X171728927Y-105053335D01*
X168500000Y-101824409D01*
X168500000Y-101682078D01*
X168469987Y-101531191D01*
X168411113Y-101389058D01*
X168325642Y-101261141D01*
X168216859Y-101152358D01*
X168088942Y-101066887D01*
X167946809Y-101008013D01*
X167795922Y-100978000D01*
X167642078Y-100978000D01*
X167491191Y-101008013D01*
X167349058Y-101066887D01*
X167221141Y-101152358D01*
X167112358Y-101261141D01*
X167026887Y-101389058D01*
X166968013Y-101531191D01*
X166938000Y-101682078D01*
X166938000Y-101835922D01*
X166968013Y-101986809D01*
X167026887Y-102128942D01*
X167112358Y-102256859D01*
X167221141Y-102365642D01*
X167349058Y-102451113D01*
X167491191Y-102509987D01*
X167642078Y-102540000D01*
X167784409Y-102540000D01*
X170307055Y-105062647D01*
X170303469Y-105063000D01*
X167174501Y-105063000D01*
X167073859Y-104962358D01*
X166945942Y-104876887D01*
X166803809Y-104818013D01*
X166652922Y-104788000D01*
X166499078Y-104788000D01*
X166348191Y-104818013D01*
X166206058Y-104876887D01*
X166078141Y-104962358D01*
X165969358Y-105071141D01*
X165939000Y-105116575D01*
X165939000Y-104897501D01*
X166039642Y-104796859D01*
X166125113Y-104668942D01*
X166183987Y-104526809D01*
X166214000Y-104375922D01*
X166214000Y-104222078D01*
X166183987Y-104071191D01*
X166125113Y-103929058D01*
X166039642Y-103801141D01*
X165930859Y-103692358D01*
X165802942Y-103606887D01*
X165660809Y-103548013D01*
X165509922Y-103518000D01*
X165356078Y-103518000D01*
X165205191Y-103548013D01*
X165063058Y-103606887D01*
X164935141Y-103692358D01*
X164826358Y-103801141D01*
X164740887Y-103929058D01*
X164682013Y-104071191D01*
X164652000Y-104222078D01*
X164652000Y-104375922D01*
X164682013Y-104526809D01*
X164740887Y-104668942D01*
X164826358Y-104796859D01*
X164927001Y-104897502D01*
X164927000Y-108407408D01*
X163191409Y-110143000D01*
X162844591Y-110143000D01*
X164249220Y-108738372D01*
X164268527Y-108722527D01*
X164331759Y-108645479D01*
X164378745Y-108557575D01*
X164407678Y-108462193D01*
X164415000Y-108387854D01*
X164415000Y-108387853D01*
X164417448Y-108363000D01*
X164415000Y-108338146D01*
X164415000Y-103627501D01*
X164515642Y-103526859D01*
X164601113Y-103398942D01*
X164659987Y-103256809D01*
X164690000Y-103105922D01*
X164690000Y-102952078D01*
X164659987Y-102801191D01*
X164601113Y-102659058D01*
X164515642Y-102531141D01*
X164406859Y-102422358D01*
X164364418Y-102394000D01*
X164406859Y-102365642D01*
X164515642Y-102256859D01*
X164601113Y-102128942D01*
X164659987Y-101986809D01*
X164690000Y-101835922D01*
X164690000Y-101682078D01*
X164659987Y-101531191D01*
X164601113Y-101389058D01*
X164515642Y-101261141D01*
X164406859Y-101152358D01*
X164278942Y-101066887D01*
X164136809Y-101008013D01*
X163985922Y-100978000D01*
X163832078Y-100978000D01*
X163681191Y-101008013D01*
X163539058Y-101066887D01*
X163411141Y-101152358D01*
X163310499Y-101253000D01*
X162105592Y-101253000D01*
X161081000Y-100228409D01*
X161081000Y-100123328D01*
X161099689Y-100121487D01*
X161171508Y-100099701D01*
X161237696Y-100064322D01*
X161295711Y-100016711D01*
X161343322Y-99958696D01*
X161378701Y-99892508D01*
X161400487Y-99820689D01*
X161407843Y-99746000D01*
X161407843Y-98946000D01*
X161400487Y-98871311D01*
X161378701Y-98799492D01*
X161343322Y-98733304D01*
X161295711Y-98675289D01*
X161237696Y-98627678D01*
X161171508Y-98592299D01*
X161099689Y-98570513D01*
X161025000Y-98563157D01*
X160125000Y-98563157D01*
X160050311Y-98570513D01*
X159978492Y-98592299D01*
X159912304Y-98627678D01*
X159854289Y-98675289D01*
X159806678Y-98733304D01*
X159771299Y-98799492D01*
X159749513Y-98871311D01*
X159742157Y-98946000D01*
X159742157Y-98984270D01*
X159739473Y-98986473D01*
X159723628Y-99005780D01*
X159250785Y-99478624D01*
X159231473Y-99494473D01*
X159185907Y-99549995D01*
X159171508Y-99542299D01*
X159099689Y-99520513D01*
X159025000Y-99513157D01*
X158125000Y-99513157D01*
X158050311Y-99520513D01*
X157978492Y-99542299D01*
X157912304Y-99577678D01*
X157854289Y-99625289D01*
X157806678Y-99683304D01*
X157771299Y-99749492D01*
X157754863Y-99803675D01*
X157680425Y-99826255D01*
X157592521Y-99873241D01*
X157515473Y-99936473D01*
X157499624Y-99955785D01*
X157345785Y-100109624D01*
X157326473Y-100125473D01*
X157292321Y-100167087D01*
X155948785Y-101510624D01*
X155929473Y-101526473D01*
X155866241Y-101603521D01*
X155819255Y-101691426D01*
X155790322Y-101786808D01*
X155783000Y-101861147D01*
X155783000Y-101861154D01*
X155780553Y-101886000D01*
X155783000Y-101910846D01*
X155783001Y-104039195D01*
X155755856Y-104053704D01*
X155661851Y-104130851D01*
X155584704Y-104224856D01*
X155527378Y-104332105D01*
X155513000Y-104379503D01*
X155498622Y-104332105D01*
X155441296Y-104224856D01*
X155364149Y-104130851D01*
X155270144Y-104053704D01*
X155162895Y-103996378D01*
X155046523Y-103961077D01*
X154925500Y-103949157D01*
X154350500Y-103949157D01*
X154229477Y-103961077D01*
X154113105Y-103996378D01*
X154005856Y-104053704D01*
X153911851Y-104130851D01*
X153834704Y-104224856D01*
X153777378Y-104332105D01*
X153742077Y-104448477D01*
X153730157Y-104569500D01*
X153730157Y-105044500D01*
X153742077Y-105165523D01*
X153777378Y-105281895D01*
X153826710Y-105374188D01*
X153736441Y-105464458D01*
X153679113Y-105326058D01*
X153593642Y-105198141D01*
X153493000Y-105097499D01*
X153493000Y-103681591D01*
X158014092Y-99160500D01*
X158050311Y-99171487D01*
X158125000Y-99178843D01*
X159025000Y-99178843D01*
X159099689Y-99171487D01*
X159171508Y-99149701D01*
X159237696Y-99114322D01*
X159295711Y-99066711D01*
X159343322Y-99008696D01*
X159378701Y-98942508D01*
X159400487Y-98870689D01*
X159407843Y-98796000D01*
X159407843Y-97996000D01*
X159400487Y-97921311D01*
X159378701Y-97849492D01*
X159343322Y-97783304D01*
X159295711Y-97725289D01*
X159237696Y-97677678D01*
X159171508Y-97642299D01*
X159099689Y-97620513D01*
X159025000Y-97613157D01*
X158125000Y-97613157D01*
X158050311Y-97620513D01*
X157978492Y-97642299D01*
X157912304Y-97677678D01*
X157854289Y-97725289D01*
X157806678Y-97783304D01*
X157771299Y-97849492D01*
X157749513Y-97921311D01*
X157742157Y-97996000D01*
X157742157Y-98004726D01*
X157703473Y-98036473D01*
X157687628Y-98055780D01*
X152646785Y-103096624D01*
X152627473Y-103112473D01*
X152564241Y-103189521D01*
X152517255Y-103277426D01*
X152488322Y-103372808D01*
X152481000Y-103447147D01*
X152481000Y-103447154D01*
X152478553Y-103472000D01*
X152481000Y-103496847D01*
X152481001Y-105097498D01*
X152380358Y-105198141D01*
X152294887Y-105326058D01*
X152236013Y-105468191D01*
X152206000Y-105619078D01*
X152206000Y-105772922D01*
X152236013Y-105923809D01*
X152294887Y-106065942D01*
X152380358Y-106193859D01*
X152489141Y-106302642D01*
X152617058Y-106388113D01*
X152755458Y-106445441D01*
X152359899Y-106841000D01*
X151934501Y-106841000D01*
X151833859Y-106740358D01*
X151705942Y-106654887D01*
X151563809Y-106596013D01*
X151412922Y-106566000D01*
X151270592Y-106566000D01*
X151011423Y-106306832D01*
X151065696Y-106277822D01*
X151123711Y-106230211D01*
X151171322Y-106172196D01*
X151206701Y-106106008D01*
X151228487Y-106034189D01*
X151235843Y-105959500D01*
X151235843Y-105559500D01*
X151228487Y-105484811D01*
X151215500Y-105442000D01*
X151228487Y-105399189D01*
X151235843Y-105324500D01*
X151235843Y-104924500D01*
X151228487Y-104849811D01*
X151215500Y-104807000D01*
X151228487Y-104764189D01*
X151235843Y-104689500D01*
X151235843Y-104289500D01*
X151228487Y-104214811D01*
X151215500Y-104172000D01*
X151228487Y-104129189D01*
X151235843Y-104054500D01*
X151235843Y-103926323D01*
X151296312Y-103878423D01*
X151377325Y-103783119D01*
X151438189Y-103673841D01*
X151476564Y-103554789D01*
X151488000Y-103451250D01*
X151329250Y-103292500D01*
X150972150Y-103292500D01*
X150927689Y-103279013D01*
X150853000Y-103271657D01*
X149653000Y-103271657D01*
X149578311Y-103279013D01*
X149533850Y-103292500D01*
X149176750Y-103292500D01*
X149057250Y-103412000D01*
X147616501Y-103412000D01*
X147515859Y-103311358D01*
X147387942Y-103225887D01*
X147297742Y-103188524D01*
X147388859Y-103127642D01*
X147426001Y-103090500D01*
X149120750Y-103090500D01*
X149176750Y-103146500D01*
X149533850Y-103146500D01*
X149578311Y-103159987D01*
X149653000Y-103167343D01*
X150853000Y-103167343D01*
X150927689Y-103159987D01*
X150972150Y-103146500D01*
X151329250Y-103146500D01*
X151488000Y-102987750D01*
X151476564Y-102884211D01*
X151438189Y-102765159D01*
X151377325Y-102655881D01*
X151296312Y-102560577D01*
X151235843Y-102512677D01*
X151235843Y-102384500D01*
X151228487Y-102309811D01*
X151215500Y-102267000D01*
X151228487Y-102224189D01*
X151235843Y-102149500D01*
X151235843Y-101749500D01*
X151228487Y-101674811D01*
X151215500Y-101632000D01*
X151228487Y-101589189D01*
X151235843Y-101514500D01*
X151235843Y-101114500D01*
X151228487Y-101039811D01*
X151215500Y-100997000D01*
X151228487Y-100954189D01*
X151235843Y-100879500D01*
X151235843Y-100479500D01*
X151228487Y-100404811D01*
X151215500Y-100362000D01*
X151228487Y-100319189D01*
X151235843Y-100244500D01*
X151235843Y-99844500D01*
X151228487Y-99769811D01*
X151206701Y-99697992D01*
X151171322Y-99631804D01*
X151123711Y-99573789D01*
X151065696Y-99526178D01*
X150999508Y-99490799D01*
X150927689Y-99469013D01*
X150853000Y-99461657D01*
X149653000Y-99461657D01*
X149578311Y-99469013D01*
X149558574Y-99475000D01*
X149513592Y-99475000D01*
X149320999Y-99282408D01*
X149320999Y-98754844D01*
X149323446Y-98729998D01*
X149320999Y-98705152D01*
X149320999Y-98705145D01*
X149313677Y-98630806D01*
X149284744Y-98535424D01*
X149237758Y-98447520D01*
X149196000Y-98396638D01*
X149196000Y-98253078D01*
X149165987Y-98102191D01*
X149154310Y-98074000D01*
X152523409Y-98074000D01*
X153370000Y-98920592D01*
X153370001Y-100017498D01*
X153269358Y-100118141D01*
X153183887Y-100246058D01*
X153125013Y-100388191D01*
X153095000Y-100539078D01*
X153095000Y-100692922D01*
X153125013Y-100843809D01*
X153183887Y-100985942D01*
X153269358Y-101113859D01*
X153378141Y-101222642D01*
X153506058Y-101308113D01*
X153648191Y-101366987D01*
X153799078Y-101397000D01*
X153952922Y-101397000D01*
X154103809Y-101366987D01*
X154245942Y-101308113D01*
X154373859Y-101222642D01*
X154482642Y-101113859D01*
X154568113Y-100985942D01*
X154626987Y-100843809D01*
X154657000Y-100692922D01*
X154657000Y-100539078D01*
X154626987Y-100388191D01*
X154568113Y-100246058D01*
X154482642Y-100118141D01*
X154382000Y-100017499D01*
X154382000Y-98735845D01*
X154384447Y-98710999D01*
X154382000Y-98686153D01*
X154382000Y-98686146D01*
X154374678Y-98611807D01*
X154368761Y-98592299D01*
X154345745Y-98516425D01*
X154327981Y-98483191D01*
X154298759Y-98428521D01*
X154235527Y-98351473D01*
X154216220Y-98335628D01*
X153108376Y-97227785D01*
X153092527Y-97208473D01*
X153015479Y-97145241D01*
X152927575Y-97098255D01*
X152832193Y-97069322D01*
X152757854Y-97062000D01*
X152757846Y-97062000D01*
X152733000Y-97059553D01*
X152708154Y-97062000D01*
X147169854Y-97062000D01*
X147145000Y-97059552D01*
X147120146Y-97062000D01*
X147045807Y-97069322D01*
X146950425Y-97098255D01*
X146862521Y-97145241D01*
X146785473Y-97208473D01*
X146769628Y-97227780D01*
X146042780Y-97954629D01*
X146023474Y-97970473D01*
X145960242Y-98047521D01*
X145946089Y-98074000D01*
X145913255Y-98135426D01*
X145884322Y-98230808D01*
X145874553Y-98330000D01*
X145877001Y-98354856D01*
X145877000Y-99313851D01*
X145877001Y-99313861D01*
X145877001Y-99535455D01*
X145865696Y-99526178D01*
X145799508Y-99490799D01*
X145727689Y-99469013D01*
X145653000Y-99461657D01*
X144453000Y-99461657D01*
X144378311Y-99469013D01*
X144306492Y-99490799D01*
X144240304Y-99526178D01*
X144225289Y-99538500D01*
X142661345Y-99538500D01*
X142636499Y-99536053D01*
X142611653Y-99538500D01*
X142611646Y-99538500D01*
X142547194Y-99544848D01*
X142537306Y-99545822D01*
X142518839Y-99551424D01*
X142441925Y-99574755D01*
X142354021Y-99621741D01*
X142276973Y-99684973D01*
X142261128Y-99704280D01*
X141343785Y-100621624D01*
X141324473Y-100637473D01*
X141261241Y-100714521D01*
X141214255Y-100802426D01*
X141185322Y-100897808D01*
X141178000Y-100972147D01*
X141178000Y-100972154D01*
X141175553Y-100997000D01*
X141178000Y-101021846D01*
X141178001Y-104716498D01*
X141077358Y-104817141D01*
X140991887Y-104945058D01*
X140933013Y-105087191D01*
X140903000Y-105238078D01*
X140903000Y-105391922D01*
X140933013Y-105542809D01*
X140991887Y-105684942D01*
X141077358Y-105812859D01*
X141186141Y-105921642D01*
X141314058Y-106007113D01*
X141456191Y-106065987D01*
X141607078Y-106096000D01*
X141760922Y-106096000D01*
X141911809Y-106065987D01*
X142053942Y-106007113D01*
X142181859Y-105921642D01*
X142290642Y-105812859D01*
X142376113Y-105684942D01*
X142434987Y-105542809D01*
X142465000Y-105391922D01*
X142465000Y-105238078D01*
X142434987Y-105087191D01*
X142376113Y-104945058D01*
X142290642Y-104817141D01*
X142190000Y-104716499D01*
X142190000Y-101206591D01*
X142846092Y-100550500D01*
X144070157Y-100550500D01*
X144070157Y-100879500D01*
X144077513Y-100954189D01*
X144090500Y-100997000D01*
X144077513Y-101039811D01*
X144070157Y-101114500D01*
X144070157Y-101514500D01*
X144077513Y-101589189D01*
X144090500Y-101632000D01*
X144077513Y-101674811D01*
X144070157Y-101749500D01*
X144070157Y-101877677D01*
X144009688Y-101925577D01*
X143928675Y-102020881D01*
X143867811Y-102130159D01*
X143829436Y-102249211D01*
X143818000Y-102352750D01*
X143976750Y-102511500D01*
X144333850Y-102511500D01*
X144378311Y-102524987D01*
X144453000Y-102532343D01*
X145200000Y-102532343D01*
X145200000Y-102636657D01*
X144453000Y-102636657D01*
X144378311Y-102644013D01*
X144333850Y-102657500D01*
X143976750Y-102657500D01*
X143818000Y-102816250D01*
X143829436Y-102919789D01*
X143867811Y-103038841D01*
X143928675Y-103148119D01*
X144009688Y-103243423D01*
X144070157Y-103291323D01*
X144070157Y-103366029D01*
X144008425Y-103384755D01*
X143920521Y-103431741D01*
X143843473Y-103494973D01*
X143827624Y-103514285D01*
X143629785Y-103712124D01*
X143610473Y-103727973D01*
X143547241Y-103805021D01*
X143500255Y-103892926D01*
X143471322Y-103988308D01*
X143464000Y-104062647D01*
X143464000Y-104062654D01*
X143461553Y-104087500D01*
X143464000Y-104112346D01*
X143464001Y-106036646D01*
X143461553Y-106061502D01*
X143471322Y-106160694D01*
X143500255Y-106256076D01*
X143517776Y-106288854D01*
X143547242Y-106343981D01*
X143610474Y-106421029D01*
X143629780Y-106436873D01*
X144118126Y-106925220D01*
X144133971Y-106944527D01*
X144211019Y-107007759D01*
X144298923Y-107054745D01*
X144394305Y-107083678D01*
X144468644Y-107091000D01*
X144468652Y-107091000D01*
X144493498Y-107093447D01*
X144518344Y-107091000D01*
X148066156Y-107091000D01*
X148091002Y-107093447D01*
X148115848Y-107091000D01*
X148115856Y-107091000D01*
X148190195Y-107083678D01*
X148285577Y-107054745D01*
X148373481Y-107007759D01*
X148450529Y-106944527D01*
X148466378Y-106925215D01*
X149296107Y-106095487D01*
X149299299Y-106106008D01*
X149334678Y-106172196D01*
X149382289Y-106230211D01*
X149440304Y-106277822D01*
X149506492Y-106313201D01*
X149578311Y-106334987D01*
X149653000Y-106342343D01*
X149752269Y-106342343D01*
X149754322Y-106363192D01*
X149783255Y-106458574D01*
X149797812Y-106485807D01*
X149830242Y-106546479D01*
X149893474Y-106623527D01*
X149912780Y-106639371D01*
X150555000Y-107281592D01*
X150555000Y-107423922D01*
X150585013Y-107574809D01*
X150643887Y-107716942D01*
X150729358Y-107844859D01*
X150838141Y-107953642D01*
X150966058Y-108039113D01*
X151108191Y-108097987D01*
X151259078Y-108128000D01*
X151412922Y-108128000D01*
X151563809Y-108097987D01*
X151705942Y-108039113D01*
X151833859Y-107953642D01*
X151934501Y-107853000D01*
X152544644Y-107853000D01*
X152569490Y-107855447D01*
X152594336Y-107853000D01*
X152594344Y-107853000D01*
X152668683Y-107845678D01*
X152764065Y-107816745D01*
X152851969Y-107769759D01*
X152929017Y-107706527D01*
X152944866Y-107687215D01*
X153750023Y-106882058D01*
X153756077Y-106943523D01*
X153791378Y-107059895D01*
X153848704Y-107167144D01*
X153925851Y-107261149D01*
X154019856Y-107338296D01*
X154127105Y-107395622D01*
X154243477Y-107430923D01*
X154364500Y-107442843D01*
X154939500Y-107442843D01*
X155060523Y-107430923D01*
X155176895Y-107395622D01*
X155284144Y-107338296D01*
X155378149Y-107261149D01*
X155455296Y-107167144D01*
X155512622Y-107059895D01*
X155527000Y-107012497D01*
X155541378Y-107059895D01*
X155598704Y-107167144D01*
X155675851Y-107261149D01*
X155769856Y-107338296D01*
X155877105Y-107395622D01*
X155993477Y-107430923D01*
X156114500Y-107442843D01*
X156689500Y-107442843D01*
X156810523Y-107430923D01*
X156926895Y-107395622D01*
X157034144Y-107338296D01*
X157128149Y-107261149D01*
X157205296Y-107167144D01*
X157245996Y-107091000D01*
X157280154Y-107091000D01*
X157305000Y-107093447D01*
X157329846Y-107091000D01*
X157329854Y-107091000D01*
X157404193Y-107083678D01*
X157499575Y-107054745D01*
X157587479Y-107007759D01*
X157664527Y-106944527D01*
X157680376Y-106925215D01*
X158606157Y-105999435D01*
X158606157Y-106505500D01*
X158618077Y-106626523D01*
X158653378Y-106742895D01*
X158710704Y-106850144D01*
X158787851Y-106944149D01*
X158881856Y-107021296D01*
X158989105Y-107078622D01*
X159036503Y-107093000D01*
X158989105Y-107107378D01*
X158881856Y-107164704D01*
X158787851Y-107241851D01*
X158710704Y-107335856D01*
X158653378Y-107443105D01*
X158618077Y-107559477D01*
X158606157Y-107680500D01*
X158606157Y-108255500D01*
X158618077Y-108376523D01*
X158653378Y-108492895D01*
X158710704Y-108600144D01*
X158787851Y-108694149D01*
X158881856Y-108771296D01*
X158989105Y-108828622D01*
X159105477Y-108863923D01*
X159226500Y-108875843D01*
X159701500Y-108875843D01*
X159822523Y-108863923D01*
X159938895Y-108828622D01*
X160046144Y-108771296D01*
X160103681Y-108724077D01*
X160125191Y-108732987D01*
X160276078Y-108763000D01*
X160429922Y-108763000D01*
X160580809Y-108732987D01*
X160613656Y-108719381D01*
X160659856Y-108757296D01*
X160767105Y-108814622D01*
X160883477Y-108849923D01*
X161004500Y-108861843D01*
X161479500Y-108861843D01*
X161600523Y-108849923D01*
X161716895Y-108814622D01*
X161824144Y-108757296D01*
X161918149Y-108680149D01*
X161995296Y-108586144D01*
X162052622Y-108478895D01*
X162087923Y-108362523D01*
X162099843Y-108241500D01*
X162099843Y-107666500D01*
X162087923Y-107545477D01*
X162052622Y-107429105D01*
X161995296Y-107321856D01*
X161918149Y-107227851D01*
X161824144Y-107150704D01*
X161716895Y-107093378D01*
X161669497Y-107079000D01*
X161716895Y-107064622D01*
X161824144Y-107007296D01*
X161918149Y-106930149D01*
X161995296Y-106836144D01*
X162052622Y-106728895D01*
X162087923Y-106612523D01*
X162099843Y-106491500D01*
X162099843Y-105916500D01*
X162087923Y-105795477D01*
X162052622Y-105679105D01*
X161995296Y-105571856D01*
X161918149Y-105477851D01*
X161824144Y-105400704D01*
X161748000Y-105360004D01*
X161748000Y-105212854D01*
X161750448Y-105188000D01*
X161740678Y-105088807D01*
X161711745Y-104993425D01*
X161695139Y-104962358D01*
X161664759Y-104905521D01*
X161601527Y-104828473D01*
X161582220Y-104812628D01*
X161113000Y-104343409D01*
X161113000Y-103804752D01*
X161115689Y-103804487D01*
X161187508Y-103782701D01*
X161253696Y-103747322D01*
X161311711Y-103699711D01*
X161359322Y-103641696D01*
X161394701Y-103575508D01*
X161406989Y-103535000D01*
X163310499Y-103535000D01*
X163403001Y-103627502D01*
X163403000Y-108153408D01*
X162048409Y-109508000D01*
X154281845Y-109508000D01*
X154256999Y-109505553D01*
X154232153Y-109508000D01*
X154232146Y-109508000D01*
X154157807Y-109515322D01*
X154062425Y-109544255D01*
X153974521Y-109591241D01*
X153897473Y-109654473D01*
X153881629Y-109673779D01*
X152350256Y-111205153D01*
X152304243Y-111196000D01*
X152061757Y-111196000D01*
X151823931Y-111243307D01*
X151599903Y-111336102D01*
X151398283Y-111470820D01*
X151226820Y-111642283D01*
X151092102Y-111843903D01*
X150999307Y-112067931D01*
X150952000Y-112305757D01*
X150952000Y-112548243D01*
X150999307Y-112786069D01*
X151092102Y-113010097D01*
X151226820Y-113211717D01*
X151398283Y-113383180D01*
X151599903Y-113517898D01*
X151823931Y-113610693D01*
X152061757Y-113658000D01*
X152304243Y-113658000D01*
X152542069Y-113610693D01*
X152766097Y-113517898D01*
X152967717Y-113383180D01*
X153139180Y-113211717D01*
X153273898Y-113010097D01*
X153366693Y-112786069D01*
X153414000Y-112548243D01*
X153414000Y-112305757D01*
X153366693Y-112067931D01*
X153273898Y-111843903D01*
X153221343Y-111765249D01*
X154466592Y-110520000D01*
X155575408Y-110520000D01*
X154890256Y-111205153D01*
X154844243Y-111196000D01*
X154601757Y-111196000D01*
X154363931Y-111243307D01*
X154139903Y-111336102D01*
X153938283Y-111470820D01*
X153766820Y-111642283D01*
X153632102Y-111843903D01*
X153539307Y-112067931D01*
X153492000Y-112305757D01*
X153492000Y-112548243D01*
X153539307Y-112786069D01*
X153632102Y-113010097D01*
X153766820Y-113211717D01*
X153938283Y-113383180D01*
X154139903Y-113517898D01*
X154363931Y-113610693D01*
X154601757Y-113658000D01*
X154844243Y-113658000D01*
X155082069Y-113610693D01*
X155306097Y-113517898D01*
X155507717Y-113383180D01*
X155679180Y-113211717D01*
X155813898Y-113010097D01*
X155861228Y-112895832D01*
X155918843Y-113058252D01*
X156067822Y-113308355D01*
X156262731Y-113524588D01*
X156496080Y-113698641D01*
X156758901Y-113823825D01*
X156906110Y-113868476D01*
X157136000Y-113747155D01*
X157136000Y-112554000D01*
X157390000Y-112554000D01*
X157390000Y-113747155D01*
X157619890Y-113868476D01*
X157767099Y-113823825D01*
X158029920Y-113698641D01*
X158263269Y-113524588D01*
X158458178Y-113308355D01*
X158607157Y-113058252D01*
X158704481Y-112783891D01*
X158583814Y-112554000D01*
X157390000Y-112554000D01*
X157136000Y-112554000D01*
X157116000Y-112554000D01*
X157116000Y-112300000D01*
X157136000Y-112300000D01*
X157136000Y-112280000D01*
X157390000Y-112280000D01*
X157390000Y-112300000D01*
X158583814Y-112300000D01*
X158704481Y-112070109D01*
X158607157Y-111795748D01*
X158458178Y-111545645D01*
X158263269Y-111329412D01*
X158029920Y-111155359D01*
X158029166Y-111155000D01*
X163376154Y-111155000D01*
X163401000Y-111157447D01*
X163425846Y-111155000D01*
X163425854Y-111155000D01*
X163500193Y-111147678D01*
X163595575Y-111118745D01*
X163683479Y-111071759D01*
X163760527Y-111008527D01*
X163776376Y-110989215D01*
X165773222Y-108992370D01*
X165792527Y-108976527D01*
X165855759Y-108899479D01*
X165902745Y-108811575D01*
X165931678Y-108716193D01*
X165939000Y-108641854D01*
X165939000Y-108641846D01*
X165941447Y-108617000D01*
X165939000Y-108592154D01*
X165939000Y-107291425D01*
X165969358Y-107336859D01*
X166078141Y-107445642D01*
X166206058Y-107531113D01*
X166348191Y-107589987D01*
X166499078Y-107620000D01*
X166652922Y-107620000D01*
X166803809Y-107589987D01*
X166945942Y-107531113D01*
X167073859Y-107445642D01*
X167174501Y-107345000D01*
X170176409Y-107345000D01*
X171891000Y-109059592D01*
X171891000Y-109201922D01*
X171921013Y-109352809D01*
X171979887Y-109494942D01*
X172065358Y-109622859D01*
X172174141Y-109731642D01*
X172302058Y-109817113D01*
X172444191Y-109875987D01*
X172595078Y-109906000D01*
X172748922Y-109906000D01*
X172899809Y-109875987D01*
X173041942Y-109817113D01*
X173169859Y-109731642D01*
X173278642Y-109622859D01*
X173364113Y-109494942D01*
X173422987Y-109352809D01*
X173448147Y-109226319D01*
X173572058Y-109309113D01*
X173714191Y-109367987D01*
X173865078Y-109398000D01*
X174018922Y-109398000D01*
X174169809Y-109367987D01*
X174311942Y-109309113D01*
X174361157Y-109276229D01*
X174361157Y-110774333D01*
X174368513Y-110849022D01*
X174390299Y-110920841D01*
X174425678Y-110987029D01*
X174473289Y-111045044D01*
X174531304Y-111092655D01*
X174597492Y-111128034D01*
X174669311Y-111149820D01*
X174744000Y-111157176D01*
X178053001Y-111157176D01*
X178053001Y-115695000D01*
X120915000Y-115695000D01*
X120915000Y-111776000D01*
X121273928Y-111776000D01*
X121286188Y-111900482D01*
X121322498Y-112020180D01*
X121381463Y-112130494D01*
X121460815Y-112227185D01*
X121557506Y-112306537D01*
X121667820Y-112365502D01*
X121787518Y-112401812D01*
X121912000Y-112414072D01*
X124126250Y-112411000D01*
X124285000Y-112252250D01*
X124285000Y-110903000D01*
X124539000Y-110903000D01*
X124539000Y-112252250D01*
X124697750Y-112411000D01*
X126912000Y-112414072D01*
X127036482Y-112401812D01*
X127156180Y-112365502D01*
X127266494Y-112306537D01*
X127320157Y-112262497D01*
X127320157Y-113327000D01*
X127327513Y-113401689D01*
X127349299Y-113473508D01*
X127384678Y-113539696D01*
X127432289Y-113597711D01*
X127490304Y-113645322D01*
X127556492Y-113680701D01*
X127628311Y-113702487D01*
X127703000Y-113709843D01*
X129503000Y-113709843D01*
X129577689Y-113702487D01*
X129649508Y-113680701D01*
X129715696Y-113645322D01*
X129773711Y-113597711D01*
X129821322Y-113539696D01*
X129856701Y-113473508D01*
X129878487Y-113401689D01*
X129885843Y-113327000D01*
X129885843Y-112673034D01*
X129911228Y-112800654D01*
X130007793Y-113033781D01*
X130147982Y-113243590D01*
X130326410Y-113422018D01*
X130512001Y-113546025D01*
X130512001Y-113920000D01*
X130508948Y-113951000D01*
X130521130Y-114074697D01*
X130557211Y-114193641D01*
X130615804Y-114303260D01*
X130674897Y-114375265D01*
X130674900Y-114375268D01*
X130694658Y-114399343D01*
X130718733Y-114419101D01*
X131690899Y-115391268D01*
X131710657Y-115415343D01*
X131734732Y-115435101D01*
X131734734Y-115435103D01*
X131806739Y-115494196D01*
X131916358Y-115552789D01*
X132035302Y-115588870D01*
X132128002Y-115598000D01*
X132128009Y-115598000D01*
X132159000Y-115601052D01*
X132189990Y-115598000D01*
X145463010Y-115598000D01*
X145494000Y-115601052D01*
X145524990Y-115598000D01*
X145524998Y-115598000D01*
X145617698Y-115588870D01*
X145736642Y-115552789D01*
X145846261Y-115494196D01*
X145942343Y-115415343D01*
X145962105Y-115391263D01*
X148295368Y-113058000D01*
X148410157Y-113058000D01*
X148410157Y-113277000D01*
X148417513Y-113351689D01*
X148439299Y-113423508D01*
X148474678Y-113489696D01*
X148522289Y-113547711D01*
X148580304Y-113595322D01*
X148646492Y-113630701D01*
X148718311Y-113652487D01*
X148793000Y-113659843D01*
X149012001Y-113659843D01*
X149012001Y-113746000D01*
X149008948Y-113777000D01*
X149021130Y-113900697D01*
X149057211Y-114019641D01*
X149115804Y-114129260D01*
X149174897Y-114201265D01*
X149174900Y-114201268D01*
X149194658Y-114225343D01*
X149218733Y-114245101D01*
X150237899Y-115264268D01*
X150257657Y-115288343D01*
X150353739Y-115367196D01*
X150463358Y-115425789D01*
X150582302Y-115461870D01*
X150675002Y-115471000D01*
X150675011Y-115471000D01*
X150705999Y-115474052D01*
X150736987Y-115471000D01*
X163972010Y-115471000D01*
X164003000Y-115474052D01*
X164033990Y-115471000D01*
X164033998Y-115471000D01*
X164126698Y-115461870D01*
X164245642Y-115425789D01*
X164355261Y-115367196D01*
X164451343Y-115288343D01*
X164471105Y-115264263D01*
X165222269Y-114513100D01*
X165246343Y-114493343D01*
X165310036Y-114415734D01*
X165325196Y-114397261D01*
X165383789Y-114287642D01*
X165419870Y-114168698D01*
X165426912Y-114097196D01*
X165429000Y-114075998D01*
X165429000Y-114075991D01*
X165432052Y-114045000D01*
X165430493Y-114029170D01*
X165490113Y-113939942D01*
X165548987Y-113797809D01*
X165579000Y-113646922D01*
X165579000Y-113493078D01*
X165548987Y-113342191D01*
X165490113Y-113200058D01*
X165404642Y-113072141D01*
X165295859Y-112963358D01*
X165167942Y-112877887D01*
X165025809Y-112819013D01*
X164874922Y-112789000D01*
X164721078Y-112789000D01*
X164570191Y-112819013D01*
X164428058Y-112877887D01*
X164300141Y-112963358D01*
X164191358Y-113072141D01*
X164105887Y-113200058D01*
X164047013Y-113342191D01*
X164017000Y-113493078D01*
X164017000Y-113646922D01*
X164047013Y-113797809D01*
X164078004Y-113872627D01*
X163741632Y-114209000D01*
X150967369Y-114209000D01*
X150418211Y-113659843D01*
X150493000Y-113659843D01*
X150567689Y-113652487D01*
X150639508Y-113630701D01*
X150705696Y-113595322D01*
X150763711Y-113547711D01*
X150811322Y-113489696D01*
X150846701Y-113423508D01*
X150868487Y-113351689D01*
X150875843Y-113277000D01*
X150875843Y-111577000D01*
X150868487Y-111502311D01*
X150846701Y-111430492D01*
X150811322Y-111364304D01*
X150763711Y-111306289D01*
X150705696Y-111258678D01*
X150639508Y-111223299D01*
X150567689Y-111201513D01*
X150493000Y-111194157D01*
X148793000Y-111194157D01*
X148718311Y-111201513D01*
X148646492Y-111223299D01*
X148580304Y-111258678D01*
X148522289Y-111306289D01*
X148474678Y-111364304D01*
X148439299Y-111430492D01*
X148417513Y-111502311D01*
X148410157Y-111577000D01*
X148410157Y-111796000D01*
X148064987Y-111796000D01*
X148033999Y-111792948D01*
X148003011Y-111796000D01*
X148003002Y-111796000D01*
X147910302Y-111805130D01*
X147791358Y-111841211D01*
X147681739Y-111899804D01*
X147585657Y-111978657D01*
X147565897Y-112002735D01*
X145232632Y-114336000D01*
X132420369Y-114336000D01*
X131774000Y-113689632D01*
X131774000Y-113546024D01*
X131959590Y-113422018D01*
X132138018Y-113243590D01*
X132278207Y-113033781D01*
X132374772Y-112800654D01*
X132424000Y-112553167D01*
X132424000Y-112300833D01*
X132380454Y-112081914D01*
X132935368Y-111527000D01*
X133543157Y-111527000D01*
X133543157Y-113327000D01*
X133550513Y-113401689D01*
X133572299Y-113473508D01*
X133607678Y-113539696D01*
X133655289Y-113597711D01*
X133713304Y-113645322D01*
X133779492Y-113680701D01*
X133851311Y-113702487D01*
X133926000Y-113709843D01*
X135726000Y-113709843D01*
X135800689Y-113702487D01*
X135872508Y-113680701D01*
X135938696Y-113645322D01*
X135996711Y-113597711D01*
X136044322Y-113539696D01*
X136079701Y-113473508D01*
X136101487Y-113401689D01*
X136108843Y-113327000D01*
X136108843Y-112673034D01*
X136134228Y-112800654D01*
X136230793Y-113033781D01*
X136370982Y-113243590D01*
X136549410Y-113422018D01*
X136759219Y-113562207D01*
X136992346Y-113658772D01*
X137239833Y-113708000D01*
X137492167Y-113708000D01*
X137739654Y-113658772D01*
X137972781Y-113562207D01*
X138182590Y-113422018D01*
X138361018Y-113243590D01*
X138501207Y-113033781D01*
X138597772Y-112800654D01*
X138647000Y-112553167D01*
X138647000Y-112300833D01*
X138597772Y-112053346D01*
X138501207Y-111820219D01*
X138361018Y-111610410D01*
X138277608Y-111527000D01*
X139766157Y-111527000D01*
X139766157Y-113327000D01*
X139773513Y-113401689D01*
X139795299Y-113473508D01*
X139830678Y-113539696D01*
X139878289Y-113597711D01*
X139936304Y-113645322D01*
X140002492Y-113680701D01*
X140074311Y-113702487D01*
X140149000Y-113709843D01*
X141949000Y-113709843D01*
X142023689Y-113702487D01*
X142095508Y-113680701D01*
X142161696Y-113645322D01*
X142219711Y-113597711D01*
X142267322Y-113539696D01*
X142302701Y-113473508D01*
X142324487Y-113401689D01*
X142331843Y-113327000D01*
X142331843Y-112673034D01*
X142357228Y-112800654D01*
X142453793Y-113033781D01*
X142593982Y-113243590D01*
X142772410Y-113422018D01*
X142982219Y-113562207D01*
X143215346Y-113658772D01*
X143462833Y-113708000D01*
X143715167Y-113708000D01*
X143962654Y-113658772D01*
X144195781Y-113562207D01*
X144405590Y-113422018D01*
X144584018Y-113243590D01*
X144724207Y-113033781D01*
X144820772Y-112800654D01*
X144870000Y-112553167D01*
X144870000Y-112300833D01*
X144820772Y-112053346D01*
X144724207Y-111820219D01*
X144584018Y-111610410D01*
X144405590Y-111431982D01*
X144195781Y-111291793D01*
X143962654Y-111195228D01*
X143715167Y-111146000D01*
X143462833Y-111146000D01*
X143215346Y-111195228D01*
X142982219Y-111291793D01*
X142772410Y-111431982D01*
X142593982Y-111610410D01*
X142453793Y-111820219D01*
X142357228Y-112053346D01*
X142331843Y-112180966D01*
X142331843Y-111527000D01*
X142324487Y-111452311D01*
X142302701Y-111380492D01*
X142267322Y-111314304D01*
X142219711Y-111256289D01*
X142161696Y-111208678D01*
X142095508Y-111173299D01*
X142023689Y-111151513D01*
X141949000Y-111144157D01*
X141710000Y-111144157D01*
X141710000Y-110068354D01*
X141728895Y-110062622D01*
X141836144Y-110005296D01*
X141930149Y-109928149D01*
X142007296Y-109834144D01*
X142064622Y-109726895D01*
X142079000Y-109679497D01*
X142093378Y-109726895D01*
X142150704Y-109834144D01*
X142227851Y-109928149D01*
X142321856Y-110005296D01*
X142429105Y-110062622D01*
X142545477Y-110097923D01*
X142666500Y-110109843D01*
X143241500Y-110109843D01*
X143362523Y-110097923D01*
X143478895Y-110062622D01*
X143586144Y-110005296D01*
X143680149Y-109928149D01*
X143757296Y-109834144D01*
X143814622Y-109726895D01*
X143849923Y-109610523D01*
X143861843Y-109489500D01*
X143861843Y-109014500D01*
X143849923Y-108893477D01*
X143814622Y-108777105D01*
X143757296Y-108669856D01*
X143680149Y-108575851D01*
X143586144Y-108498704D01*
X143478895Y-108441378D01*
X143362523Y-108406077D01*
X143241500Y-108394157D01*
X142666500Y-108394157D01*
X142545477Y-108406077D01*
X142429105Y-108441378D01*
X142321856Y-108498704D01*
X142227851Y-108575851D01*
X142150704Y-108669856D01*
X142093378Y-108777105D01*
X142079000Y-108824503D01*
X142064622Y-108777105D01*
X142007296Y-108669856D01*
X141930149Y-108575851D01*
X141836144Y-108498704D01*
X141728895Y-108441378D01*
X141612523Y-108406077D01*
X141491500Y-108394157D01*
X140916500Y-108394157D01*
X140795477Y-108406077D01*
X140679105Y-108441378D01*
X140571856Y-108498704D01*
X140477851Y-108575851D01*
X140400704Y-108669856D01*
X140343378Y-108777105D01*
X140308077Y-108893477D01*
X140296157Y-109014500D01*
X140296157Y-109489500D01*
X140308077Y-109610523D01*
X140343378Y-109726895D01*
X140400704Y-109834144D01*
X140477851Y-109928149D01*
X140571856Y-110005296D01*
X140679105Y-110062622D01*
X140698000Y-110068354D01*
X140698001Y-111144157D01*
X140149000Y-111144157D01*
X140074311Y-111151513D01*
X140002492Y-111173299D01*
X139936304Y-111208678D01*
X139878289Y-111256289D01*
X139830678Y-111314304D01*
X139795299Y-111380492D01*
X139773513Y-111452311D01*
X139766157Y-111527000D01*
X138277608Y-111527000D01*
X138182590Y-111431982D01*
X137972781Y-111291793D01*
X137739654Y-111195228D01*
X137492167Y-111146000D01*
X137239833Y-111146000D01*
X136992346Y-111195228D01*
X136759219Y-111291793D01*
X136549410Y-111431982D01*
X136370982Y-111610410D01*
X136230793Y-111820219D01*
X136134228Y-112053346D01*
X136108843Y-112180966D01*
X136108843Y-111527000D01*
X136101487Y-111452311D01*
X136079701Y-111380492D01*
X136044322Y-111314304D01*
X135996711Y-111256289D01*
X135938696Y-111208678D01*
X135872508Y-111173299D01*
X135800689Y-111151513D01*
X135726000Y-111144157D01*
X135473000Y-111144157D01*
X135473000Y-110068354D01*
X135491895Y-110062622D01*
X135599144Y-110005296D01*
X135693149Y-109928149D01*
X135770296Y-109834144D01*
X135827622Y-109726895D01*
X135842000Y-109679497D01*
X135856378Y-109726895D01*
X135913704Y-109834144D01*
X135990851Y-109928149D01*
X136084856Y-110005296D01*
X136192105Y-110062622D01*
X136308477Y-110097923D01*
X136429500Y-110109843D01*
X137004500Y-110109843D01*
X137125523Y-110097923D01*
X137241895Y-110062622D01*
X137349144Y-110005296D01*
X137443149Y-109928149D01*
X137520296Y-109834144D01*
X137577622Y-109726895D01*
X137612923Y-109610523D01*
X137624843Y-109489500D01*
X137624843Y-109014500D01*
X137612923Y-108893477D01*
X137577622Y-108777105D01*
X137520296Y-108669856D01*
X137443149Y-108575851D01*
X137349144Y-108498704D01*
X137241895Y-108441378D01*
X137125523Y-108406077D01*
X137004500Y-108394157D01*
X136429500Y-108394157D01*
X136308477Y-108406077D01*
X136192105Y-108441378D01*
X136084856Y-108498704D01*
X135990851Y-108575851D01*
X135913704Y-108669856D01*
X135856378Y-108777105D01*
X135842000Y-108824503D01*
X135827622Y-108777105D01*
X135770296Y-108669856D01*
X135693149Y-108575851D01*
X135599144Y-108498704D01*
X135491895Y-108441378D01*
X135375523Y-108406077D01*
X135254500Y-108394157D01*
X134679500Y-108394157D01*
X134558477Y-108406077D01*
X134442105Y-108441378D01*
X134334856Y-108498704D01*
X134240851Y-108575851D01*
X134163704Y-108669856D01*
X134106378Y-108777105D01*
X134071077Y-108893477D01*
X134059157Y-109014500D01*
X134059157Y-109489500D01*
X134071077Y-109610523D01*
X134106378Y-109726895D01*
X134163704Y-109834144D01*
X134240851Y-109928149D01*
X134334856Y-110005296D01*
X134442105Y-110062622D01*
X134461000Y-110068354D01*
X134461001Y-111144157D01*
X133926000Y-111144157D01*
X133851311Y-111151513D01*
X133779492Y-111173299D01*
X133713304Y-111208678D01*
X133655289Y-111256289D01*
X133607678Y-111314304D01*
X133572299Y-111380492D01*
X133550513Y-111452311D01*
X133543157Y-111527000D01*
X132935368Y-111527000D01*
X133218269Y-111244100D01*
X133242343Y-111224343D01*
X133266238Y-111195228D01*
X133321196Y-111128261D01*
X133379789Y-111018642D01*
X133415870Y-110899698D01*
X133428053Y-110776000D01*
X133425000Y-110745002D01*
X133425000Y-109005368D01*
X137409268Y-105021101D01*
X137433343Y-105001343D01*
X137454340Y-104975759D01*
X137512196Y-104905261D01*
X137570789Y-104795642D01*
X137580330Y-104764189D01*
X137606870Y-104676698D01*
X137616000Y-104583998D01*
X137616000Y-104583989D01*
X137619052Y-104553001D01*
X137616000Y-104522013D01*
X137616000Y-102474405D01*
X137677113Y-102382942D01*
X137735987Y-102240809D01*
X137766000Y-102089922D01*
X137766000Y-101936078D01*
X137735987Y-101785191D01*
X137677113Y-101643058D01*
X137591642Y-101515141D01*
X137482859Y-101406358D01*
X137354942Y-101320887D01*
X137212809Y-101262013D01*
X137061922Y-101232000D01*
X136908078Y-101232000D01*
X136757191Y-101262013D01*
X136615058Y-101320887D01*
X136487141Y-101406358D01*
X136378358Y-101515141D01*
X136292887Y-101643058D01*
X136234013Y-101785191D01*
X136204000Y-101936078D01*
X136204000Y-102089922D01*
X136234013Y-102240809D01*
X136292887Y-102382942D01*
X136354000Y-102474405D01*
X136354001Y-104291630D01*
X132369733Y-108275899D01*
X132345658Y-108295657D01*
X132325900Y-108319732D01*
X132325897Y-108319735D01*
X132266804Y-108391740D01*
X132208211Y-108501359D01*
X132172130Y-108620303D01*
X132159948Y-108744000D01*
X132163001Y-108775000D01*
X132163000Y-110514631D01*
X131488086Y-111189546D01*
X131269167Y-111146000D01*
X131016833Y-111146000D01*
X130769346Y-111195228D01*
X130536219Y-111291793D01*
X130326410Y-111431982D01*
X130147982Y-111610410D01*
X130007793Y-111820219D01*
X129911228Y-112053346D01*
X129885843Y-112180966D01*
X129885843Y-111527000D01*
X129878487Y-111452311D01*
X129856701Y-111380492D01*
X129821322Y-111314304D01*
X129773711Y-111256289D01*
X129715696Y-111208678D01*
X129649508Y-111173299D01*
X129577689Y-111151513D01*
X129503000Y-111144157D01*
X129123000Y-111144157D01*
X129123000Y-110068354D01*
X129141895Y-110062622D01*
X129249144Y-110005296D01*
X129264151Y-109992980D01*
X129311463Y-110081494D01*
X129390815Y-110178185D01*
X129487506Y-110257537D01*
X129597820Y-110316502D01*
X129717518Y-110352812D01*
X129842000Y-110365072D01*
X130081250Y-110362000D01*
X130240000Y-110203250D01*
X130240000Y-109379000D01*
X130494000Y-109379000D01*
X130494000Y-110203250D01*
X130652750Y-110362000D01*
X130892000Y-110365072D01*
X131016482Y-110352812D01*
X131136180Y-110316502D01*
X131246494Y-110257537D01*
X131343185Y-110178185D01*
X131422537Y-110081494D01*
X131481502Y-109971180D01*
X131517812Y-109851482D01*
X131530072Y-109727000D01*
X131527000Y-109537750D01*
X131368250Y-109379000D01*
X130494000Y-109379000D01*
X130240000Y-109379000D01*
X130220000Y-109379000D01*
X130220000Y-109125000D01*
X130240000Y-109125000D01*
X130240000Y-108300750D01*
X130494000Y-108300750D01*
X130494000Y-109125000D01*
X131368250Y-109125000D01*
X131527000Y-108966250D01*
X131530072Y-108777000D01*
X131517812Y-108652518D01*
X131481502Y-108532820D01*
X131422537Y-108422506D01*
X131343185Y-108325815D01*
X131246494Y-108246463D01*
X131136180Y-108187498D01*
X131016482Y-108151188D01*
X130892000Y-108138928D01*
X130652750Y-108142000D01*
X130494000Y-108300750D01*
X130240000Y-108300750D01*
X130081250Y-108142000D01*
X129842000Y-108138928D01*
X129717518Y-108151188D01*
X129597820Y-108187498D01*
X129487506Y-108246463D01*
X129390815Y-108325815D01*
X129311463Y-108422506D01*
X129264151Y-108511020D01*
X129249144Y-108498704D01*
X129141895Y-108441378D01*
X129025523Y-108406077D01*
X128904500Y-108394157D01*
X128329500Y-108394157D01*
X128208477Y-108406077D01*
X128092105Y-108441378D01*
X127984856Y-108498704D01*
X127890851Y-108575851D01*
X127813704Y-108669856D01*
X127756378Y-108777105D01*
X127721077Y-108893477D01*
X127709157Y-109014500D01*
X127709157Y-109489500D01*
X127721077Y-109610523D01*
X127756378Y-109726895D01*
X127813704Y-109834144D01*
X127890851Y-109928149D01*
X127984856Y-110005296D01*
X128092105Y-110062622D01*
X128111000Y-110068354D01*
X128111001Y-111144157D01*
X127703000Y-111144157D01*
X127628311Y-111151513D01*
X127556492Y-111173299D01*
X127547500Y-111178105D01*
X127547000Y-111061750D01*
X127388250Y-110903000D01*
X124539000Y-110903000D01*
X124285000Y-110903000D01*
X121435750Y-110903000D01*
X121277000Y-111061750D01*
X121273928Y-111776000D01*
X120915000Y-111776000D01*
X120915000Y-109776000D01*
X121273928Y-109776000D01*
X121277000Y-110490250D01*
X121435750Y-110649000D01*
X124285000Y-110649000D01*
X124285000Y-109299750D01*
X124539000Y-109299750D01*
X124539000Y-110649000D01*
X127388250Y-110649000D01*
X127547000Y-110490250D01*
X127550072Y-109776000D01*
X127537812Y-109651518D01*
X127501502Y-109531820D01*
X127442537Y-109421506D01*
X127363185Y-109324815D01*
X127266494Y-109245463D01*
X127156180Y-109186498D01*
X127036482Y-109150188D01*
X126912000Y-109137928D01*
X124697750Y-109141000D01*
X124539000Y-109299750D01*
X124285000Y-109299750D01*
X124126250Y-109141000D01*
X121912000Y-109137928D01*
X121787518Y-109150188D01*
X121667820Y-109186498D01*
X121557506Y-109245463D01*
X121460815Y-109324815D01*
X121381463Y-109421506D01*
X121322498Y-109531820D01*
X121286188Y-109651518D01*
X121273928Y-109776000D01*
X120915000Y-109776000D01*
X120915000Y-103426000D01*
X121529157Y-103426000D01*
X121529157Y-105426000D01*
X121536513Y-105500689D01*
X121558299Y-105572508D01*
X121593678Y-105638696D01*
X121641289Y-105696711D01*
X121699304Y-105744322D01*
X121765492Y-105779701D01*
X121837311Y-105801487D01*
X121912000Y-105808843D01*
X126912000Y-105808843D01*
X126986689Y-105801487D01*
X127058508Y-105779701D01*
X127124696Y-105744322D01*
X127182711Y-105696711D01*
X127210500Y-105662850D01*
X127210500Y-105796422D01*
X127240513Y-105947309D01*
X127299387Y-106089442D01*
X127360500Y-106180905D01*
X127360500Y-106760131D01*
X127294843Y-106825788D01*
X127294843Y-106601000D01*
X127287487Y-106526311D01*
X127265701Y-106454492D01*
X127230322Y-106388304D01*
X127182711Y-106330289D01*
X127124696Y-106282678D01*
X127058508Y-106247299D01*
X126986689Y-106225513D01*
X126912000Y-106218157D01*
X121912000Y-106218157D01*
X121837311Y-106225513D01*
X121765492Y-106247299D01*
X121699304Y-106282678D01*
X121641289Y-106330289D01*
X121593678Y-106388304D01*
X121558299Y-106454492D01*
X121536513Y-106526311D01*
X121529157Y-106601000D01*
X121529157Y-108601000D01*
X121536513Y-108675689D01*
X121558299Y-108747508D01*
X121593678Y-108813696D01*
X121641289Y-108871711D01*
X121699304Y-108919322D01*
X121765492Y-108954701D01*
X121837311Y-108976487D01*
X121912000Y-108983843D01*
X126912000Y-108983843D01*
X126986689Y-108976487D01*
X127058508Y-108954701D01*
X127124696Y-108919322D01*
X127182711Y-108871711D01*
X127230322Y-108813696D01*
X127265701Y-108747508D01*
X127287487Y-108675689D01*
X127294843Y-108601000D01*
X127294843Y-108232000D01*
X127381010Y-108232000D01*
X127412000Y-108235052D01*
X127442990Y-108232000D01*
X127442998Y-108232000D01*
X127535698Y-108222870D01*
X127654642Y-108186789D01*
X127764261Y-108128196D01*
X127860343Y-108049343D01*
X127880105Y-108025263D01*
X128415769Y-107489600D01*
X128439843Y-107469843D01*
X128459705Y-107445642D01*
X128518696Y-107373761D01*
X128577289Y-107264142D01*
X128613370Y-107145198D01*
X128618467Y-107093447D01*
X128622500Y-107052498D01*
X128622500Y-107052491D01*
X128625552Y-107021500D01*
X128622500Y-106990510D01*
X128622500Y-106180905D01*
X128683613Y-106089442D01*
X128742487Y-105947309D01*
X128772500Y-105796422D01*
X128772500Y-105642578D01*
X128742487Y-105491691D01*
X128683613Y-105349558D01*
X128598142Y-105221641D01*
X128489359Y-105112858D01*
X128378546Y-105038816D01*
X128467642Y-105011789D01*
X128577261Y-104953196D01*
X128582470Y-104948921D01*
X128705309Y-104924487D01*
X128847442Y-104865613D01*
X128975359Y-104780142D01*
X129084142Y-104671359D01*
X129169613Y-104543442D01*
X129228487Y-104401309D01*
X129258500Y-104250422D01*
X129258500Y-104096578D01*
X129228487Y-103945691D01*
X129169613Y-103803558D01*
X129084142Y-103675641D01*
X128975359Y-103566858D01*
X128847442Y-103481387D01*
X128705309Y-103422513D01*
X128554422Y-103392500D01*
X128400578Y-103392500D01*
X128249691Y-103422513D01*
X128107558Y-103481387D01*
X127979641Y-103566858D01*
X127870858Y-103675641D01*
X127791105Y-103795000D01*
X127294843Y-103795000D01*
X127294843Y-103426000D01*
X127287487Y-103351311D01*
X127265701Y-103279492D01*
X127230322Y-103213304D01*
X127182711Y-103155289D01*
X127124696Y-103107678D01*
X127058508Y-103072299D01*
X126986689Y-103050513D01*
X126912000Y-103043157D01*
X121912000Y-103043157D01*
X121837311Y-103050513D01*
X121765492Y-103072299D01*
X121699304Y-103107678D01*
X121641289Y-103155289D01*
X121593678Y-103213304D01*
X121558299Y-103279492D01*
X121536513Y-103351311D01*
X121529157Y-103426000D01*
X120915000Y-103426000D01*
X120915000Y-100251000D01*
X121529157Y-100251000D01*
X121529157Y-102251000D01*
X121536513Y-102325689D01*
X121558299Y-102397508D01*
X121593678Y-102463696D01*
X121641289Y-102521711D01*
X121699304Y-102569322D01*
X121765492Y-102604701D01*
X121837311Y-102626487D01*
X121912000Y-102633843D01*
X126912000Y-102633843D01*
X126986689Y-102626487D01*
X127058508Y-102604701D01*
X127124696Y-102569322D01*
X127182711Y-102521711D01*
X127230322Y-102463696D01*
X127265701Y-102397508D01*
X127287487Y-102325689D01*
X127294843Y-102251000D01*
X127294843Y-101862417D01*
X127379327Y-101836789D01*
X127488946Y-101778196D01*
X127585028Y-101699343D01*
X127604790Y-101675263D01*
X128011268Y-101268786D01*
X128035343Y-101249028D01*
X128087480Y-101185500D01*
X128114196Y-101152946D01*
X128172789Y-101043327D01*
X128208870Y-100924383D01*
X128221053Y-100800685D01*
X128218000Y-100769687D01*
X128218000Y-100696405D01*
X128279113Y-100604942D01*
X128337987Y-100462809D01*
X128368000Y-100311922D01*
X128368000Y-100158078D01*
X128337987Y-100007191D01*
X128279113Y-99865058D01*
X128193642Y-99737141D01*
X128183501Y-99727000D01*
X130380553Y-99727000D01*
X130383000Y-99751847D01*
X130383001Y-100972144D01*
X130380553Y-100997000D01*
X130390322Y-101096192D01*
X130419255Y-101191574D01*
X130419256Y-101191575D01*
X130466242Y-101279479D01*
X130529474Y-101356527D01*
X130548779Y-101372370D01*
X131275628Y-102099220D01*
X131291473Y-102118527D01*
X131368521Y-102181759D01*
X131449368Y-102224973D01*
X131456425Y-102228745D01*
X131551807Y-102257678D01*
X131651000Y-102267448D01*
X131675854Y-102265000D01*
X132703499Y-102265000D01*
X132804141Y-102365642D01*
X132932058Y-102451113D01*
X133074191Y-102509987D01*
X133225078Y-102540000D01*
X133378922Y-102540000D01*
X133529809Y-102509987D01*
X133671942Y-102451113D01*
X133799859Y-102365642D01*
X133908642Y-102256859D01*
X133994113Y-102128942D01*
X134052987Y-101986809D01*
X134083000Y-101835922D01*
X134083000Y-101682078D01*
X134052987Y-101531191D01*
X133994113Y-101389058D01*
X133908642Y-101261141D01*
X133799859Y-101152358D01*
X133671942Y-101066887D01*
X133529809Y-101008013D01*
X133464388Y-100995000D01*
X140135154Y-100995000D01*
X140160000Y-100997447D01*
X140184846Y-100995000D01*
X140184854Y-100995000D01*
X140259193Y-100987678D01*
X140354575Y-100958745D01*
X140442479Y-100911759D01*
X140519527Y-100848527D01*
X140535376Y-100829215D01*
X141237592Y-100127000D01*
X141379922Y-100127000D01*
X141530809Y-100096987D01*
X141672942Y-100038113D01*
X141800859Y-99952642D01*
X141909642Y-99843859D01*
X141995113Y-99715942D01*
X142053987Y-99573809D01*
X142084000Y-99422922D01*
X142084000Y-99269078D01*
X142053987Y-99118191D01*
X141995113Y-98976058D01*
X141909642Y-98848141D01*
X141800859Y-98739358D01*
X141672942Y-98653887D01*
X141530809Y-98595013D01*
X141379922Y-98565000D01*
X141226078Y-98565000D01*
X141075191Y-98595013D01*
X140933058Y-98653887D01*
X140805141Y-98739358D01*
X140696358Y-98848141D01*
X140610887Y-98976058D01*
X140552013Y-99118191D01*
X140522000Y-99269078D01*
X140522000Y-99411408D01*
X139950409Y-99983000D01*
X132503501Y-99983000D01*
X132402859Y-99882358D01*
X132274942Y-99796887D01*
X132132809Y-99738013D01*
X131981922Y-99708000D01*
X131828078Y-99708000D01*
X131677191Y-99738013D01*
X131535058Y-99796887D01*
X131533992Y-99797599D01*
X132114592Y-99217000D01*
X138799499Y-99217000D01*
X138900141Y-99317642D01*
X139028058Y-99403113D01*
X139170191Y-99461987D01*
X139321078Y-99492000D01*
X139474922Y-99492000D01*
X139625809Y-99461987D01*
X139767942Y-99403113D01*
X139895859Y-99317642D01*
X140004642Y-99208859D01*
X140090113Y-99080942D01*
X140148987Y-98938809D01*
X140179000Y-98787922D01*
X140179000Y-98634078D01*
X140148987Y-98483191D01*
X140090113Y-98341058D01*
X140004642Y-98213141D01*
X139895859Y-98104358D01*
X139767942Y-98018887D01*
X139625809Y-97960013D01*
X139474922Y-97930000D01*
X139321078Y-97930000D01*
X139170191Y-97960013D01*
X139028058Y-98018887D01*
X138900141Y-98104358D01*
X138799499Y-98205000D01*
X131929846Y-98205000D01*
X131905000Y-98202553D01*
X131880154Y-98205000D01*
X131880146Y-98205000D01*
X131805807Y-98212322D01*
X131710425Y-98241255D01*
X131622521Y-98288241D01*
X131545473Y-98351473D01*
X131529630Y-98370778D01*
X130548785Y-99351624D01*
X130529473Y-99367473D01*
X130466241Y-99444521D01*
X130419255Y-99532426D01*
X130390322Y-99627808D01*
X130383000Y-99702147D01*
X130383000Y-99702154D01*
X130380553Y-99727000D01*
X128183501Y-99727000D01*
X128084859Y-99628358D01*
X127956942Y-99542887D01*
X127814809Y-99484013D01*
X127663922Y-99454000D01*
X127510078Y-99454000D01*
X127359191Y-99484013D01*
X127217058Y-99542887D01*
X127089141Y-99628358D01*
X126980358Y-99737141D01*
X126894887Y-99865058D01*
X126893603Y-99868157D01*
X121912000Y-99868157D01*
X121837311Y-99875513D01*
X121765492Y-99897299D01*
X121699304Y-99932678D01*
X121641289Y-99980289D01*
X121593678Y-100038304D01*
X121558299Y-100104492D01*
X121536513Y-100176311D01*
X121529157Y-100251000D01*
X120915000Y-100251000D01*
X120915000Y-96557000D01*
X178053000Y-96557000D01*
X178053000Y-100234824D01*
M02*
