G04 #@! TF.GenerationSoftware,KiCad,Pcbnew,5.1.5+dfsg1-2build2*
G04 #@! TF.CreationDate,2022-03-06T19:54:29+01:00*
G04 #@! TF.ProjectId,yusufitium-USB-RS232,79757375-6669-4746-9975-6d2d5553422d,rev?*
G04 #@! TF.SameCoordinates,Original*
G04 #@! TF.FileFunction,Legend,Top*
G04 #@! TF.FilePolarity,Positive*
%FSLAX46Y46*%
G04 Gerber Fmt 4.6, Leading zero omitted, Abs format (unit mm)*
G04 Created by KiCad (PCBNEW 5.1.5+dfsg1-2build2) date 2022-03-06 19:54:29*
%MOMM*%
%LPD*%
G04 APERTURE LIST*
%ADD10C,0.150000*%
%ADD11C,0.120000*%
G04 APERTURE END LIST*
D10*
X140668238Y-115546380D02*
X140334904Y-115070190D01*
X140096809Y-115546380D02*
X140096809Y-114546380D01*
X140477761Y-114546380D01*
X140573000Y-114594000D01*
X140620619Y-114641619D01*
X140668238Y-114736857D01*
X140668238Y-114879714D01*
X140620619Y-114974952D01*
X140573000Y-115022571D01*
X140477761Y-115070190D01*
X140096809Y-115070190D01*
X141001571Y-114546380D02*
X141668238Y-115546380D01*
X141668238Y-114546380D02*
X141001571Y-115546380D01*
X141811095Y-115641619D02*
X142573000Y-115641619D01*
X143287285Y-115546380D02*
X142811095Y-115546380D01*
X142811095Y-114546380D01*
X143620619Y-115022571D02*
X143953952Y-115022571D01*
X144096809Y-115546380D02*
X143620619Y-115546380D01*
X143620619Y-114546380D01*
X144096809Y-114546380D01*
X144525380Y-115546380D02*
X144525380Y-114546380D01*
X144763476Y-114546380D01*
X144906333Y-114594000D01*
X145001571Y-114689238D01*
X145049190Y-114784476D01*
X145096809Y-114974952D01*
X145096809Y-115117809D01*
X145049190Y-115308285D01*
X145001571Y-115403523D01*
X144906333Y-115498761D01*
X144763476Y-115546380D01*
X144525380Y-115546380D01*
X133596000Y-114546380D02*
X134167428Y-114546380D01*
X133881714Y-115546380D02*
X133881714Y-114546380D01*
X134405523Y-114546380D02*
X135072190Y-115546380D01*
X135072190Y-114546380D02*
X134405523Y-115546380D01*
X135215047Y-115641619D02*
X135976952Y-115641619D01*
X136691238Y-115546380D02*
X136215047Y-115546380D01*
X136215047Y-114546380D01*
X137024571Y-115022571D02*
X137357904Y-115022571D01*
X137500761Y-115546380D02*
X137024571Y-115546380D01*
X137024571Y-114546380D01*
X137500761Y-114546380D01*
X137929333Y-115546380D02*
X137929333Y-114546380D01*
X138167428Y-114546380D01*
X138310285Y-114594000D01*
X138405523Y-114689238D01*
X138453142Y-114784476D01*
X138500761Y-114974952D01*
X138500761Y-115117809D01*
X138453142Y-115308285D01*
X138405523Y-115403523D01*
X138310285Y-115498761D01*
X138167428Y-115546380D01*
X137929333Y-115546380D01*
X128539666Y-115546380D02*
X128539666Y-114546380D01*
X128920619Y-114546380D01*
X129015857Y-114594000D01*
X129063476Y-114641619D01*
X129111095Y-114736857D01*
X129111095Y-114879714D01*
X129063476Y-114974952D01*
X129015857Y-115022571D01*
X128920619Y-115070190D01*
X128539666Y-115070190D01*
X129444428Y-114546380D02*
X129682523Y-115546380D01*
X129873000Y-114832095D01*
X130063476Y-115546380D01*
X130301571Y-114546380D01*
X131253952Y-115546380D02*
X130920619Y-115070190D01*
X130682523Y-115546380D02*
X130682523Y-114546380D01*
X131063476Y-114546380D01*
X131158714Y-114594000D01*
X131206333Y-114641619D01*
X131253952Y-114736857D01*
X131253952Y-114879714D01*
X131206333Y-114974952D01*
X131158714Y-115022571D01*
X131063476Y-115070190D01*
X130682523Y-115070190D01*
X147891285Y-114784428D02*
X148653190Y-114784428D01*
X148272238Y-115165380D02*
X148272238Y-114403476D01*
X149605571Y-114165380D02*
X149129380Y-114165380D01*
X149081761Y-114641571D01*
X149129380Y-114593952D01*
X149224619Y-114546333D01*
X149462714Y-114546333D01*
X149557952Y-114593952D01*
X149605571Y-114641571D01*
X149653190Y-114736809D01*
X149653190Y-114974904D01*
X149605571Y-115070142D01*
X149557952Y-115117761D01*
X149462714Y-115165380D01*
X149224619Y-115165380D01*
X149129380Y-115117761D01*
X149081761Y-115070142D01*
X149938904Y-114165380D02*
X150272238Y-115165380D01*
X150605571Y-114165380D01*
X157051095Y-114213000D02*
X156955857Y-114165380D01*
X156813000Y-114165380D01*
X156670142Y-114213000D01*
X156574904Y-114308238D01*
X156527285Y-114403476D01*
X156479666Y-114593952D01*
X156479666Y-114736809D01*
X156527285Y-114927285D01*
X156574904Y-115022523D01*
X156670142Y-115117761D01*
X156813000Y-115165380D01*
X156908238Y-115165380D01*
X157051095Y-115117761D01*
X157098714Y-115070142D01*
X157098714Y-114736809D01*
X156908238Y-114736809D01*
X157527285Y-115165380D02*
X157527285Y-114165380D01*
X158098714Y-115165380D01*
X158098714Y-114165380D01*
X158574904Y-115165380D02*
X158574904Y-114165380D01*
X158813000Y-114165380D01*
X158955857Y-114213000D01*
X159051095Y-114308238D01*
X159098714Y-114403476D01*
X159146333Y-114593952D01*
X159146333Y-114736809D01*
X159098714Y-114927285D01*
X159051095Y-115022523D01*
X158955857Y-115117761D01*
X158813000Y-115165380D01*
X158574904Y-115165380D01*
X154598333Y-115165380D02*
X154265000Y-114689190D01*
X154026904Y-115165380D02*
X154026904Y-114165380D01*
X154407857Y-114165380D01*
X154503095Y-114213000D01*
X154550714Y-114260619D01*
X154598333Y-114355857D01*
X154598333Y-114498714D01*
X154550714Y-114593952D01*
X154503095Y-114641571D01*
X154407857Y-114689190D01*
X154026904Y-114689190D01*
X154931666Y-114165380D02*
X155598333Y-115165380D01*
X155598333Y-114165380D02*
X154931666Y-115165380D01*
X151336095Y-114165380D02*
X151907523Y-114165380D01*
X151621809Y-115165380D02*
X151621809Y-114165380D01*
X152145619Y-114165380D02*
X152812285Y-115165380D01*
X152812285Y-114165380D02*
X152145619Y-115165380D01*
D11*
X165814000Y-99874000D02*
X163864000Y-99874000D01*
X165814000Y-99874000D02*
X167764000Y-99874000D01*
X165814000Y-109994000D02*
X163864000Y-109994000D01*
X165814000Y-109994000D02*
X169264000Y-109994000D01*
X170892000Y-101422267D02*
X170892000Y-101079733D01*
X171912000Y-101422267D02*
X171912000Y-101079733D01*
X165844267Y-114080000D02*
X165501733Y-114080000D01*
X165844267Y-113060000D02*
X165501733Y-113060000D01*
X171912000Y-105091267D02*
X171912000Y-104748733D01*
X170892000Y-105091267D02*
X170892000Y-104748733D01*
X165515733Y-112048000D02*
X165858267Y-112048000D01*
X165515733Y-111028000D02*
X165858267Y-111028000D01*
X170892000Y-108788267D02*
X170892000Y-108445733D01*
X171912000Y-108788267D02*
X171912000Y-108445733D01*
X158593000Y-113757000D02*
X158593000Y-111097000D01*
X150913000Y-113757000D02*
X158593000Y-113757000D01*
X150913000Y-111097000D02*
X158593000Y-111097000D01*
X150913000Y-113757000D02*
X150913000Y-111097000D01*
X149643000Y-113757000D02*
X148313000Y-113757000D01*
X148313000Y-113757000D02*
X148313000Y-112427000D01*
X125995000Y-110014000D02*
X125995000Y-109634000D01*
X121945000Y-110014000D02*
X121685000Y-110014000D01*
X125995000Y-110014000D02*
X124225000Y-110014000D01*
X125995000Y-102394000D02*
X125995000Y-102774000D01*
X124225000Y-102394000D02*
X125995000Y-102394000D01*
X121685000Y-102394000D02*
X121945000Y-102394000D01*
X155355733Y-107095000D02*
X155698267Y-107095000D01*
X155355733Y-106075000D02*
X155698267Y-106075000D01*
X130383000Y-101549267D02*
X130383000Y-101206733D01*
X129363000Y-101549267D02*
X129363000Y-101206733D01*
X130383000Y-105016733D02*
X130383000Y-105359267D01*
X129363000Y-105016733D02*
X129363000Y-105359267D01*
X134443000Y-104903733D02*
X134443000Y-105246267D01*
X135463000Y-104903733D02*
X135463000Y-105246267D01*
X137495000Y-104903733D02*
X137495000Y-105246267D01*
X136475000Y-104903733D02*
X136475000Y-105246267D01*
X138507000Y-104903733D02*
X138507000Y-105246267D01*
X139527000Y-104903733D02*
X139527000Y-105246267D01*
X137768335Y-111348392D02*
G75*
G03X134536000Y-111191484I-1672335J-1078608D01*
G01*
X137768335Y-113505608D02*
G75*
G02X134536000Y-113662516I-1672335J1078608D01*
G01*
X137137130Y-111347163D02*
G75*
G03X135055039Y-111347000I-1041130J-1079837D01*
G01*
X137137130Y-113506837D02*
G75*
G02X135055039Y-113507000I-1041130J1079837D01*
G01*
X134536000Y-111191000D02*
X134536000Y-111347000D01*
X134536000Y-113507000D02*
X134536000Y-113663000D01*
X140759000Y-113507000D02*
X140759000Y-113663000D01*
X140759000Y-111191000D02*
X140759000Y-111347000D01*
X143360130Y-113506837D02*
G75*
G02X141278039Y-113507000I-1041130J1079837D01*
G01*
X143360130Y-111347163D02*
G75*
G03X141278039Y-111347000I-1041130J-1079837D01*
G01*
X143991335Y-113505608D02*
G75*
G02X140759000Y-113662516I-1672335J1078608D01*
G01*
X143991335Y-111348392D02*
G75*
G03X140759000Y-111191484I-1672335J-1078608D01*
G01*
X131545335Y-111348392D02*
G75*
G03X128313000Y-111191484I-1672335J-1078608D01*
G01*
X131545335Y-113505608D02*
G75*
G02X128313000Y-113662516I-1672335J1078608D01*
G01*
X130914130Y-111347163D02*
G75*
G03X128832039Y-111347000I-1041130J-1079837D01*
G01*
X130914130Y-113506837D02*
G75*
G02X128832039Y-113507000I-1041130J1079837D01*
G01*
X128313000Y-111191000D02*
X128313000Y-111347000D01*
X128313000Y-113507000D02*
X128313000Y-113663000D01*
X136607564Y-99621000D02*
X135403436Y-99621000D01*
X136607564Y-97801000D02*
X135403436Y-97801000D01*
X178224000Y-98972667D02*
X174484000Y-98972667D01*
X174484000Y-98972667D02*
X174484000Y-112419333D01*
X174484000Y-112419333D02*
X178224000Y-112419333D01*
X176484000Y-112659333D02*
X174244000Y-112659333D01*
X174244000Y-112659333D02*
X174244000Y-108466000D01*
X140539000Y-101968733D02*
X140539000Y-102311267D01*
X141559000Y-101968733D02*
X141559000Y-102311267D01*
X132415000Y-105359267D02*
X132415000Y-105016733D01*
X131395000Y-105359267D02*
X131395000Y-105016733D01*
X132415000Y-101220733D02*
X132415000Y-101563267D01*
X131395000Y-101220733D02*
X131395000Y-101563267D01*
X159635267Y-104809000D02*
X159292733Y-104809000D01*
X159635267Y-103789000D02*
X159292733Y-103789000D01*
X159292733Y-105567000D02*
X159635267Y-105567000D01*
X159292733Y-106587000D02*
X159635267Y-106587000D01*
X159635267Y-100106000D02*
X159292733Y-100106000D01*
X159635267Y-101126000D02*
X159292733Y-101126000D01*
X159292733Y-101757000D02*
X159635267Y-101757000D01*
X159292733Y-102777000D02*
X159635267Y-102777000D01*
D10*
X150528000Y-108227000D02*
X150528000Y-107652000D01*
X144778000Y-108227000D02*
X144778000Y-107577000D01*
X144778000Y-97577000D02*
X144778000Y-98227000D01*
X150528000Y-97577000D02*
X150528000Y-98227000D01*
X150528000Y-108227000D02*
X144778000Y-108227000D01*
X150528000Y-97577000D02*
X144778000Y-97577000D01*
X150528000Y-107652000D02*
X152128000Y-107652000D01*
D11*
X136060221Y-101503000D02*
X136385779Y-101503000D01*
X136060221Y-102523000D02*
X136385779Y-102523000D01*
D10*
X165179095Y-98163380D02*
X165179095Y-98972904D01*
X165226714Y-99068142D01*
X165274333Y-99115761D01*
X165369571Y-99163380D01*
X165560047Y-99163380D01*
X165655285Y-99115761D01*
X165702904Y-99068142D01*
X165750523Y-98972904D01*
X165750523Y-98163380D01*
X166131476Y-98163380D02*
X166750523Y-98163380D01*
X166417190Y-98544333D01*
X166560047Y-98544333D01*
X166655285Y-98591952D01*
X166702904Y-98639571D01*
X166750523Y-98734809D01*
X166750523Y-98972904D01*
X166702904Y-99068142D01*
X166655285Y-99115761D01*
X166560047Y-99163380D01*
X166274333Y-99163380D01*
X166179095Y-99115761D01*
X166131476Y-99068142D01*
X173537142Y-101893857D02*
X173584761Y-101941476D01*
X173632380Y-102084333D01*
X173632380Y-102179571D01*
X173584761Y-102322428D01*
X173489523Y-102417666D01*
X173394285Y-102465285D01*
X173203809Y-102512904D01*
X173060952Y-102512904D01*
X172870476Y-102465285D01*
X172775238Y-102417666D01*
X172680000Y-102322428D01*
X172632380Y-102179571D01*
X172632380Y-102084333D01*
X172680000Y-101941476D01*
X172727619Y-101893857D01*
X173632380Y-100941476D02*
X173632380Y-101512904D01*
X173632380Y-101227190D02*
X172632380Y-101227190D01*
X172775238Y-101322428D01*
X172870476Y-101417666D01*
X172918095Y-101512904D01*
X172632380Y-100322428D02*
X172632380Y-100227190D01*
X172680000Y-100131952D01*
X172727619Y-100084333D01*
X172822857Y-100036714D01*
X173013333Y-99989095D01*
X173251428Y-99989095D01*
X173441904Y-100036714D01*
X173537142Y-100084333D01*
X173584761Y-100131952D01*
X173632380Y-100227190D01*
X173632380Y-100322428D01*
X173584761Y-100417666D01*
X173537142Y-100465285D01*
X173441904Y-100512904D01*
X173251428Y-100560523D01*
X173013333Y-100560523D01*
X172822857Y-100512904D01*
X172727619Y-100465285D01*
X172680000Y-100417666D01*
X172632380Y-100322428D01*
X162599333Y-114054142D02*
X162551714Y-114101761D01*
X162408857Y-114149380D01*
X162313619Y-114149380D01*
X162170761Y-114101761D01*
X162075523Y-114006523D01*
X162027904Y-113911285D01*
X161980285Y-113720809D01*
X161980285Y-113577952D01*
X162027904Y-113387476D01*
X162075523Y-113292238D01*
X162170761Y-113197000D01*
X162313619Y-113149380D01*
X162408857Y-113149380D01*
X162551714Y-113197000D01*
X162599333Y-113244619D01*
X163170761Y-113577952D02*
X163075523Y-113530333D01*
X163027904Y-113482714D01*
X162980285Y-113387476D01*
X162980285Y-113339857D01*
X163027904Y-113244619D01*
X163075523Y-113197000D01*
X163170761Y-113149380D01*
X163361238Y-113149380D01*
X163456476Y-113197000D01*
X163504095Y-113244619D01*
X163551714Y-113339857D01*
X163551714Y-113387476D01*
X163504095Y-113482714D01*
X163456476Y-113530333D01*
X163361238Y-113577952D01*
X163170761Y-113577952D01*
X163075523Y-113625571D01*
X163027904Y-113673190D01*
X162980285Y-113768428D01*
X162980285Y-113958904D01*
X163027904Y-114054142D01*
X163075523Y-114101761D01*
X163170761Y-114149380D01*
X163361238Y-114149380D01*
X163456476Y-114101761D01*
X163504095Y-114054142D01*
X163551714Y-113958904D01*
X163551714Y-113768428D01*
X163504095Y-113673190D01*
X163456476Y-113625571D01*
X163361238Y-113577952D01*
X173537142Y-105562857D02*
X173584761Y-105610476D01*
X173632380Y-105753333D01*
X173632380Y-105848571D01*
X173584761Y-105991428D01*
X173489523Y-106086666D01*
X173394285Y-106134285D01*
X173203809Y-106181904D01*
X173060952Y-106181904D01*
X172870476Y-106134285D01*
X172775238Y-106086666D01*
X172680000Y-105991428D01*
X172632380Y-105848571D01*
X172632380Y-105753333D01*
X172680000Y-105610476D01*
X172727619Y-105562857D01*
X173632380Y-104610476D02*
X173632380Y-105181904D01*
X173632380Y-104896190D02*
X172632380Y-104896190D01*
X172775238Y-104991428D01*
X172870476Y-105086666D01*
X172918095Y-105181904D01*
X173632380Y-103658095D02*
X173632380Y-104229523D01*
X173632380Y-103943809D02*
X172632380Y-103943809D01*
X172775238Y-104039047D01*
X172870476Y-104134285D01*
X172918095Y-104229523D01*
X162091333Y-111895142D02*
X162043714Y-111942761D01*
X161900857Y-111990380D01*
X161805619Y-111990380D01*
X161662761Y-111942761D01*
X161567523Y-111847523D01*
X161519904Y-111752285D01*
X161472285Y-111561809D01*
X161472285Y-111418952D01*
X161519904Y-111228476D01*
X161567523Y-111133238D01*
X161662761Y-111038000D01*
X161805619Y-110990380D01*
X161900857Y-110990380D01*
X162043714Y-111038000D01*
X162091333Y-111085619D01*
X162567523Y-111990380D02*
X162758000Y-111990380D01*
X162853238Y-111942761D01*
X162900857Y-111895142D01*
X162996095Y-111752285D01*
X163043714Y-111561809D01*
X163043714Y-111180857D01*
X162996095Y-111085619D01*
X162948476Y-111038000D01*
X162853238Y-110990380D01*
X162662761Y-110990380D01*
X162567523Y-111038000D01*
X162519904Y-111085619D01*
X162472285Y-111180857D01*
X162472285Y-111418952D01*
X162519904Y-111514190D01*
X162567523Y-111561809D01*
X162662761Y-111609428D01*
X162853238Y-111609428D01*
X162948476Y-111561809D01*
X162996095Y-111514190D01*
X163043714Y-111418952D01*
X173537142Y-108783666D02*
X173584761Y-108831285D01*
X173632380Y-108974142D01*
X173632380Y-109069380D01*
X173584761Y-109212238D01*
X173489523Y-109307476D01*
X173394285Y-109355095D01*
X173203809Y-109402714D01*
X173060952Y-109402714D01*
X172870476Y-109355095D01*
X172775238Y-109307476D01*
X172680000Y-109212238D01*
X172632380Y-109069380D01*
X172632380Y-108974142D01*
X172680000Y-108831285D01*
X172727619Y-108783666D01*
X172632380Y-108450333D02*
X172632380Y-107783666D01*
X173632380Y-108212238D01*
X146765380Y-112760333D02*
X147479666Y-112760333D01*
X147622523Y-112807952D01*
X147717761Y-112903190D01*
X147765380Y-113046047D01*
X147765380Y-113141285D01*
X146765380Y-112379380D02*
X146765380Y-111760333D01*
X147146333Y-112093666D01*
X147146333Y-111950809D01*
X147193952Y-111855571D01*
X147241571Y-111807952D01*
X147336809Y-111760333D01*
X147574904Y-111760333D01*
X147670142Y-111807952D01*
X147717761Y-111855571D01*
X147765380Y-111950809D01*
X147765380Y-112236523D01*
X147717761Y-112331761D01*
X147670142Y-112379380D01*
X124604380Y-101330333D02*
X125318666Y-101330333D01*
X125461523Y-101377952D01*
X125556761Y-101473190D01*
X125604380Y-101616047D01*
X125604380Y-101711285D01*
X125604380Y-100330333D02*
X125604380Y-100901761D01*
X125604380Y-100616047D02*
X124604380Y-100616047D01*
X124747238Y-100711285D01*
X124842476Y-100806523D01*
X124890095Y-100901761D01*
X155247333Y-108593142D02*
X155199714Y-108640761D01*
X155056857Y-108688380D01*
X154961619Y-108688380D01*
X154818761Y-108640761D01*
X154723523Y-108545523D01*
X154675904Y-108450285D01*
X154628285Y-108259809D01*
X154628285Y-108116952D01*
X154675904Y-107926476D01*
X154723523Y-107831238D01*
X154818761Y-107736000D01*
X154961619Y-107688380D01*
X155056857Y-107688380D01*
X155199714Y-107736000D01*
X155247333Y-107783619D01*
X156199714Y-108688380D02*
X155628285Y-108688380D01*
X155914000Y-108688380D02*
X155914000Y-107688380D01*
X155818761Y-107831238D01*
X155723523Y-107926476D01*
X155628285Y-107974095D01*
X130230142Y-98623666D02*
X130277761Y-98671285D01*
X130325380Y-98814142D01*
X130325380Y-98909380D01*
X130277761Y-99052238D01*
X130182523Y-99147476D01*
X130087285Y-99195095D01*
X129896809Y-99242714D01*
X129753952Y-99242714D01*
X129563476Y-99195095D01*
X129468238Y-99147476D01*
X129373000Y-99052238D01*
X129325380Y-98909380D01*
X129325380Y-98814142D01*
X129373000Y-98671285D01*
X129420619Y-98623666D01*
X129420619Y-98242714D02*
X129373000Y-98195095D01*
X129325380Y-98099857D01*
X129325380Y-97861761D01*
X129373000Y-97766523D01*
X129420619Y-97718904D01*
X129515857Y-97671285D01*
X129611095Y-97671285D01*
X129753952Y-97718904D01*
X130325380Y-98290333D01*
X130325380Y-97671285D01*
X130103142Y-108402666D02*
X130150761Y-108450285D01*
X130198380Y-108593142D01*
X130198380Y-108688380D01*
X130150761Y-108831238D01*
X130055523Y-108926476D01*
X129960285Y-108974095D01*
X129769809Y-109021714D01*
X129626952Y-109021714D01*
X129436476Y-108974095D01*
X129341238Y-108926476D01*
X129246000Y-108831238D01*
X129198380Y-108688380D01*
X129198380Y-108593142D01*
X129246000Y-108450285D01*
X129293619Y-108402666D01*
X129198380Y-108069333D02*
X129198380Y-107450285D01*
X129579333Y-107783619D01*
X129579333Y-107640761D01*
X129626952Y-107545523D01*
X129674571Y-107497904D01*
X129769809Y-107450285D01*
X130007904Y-107450285D01*
X130103142Y-107497904D01*
X130150761Y-107545523D01*
X130198380Y-107640761D01*
X130198380Y-107926476D01*
X130150761Y-108021714D01*
X130103142Y-108069333D01*
X135310142Y-108148666D02*
X135357761Y-108196285D01*
X135405380Y-108339142D01*
X135405380Y-108434380D01*
X135357761Y-108577238D01*
X135262523Y-108672476D01*
X135167285Y-108720095D01*
X134976809Y-108767714D01*
X134833952Y-108767714D01*
X134643476Y-108720095D01*
X134548238Y-108672476D01*
X134453000Y-108577238D01*
X134405380Y-108434380D01*
X134405380Y-108339142D01*
X134453000Y-108196285D01*
X134500619Y-108148666D01*
X134738714Y-107291523D02*
X135405380Y-107291523D01*
X134357761Y-107529619D02*
X135072047Y-107767714D01*
X135072047Y-107148666D01*
X137342142Y-108148666D02*
X137389761Y-108196285D01*
X137437380Y-108339142D01*
X137437380Y-108434380D01*
X137389761Y-108577238D01*
X137294523Y-108672476D01*
X137199285Y-108720095D01*
X137008809Y-108767714D01*
X136865952Y-108767714D01*
X136675476Y-108720095D01*
X136580238Y-108672476D01*
X136485000Y-108577238D01*
X136437380Y-108434380D01*
X136437380Y-108339142D01*
X136485000Y-108196285D01*
X136532619Y-108148666D01*
X136437380Y-107243904D02*
X136437380Y-107720095D01*
X136913571Y-107767714D01*
X136865952Y-107720095D01*
X136818333Y-107624857D01*
X136818333Y-107386761D01*
X136865952Y-107291523D01*
X136913571Y-107243904D01*
X137008809Y-107196285D01*
X137246904Y-107196285D01*
X137342142Y-107243904D01*
X137389761Y-107291523D01*
X137437380Y-107386761D01*
X137437380Y-107624857D01*
X137389761Y-107720095D01*
X137342142Y-107767714D01*
X139374142Y-108148666D02*
X139421761Y-108196285D01*
X139469380Y-108339142D01*
X139469380Y-108434380D01*
X139421761Y-108577238D01*
X139326523Y-108672476D01*
X139231285Y-108720095D01*
X139040809Y-108767714D01*
X138897952Y-108767714D01*
X138707476Y-108720095D01*
X138612238Y-108672476D01*
X138517000Y-108577238D01*
X138469380Y-108434380D01*
X138469380Y-108339142D01*
X138517000Y-108196285D01*
X138564619Y-108148666D01*
X138469380Y-107291523D02*
X138469380Y-107482000D01*
X138517000Y-107577238D01*
X138564619Y-107624857D01*
X138707476Y-107720095D01*
X138897952Y-107767714D01*
X139278904Y-107767714D01*
X139374142Y-107720095D01*
X139421761Y-107672476D01*
X139469380Y-107577238D01*
X139469380Y-107386761D01*
X139421761Y-107291523D01*
X139374142Y-107243904D01*
X139278904Y-107196285D01*
X139040809Y-107196285D01*
X138945571Y-107243904D01*
X138897952Y-107291523D01*
X138850333Y-107386761D01*
X138850333Y-107577238D01*
X138897952Y-107672476D01*
X138945571Y-107720095D01*
X139040809Y-107767714D01*
X137770904Y-110593380D02*
X137770904Y-109593380D01*
X138009000Y-109593380D01*
X138151857Y-109641000D01*
X138247095Y-109736238D01*
X138294714Y-109831476D01*
X138342333Y-110021952D01*
X138342333Y-110164809D01*
X138294714Y-110355285D01*
X138247095Y-110450523D01*
X138151857Y-110545761D01*
X138009000Y-110593380D01*
X137770904Y-110593380D01*
X139294714Y-110593380D02*
X138723285Y-110593380D01*
X139009000Y-110593380D02*
X139009000Y-109593380D01*
X138913761Y-109736238D01*
X138818523Y-109831476D01*
X138723285Y-109879095D01*
X143993904Y-110593380D02*
X143993904Y-109593380D01*
X144232000Y-109593380D01*
X144374857Y-109641000D01*
X144470095Y-109736238D01*
X144517714Y-109831476D01*
X144565333Y-110021952D01*
X144565333Y-110164809D01*
X144517714Y-110355285D01*
X144470095Y-110450523D01*
X144374857Y-110545761D01*
X144232000Y-110593380D01*
X143993904Y-110593380D01*
X144946285Y-109688619D02*
X144993904Y-109641000D01*
X145089142Y-109593380D01*
X145327238Y-109593380D01*
X145422476Y-109641000D01*
X145470095Y-109688619D01*
X145517714Y-109783857D01*
X145517714Y-109879095D01*
X145470095Y-110021952D01*
X144898666Y-110593380D01*
X145517714Y-110593380D01*
X131674904Y-110720380D02*
X131674904Y-109720380D01*
X131913000Y-109720380D01*
X132055857Y-109768000D01*
X132151095Y-109863238D01*
X132198714Y-109958476D01*
X132246333Y-110148952D01*
X132246333Y-110291809D01*
X132198714Y-110482285D01*
X132151095Y-110577523D01*
X132055857Y-110672761D01*
X131913000Y-110720380D01*
X131674904Y-110720380D01*
X132579666Y-109720380D02*
X133198714Y-109720380D01*
X132865380Y-110101333D01*
X133008238Y-110101333D01*
X133103476Y-110148952D01*
X133151095Y-110196571D01*
X133198714Y-110291809D01*
X133198714Y-110529904D01*
X133151095Y-110625142D01*
X133103476Y-110672761D01*
X133008238Y-110720380D01*
X132722523Y-110720380D01*
X132627285Y-110672761D01*
X132579666Y-110625142D01*
X139318666Y-98766571D02*
X138985333Y-98766571D01*
X138985333Y-99290380D02*
X138985333Y-98290380D01*
X139461523Y-98290380D01*
X140366285Y-99290380D02*
X139794857Y-99290380D01*
X140080571Y-99290380D02*
X140080571Y-98290380D01*
X139985333Y-98433238D01*
X139890095Y-98528476D01*
X139794857Y-98576095D01*
X176021666Y-113149380D02*
X176021666Y-113863666D01*
X175974047Y-114006523D01*
X175878809Y-114101761D01*
X175735952Y-114149380D01*
X175640714Y-114149380D01*
X176926428Y-113482714D02*
X176926428Y-114149380D01*
X176688333Y-113101761D02*
X176450238Y-113816047D01*
X177069285Y-113816047D01*
X141628380Y-104973666D02*
X141152190Y-105307000D01*
X141628380Y-105545095D02*
X140628380Y-105545095D01*
X140628380Y-105164142D01*
X140676000Y-105068904D01*
X140723619Y-105021285D01*
X140818857Y-104973666D01*
X140961714Y-104973666D01*
X141056952Y-105021285D01*
X141104571Y-105068904D01*
X141152190Y-105164142D01*
X141152190Y-105545095D01*
X141628380Y-104021285D02*
X141628380Y-104592714D01*
X141628380Y-104307000D02*
X140628380Y-104307000D01*
X140771238Y-104402238D01*
X140866476Y-104497476D01*
X140914095Y-104592714D01*
X132230380Y-108275666D02*
X131754190Y-108609000D01*
X132230380Y-108847095D02*
X131230380Y-108847095D01*
X131230380Y-108466142D01*
X131278000Y-108370904D01*
X131325619Y-108323285D01*
X131420857Y-108275666D01*
X131563714Y-108275666D01*
X131658952Y-108323285D01*
X131706571Y-108370904D01*
X131754190Y-108466142D01*
X131754190Y-108847095D01*
X132230380Y-107799476D02*
X132230380Y-107609000D01*
X132182761Y-107513761D01*
X132135142Y-107466142D01*
X131992285Y-107370904D01*
X131801809Y-107323285D01*
X131420857Y-107323285D01*
X131325619Y-107370904D01*
X131278000Y-107418523D01*
X131230380Y-107513761D01*
X131230380Y-107704238D01*
X131278000Y-107799476D01*
X131325619Y-107847095D01*
X131420857Y-107894714D01*
X131658952Y-107894714D01*
X131754190Y-107847095D01*
X131801809Y-107799476D01*
X131849428Y-107704238D01*
X131849428Y-107513761D01*
X131801809Y-107418523D01*
X131754190Y-107370904D01*
X131658952Y-107323285D01*
X132357380Y-98605857D02*
X131881190Y-98939190D01*
X132357380Y-99177285D02*
X131357380Y-99177285D01*
X131357380Y-98796333D01*
X131405000Y-98701095D01*
X131452619Y-98653476D01*
X131547857Y-98605857D01*
X131690714Y-98605857D01*
X131785952Y-98653476D01*
X131833571Y-98701095D01*
X131881190Y-98796333D01*
X131881190Y-99177285D01*
X132357380Y-97653476D02*
X132357380Y-98224904D01*
X132357380Y-97939190D02*
X131357380Y-97939190D01*
X131500238Y-98034428D01*
X131595476Y-98129666D01*
X131643095Y-98224904D01*
X131357380Y-97034428D02*
X131357380Y-96939190D01*
X131405000Y-96843952D01*
X131452619Y-96796333D01*
X131547857Y-96748714D01*
X131738333Y-96701095D01*
X131976428Y-96701095D01*
X132166904Y-96748714D01*
X132262142Y-96796333D01*
X132309761Y-96843952D01*
X132357380Y-96939190D01*
X132357380Y-97034428D01*
X132309761Y-97129666D01*
X132262142Y-97177285D01*
X132166904Y-97224904D01*
X131976428Y-97272523D01*
X131738333Y-97272523D01*
X131547857Y-97224904D01*
X131452619Y-97177285D01*
X131405000Y-97129666D01*
X131357380Y-97034428D01*
X155773142Y-104878380D02*
X155439809Y-104402190D01*
X155201714Y-104878380D02*
X155201714Y-103878380D01*
X155582666Y-103878380D01*
X155677904Y-103926000D01*
X155725523Y-103973619D01*
X155773142Y-104068857D01*
X155773142Y-104211714D01*
X155725523Y-104306952D01*
X155677904Y-104354571D01*
X155582666Y-104402190D01*
X155201714Y-104402190D01*
X156725523Y-104878380D02*
X156154095Y-104878380D01*
X156439809Y-104878380D02*
X156439809Y-103878380D01*
X156344571Y-104021238D01*
X156249333Y-104116476D01*
X156154095Y-104164095D01*
X157677904Y-104878380D02*
X157106476Y-104878380D01*
X157392190Y-104878380D02*
X157392190Y-103878380D01*
X157296952Y-104021238D01*
X157201714Y-104116476D01*
X157106476Y-104164095D01*
X158440142Y-109577380D02*
X158106809Y-109101190D01*
X157868714Y-109577380D02*
X157868714Y-108577380D01*
X158249666Y-108577380D01*
X158344904Y-108625000D01*
X158392523Y-108672619D01*
X158440142Y-108767857D01*
X158440142Y-108910714D01*
X158392523Y-109005952D01*
X158344904Y-109053571D01*
X158249666Y-109101190D01*
X157868714Y-109101190D01*
X159392523Y-109577380D02*
X158821095Y-109577380D01*
X159106809Y-109577380D02*
X159106809Y-108577380D01*
X159011571Y-108720238D01*
X158916333Y-108815476D01*
X158821095Y-108863095D01*
X159773476Y-108672619D02*
X159821095Y-108625000D01*
X159916333Y-108577380D01*
X160154428Y-108577380D01*
X160249666Y-108625000D01*
X160297285Y-108672619D01*
X160344904Y-108767857D01*
X160344904Y-108863095D01*
X160297285Y-109005952D01*
X159725857Y-109577380D01*
X160344904Y-109577380D01*
X155646142Y-101068380D02*
X155312809Y-100592190D01*
X155074714Y-101068380D02*
X155074714Y-100068380D01*
X155455666Y-100068380D01*
X155550904Y-100116000D01*
X155598523Y-100163619D01*
X155646142Y-100258857D01*
X155646142Y-100401714D01*
X155598523Y-100496952D01*
X155550904Y-100544571D01*
X155455666Y-100592190D01*
X155074714Y-100592190D01*
X156598523Y-101068380D02*
X156027095Y-101068380D01*
X156312809Y-101068380D02*
X156312809Y-100068380D01*
X156217571Y-100211238D01*
X156122333Y-100306476D01*
X156027095Y-100354095D01*
X156931857Y-100068380D02*
X157550904Y-100068380D01*
X157217571Y-100449333D01*
X157360428Y-100449333D01*
X157455666Y-100496952D01*
X157503285Y-100544571D01*
X157550904Y-100639809D01*
X157550904Y-100877904D01*
X157503285Y-100973142D01*
X157455666Y-101020761D01*
X157360428Y-101068380D01*
X157074714Y-101068380D01*
X156979476Y-101020761D01*
X156931857Y-100973142D01*
X155646142Y-102719380D02*
X155312809Y-102243190D01*
X155074714Y-102719380D02*
X155074714Y-101719380D01*
X155455666Y-101719380D01*
X155550904Y-101767000D01*
X155598523Y-101814619D01*
X155646142Y-101909857D01*
X155646142Y-102052714D01*
X155598523Y-102147952D01*
X155550904Y-102195571D01*
X155455666Y-102243190D01*
X155074714Y-102243190D01*
X156598523Y-102719380D02*
X156027095Y-102719380D01*
X156312809Y-102719380D02*
X156312809Y-101719380D01*
X156217571Y-101862238D01*
X156122333Y-101957476D01*
X156027095Y-102005095D01*
X157455666Y-102052714D02*
X157455666Y-102719380D01*
X157217571Y-101671761D02*
X156979476Y-102386047D01*
X157598523Y-102386047D01*
X147399095Y-108704380D02*
X147399095Y-109513904D01*
X147446714Y-109609142D01*
X147494333Y-109656761D01*
X147589571Y-109704380D01*
X147780047Y-109704380D01*
X147875285Y-109656761D01*
X147922904Y-109609142D01*
X147970523Y-109513904D01*
X147970523Y-108704380D01*
X148399095Y-108799619D02*
X148446714Y-108752000D01*
X148541952Y-108704380D01*
X148780047Y-108704380D01*
X148875285Y-108752000D01*
X148922904Y-108799619D01*
X148970523Y-108894857D01*
X148970523Y-108990095D01*
X148922904Y-109132952D01*
X148351476Y-109704380D01*
X148970523Y-109704380D01*
X138723333Y-102465380D02*
X138247142Y-102465380D01*
X138247142Y-101465380D01*
X139580476Y-102465380D02*
X139009047Y-102465380D01*
X139294761Y-102465380D02*
X139294761Y-101465380D01*
X139199523Y-101608238D01*
X139104285Y-101703476D01*
X139009047Y-101751095D01*
M02*
