G04 #@! TF.GenerationSoftware,KiCad,Pcbnew,5.1.5+dfsg1-2build2*
G04 #@! TF.CreationDate,2022-03-06T19:54:29+01:00*
G04 #@! TF.ProjectId,yusufitium-USB-RS232,79757375-6669-4746-9975-6d2d5553422d,rev?*
G04 #@! TF.SameCoordinates,Original*
G04 #@! TF.FileFunction,Soldermask,Bot*
G04 #@! TF.FilePolarity,Negative*
%FSLAX46Y46*%
G04 Gerber Fmt 4.6, Leading zero omitted, Abs format (unit mm)*
G04 Created by KiCad (PCBNEW 5.1.5+dfsg1-2build2) date 2022-03-06 19:54:29*
%MOMM*%
%LPD*%
G04 APERTURE LIST*
%ADD10C,0.100000*%
G04 APERTURE END LIST*
D10*
G36*
X135777000Y-113378000D02*
G01*
X133875000Y-113378000D01*
X133875000Y-111476000D01*
X135777000Y-111476000D01*
X135777000Y-113378000D01*
G37*
G36*
X142000000Y-113378000D02*
G01*
X140098000Y-113378000D01*
X140098000Y-111476000D01*
X142000000Y-111476000D01*
X142000000Y-113378000D01*
G37*
G36*
X131420395Y-111512546D02*
G01*
X131593466Y-111584234D01*
X131593467Y-111584235D01*
X131749227Y-111688310D01*
X131881690Y-111820773D01*
X131902987Y-111852646D01*
X131985766Y-111976534D01*
X132057454Y-112149605D01*
X132094000Y-112333333D01*
X132094000Y-112520667D01*
X132057454Y-112704395D01*
X131985766Y-112877466D01*
X131985765Y-112877467D01*
X131881690Y-113033227D01*
X131749227Y-113165690D01*
X131670818Y-113218081D01*
X131593466Y-113269766D01*
X131420395Y-113341454D01*
X131236667Y-113378000D01*
X131049333Y-113378000D01*
X130865605Y-113341454D01*
X130692534Y-113269766D01*
X130615182Y-113218081D01*
X130536773Y-113165690D01*
X130404310Y-113033227D01*
X130300235Y-112877467D01*
X130300234Y-112877466D01*
X130228546Y-112704395D01*
X130192000Y-112520667D01*
X130192000Y-112333333D01*
X130228546Y-112149605D01*
X130300234Y-111976534D01*
X130383013Y-111852646D01*
X130404310Y-111820773D01*
X130536773Y-111688310D01*
X130692533Y-111584235D01*
X130692534Y-111584234D01*
X130865605Y-111512546D01*
X131049333Y-111476000D01*
X131236667Y-111476000D01*
X131420395Y-111512546D01*
G37*
G36*
X129554000Y-113378000D02*
G01*
X127652000Y-113378000D01*
X127652000Y-111476000D01*
X129554000Y-111476000D01*
X129554000Y-113378000D01*
G37*
G36*
X137643395Y-111512546D02*
G01*
X137816466Y-111584234D01*
X137816467Y-111584235D01*
X137972227Y-111688310D01*
X138104690Y-111820773D01*
X138125987Y-111852646D01*
X138208766Y-111976534D01*
X138280454Y-112149605D01*
X138317000Y-112333333D01*
X138317000Y-112520667D01*
X138280454Y-112704395D01*
X138208766Y-112877466D01*
X138208765Y-112877467D01*
X138104690Y-113033227D01*
X137972227Y-113165690D01*
X137893818Y-113218081D01*
X137816466Y-113269766D01*
X137643395Y-113341454D01*
X137459667Y-113378000D01*
X137272333Y-113378000D01*
X137088605Y-113341454D01*
X136915534Y-113269766D01*
X136838182Y-113218081D01*
X136759773Y-113165690D01*
X136627310Y-113033227D01*
X136523235Y-112877467D01*
X136523234Y-112877466D01*
X136451546Y-112704395D01*
X136415000Y-112520667D01*
X136415000Y-112333333D01*
X136451546Y-112149605D01*
X136523234Y-111976534D01*
X136606013Y-111852646D01*
X136627310Y-111820773D01*
X136759773Y-111688310D01*
X136915533Y-111584235D01*
X136915534Y-111584234D01*
X137088605Y-111512546D01*
X137272333Y-111476000D01*
X137459667Y-111476000D01*
X137643395Y-111512546D01*
G37*
G36*
X143866395Y-111512546D02*
G01*
X144039466Y-111584234D01*
X144039467Y-111584235D01*
X144195227Y-111688310D01*
X144327690Y-111820773D01*
X144348987Y-111852646D01*
X144431766Y-111976534D01*
X144503454Y-112149605D01*
X144540000Y-112333333D01*
X144540000Y-112520667D01*
X144503454Y-112704395D01*
X144431766Y-112877466D01*
X144431765Y-112877467D01*
X144327690Y-113033227D01*
X144195227Y-113165690D01*
X144116818Y-113218081D01*
X144039466Y-113269766D01*
X143866395Y-113341454D01*
X143682667Y-113378000D01*
X143495333Y-113378000D01*
X143311605Y-113341454D01*
X143138534Y-113269766D01*
X143061182Y-113218081D01*
X142982773Y-113165690D01*
X142850310Y-113033227D01*
X142746235Y-112877467D01*
X142746234Y-112877466D01*
X142674546Y-112704395D01*
X142638000Y-112520667D01*
X142638000Y-112333333D01*
X142674546Y-112149605D01*
X142746234Y-111976534D01*
X142829013Y-111852646D01*
X142850310Y-111820773D01*
X142982773Y-111688310D01*
X143138533Y-111584235D01*
X143138534Y-111584234D01*
X143311605Y-111512546D01*
X143495333Y-111476000D01*
X143682667Y-111476000D01*
X143866395Y-111512546D01*
G37*
G36*
X152296512Y-111530927D02*
G01*
X152445812Y-111560624D01*
X152609784Y-111628544D01*
X152757354Y-111727147D01*
X152882853Y-111852646D01*
X152981456Y-112000216D01*
X153049376Y-112164188D01*
X153084000Y-112338259D01*
X153084000Y-112515741D01*
X153049376Y-112689812D01*
X152981456Y-112853784D01*
X152882853Y-113001354D01*
X152757354Y-113126853D01*
X152609784Y-113225456D01*
X152445812Y-113293376D01*
X152296512Y-113323073D01*
X152271742Y-113328000D01*
X152094258Y-113328000D01*
X152069488Y-113323073D01*
X151920188Y-113293376D01*
X151756216Y-113225456D01*
X151608646Y-113126853D01*
X151483147Y-113001354D01*
X151384544Y-112853784D01*
X151316624Y-112689812D01*
X151282000Y-112515741D01*
X151282000Y-112338259D01*
X151316624Y-112164188D01*
X151384544Y-112000216D01*
X151483147Y-111852646D01*
X151608646Y-111727147D01*
X151756216Y-111628544D01*
X151920188Y-111560624D01*
X152069488Y-111530927D01*
X152094258Y-111526000D01*
X152271742Y-111526000D01*
X152296512Y-111530927D01*
G37*
G36*
X150544000Y-113328000D02*
G01*
X148742000Y-113328000D01*
X148742000Y-111526000D01*
X150544000Y-111526000D01*
X150544000Y-113328000D01*
G37*
G36*
X154836512Y-111530927D02*
G01*
X154985812Y-111560624D01*
X155149784Y-111628544D01*
X155297354Y-111727147D01*
X155422853Y-111852646D01*
X155521456Y-112000216D01*
X155589376Y-112164188D01*
X155624000Y-112338259D01*
X155624000Y-112515741D01*
X155589376Y-112689812D01*
X155521456Y-112853784D01*
X155422853Y-113001354D01*
X155297354Y-113126853D01*
X155149784Y-113225456D01*
X154985812Y-113293376D01*
X154836512Y-113323073D01*
X154811742Y-113328000D01*
X154634258Y-113328000D01*
X154609488Y-113323073D01*
X154460188Y-113293376D01*
X154296216Y-113225456D01*
X154148646Y-113126853D01*
X154023147Y-113001354D01*
X153924544Y-112853784D01*
X153856624Y-112689812D01*
X153822000Y-112515741D01*
X153822000Y-112338259D01*
X153856624Y-112164188D01*
X153924544Y-112000216D01*
X154023147Y-111852646D01*
X154148646Y-111727147D01*
X154296216Y-111628544D01*
X154460188Y-111560624D01*
X154609488Y-111530927D01*
X154634258Y-111526000D01*
X154811742Y-111526000D01*
X154836512Y-111530927D01*
G37*
G36*
X157376512Y-111530927D02*
G01*
X157525812Y-111560624D01*
X157689784Y-111628544D01*
X157837354Y-111727147D01*
X157962853Y-111852646D01*
X158061456Y-112000216D01*
X158129376Y-112164188D01*
X158164000Y-112338259D01*
X158164000Y-112515741D01*
X158129376Y-112689812D01*
X158061456Y-112853784D01*
X157962853Y-113001354D01*
X157837354Y-113126853D01*
X157689784Y-113225456D01*
X157525812Y-113293376D01*
X157376512Y-113323073D01*
X157351742Y-113328000D01*
X157174258Y-113328000D01*
X157149488Y-113323073D01*
X157000188Y-113293376D01*
X156836216Y-113225456D01*
X156688646Y-113126853D01*
X156563147Y-113001354D01*
X156464544Y-112853784D01*
X156396624Y-112689812D01*
X156362000Y-112515741D01*
X156362000Y-112338259D01*
X156396624Y-112164188D01*
X156464544Y-112000216D01*
X156563147Y-111852646D01*
X156688646Y-111727147D01*
X156836216Y-111628544D01*
X157000188Y-111560624D01*
X157149488Y-111530927D01*
X157174258Y-111526000D01*
X157351742Y-111526000D01*
X157376512Y-111530927D01*
G37*
G36*
X126963000Y-111827000D02*
G01*
X121861000Y-111827000D01*
X121861000Y-109725000D01*
X126963000Y-109725000D01*
X126963000Y-111827000D01*
G37*
G36*
X178275000Y-110825333D02*
G01*
X174693000Y-110825333D01*
X174693000Y-108876667D01*
X178275000Y-108876667D01*
X178275000Y-110825333D01*
G37*
G36*
X135381499Y-108730445D02*
G01*
X135418995Y-108741820D01*
X135453554Y-108760292D01*
X135483847Y-108785153D01*
X135508708Y-108815446D01*
X135527180Y-108850005D01*
X135538555Y-108887501D01*
X135543000Y-108932638D01*
X135543000Y-109571362D01*
X135538555Y-109616499D01*
X135527180Y-109653995D01*
X135508708Y-109688554D01*
X135483847Y-109718847D01*
X135453554Y-109743708D01*
X135418995Y-109762180D01*
X135381499Y-109773555D01*
X135336362Y-109778000D01*
X134597638Y-109778000D01*
X134552501Y-109773555D01*
X134515005Y-109762180D01*
X134480446Y-109743708D01*
X134450153Y-109718847D01*
X134425292Y-109688554D01*
X134406820Y-109653995D01*
X134395445Y-109616499D01*
X134391000Y-109571362D01*
X134391000Y-108932638D01*
X134395445Y-108887501D01*
X134406820Y-108850005D01*
X134425292Y-108815446D01*
X134450153Y-108785153D01*
X134480446Y-108760292D01*
X134515005Y-108741820D01*
X134552501Y-108730445D01*
X134597638Y-108726000D01*
X135336362Y-108726000D01*
X135381499Y-108730445D01*
G37*
G36*
X143368499Y-108730445D02*
G01*
X143405995Y-108741820D01*
X143440554Y-108760292D01*
X143470847Y-108785153D01*
X143495708Y-108815446D01*
X143514180Y-108850005D01*
X143525555Y-108887501D01*
X143530000Y-108932638D01*
X143530000Y-109571362D01*
X143525555Y-109616499D01*
X143514180Y-109653995D01*
X143495708Y-109688554D01*
X143470847Y-109718847D01*
X143440554Y-109743708D01*
X143405995Y-109762180D01*
X143368499Y-109773555D01*
X143323362Y-109778000D01*
X142584638Y-109778000D01*
X142539501Y-109773555D01*
X142502005Y-109762180D01*
X142467446Y-109743708D01*
X142437153Y-109718847D01*
X142412292Y-109688554D01*
X142393820Y-109653995D01*
X142382445Y-109616499D01*
X142378000Y-109571362D01*
X142378000Y-108932638D01*
X142382445Y-108887501D01*
X142393820Y-108850005D01*
X142412292Y-108815446D01*
X142437153Y-108785153D01*
X142467446Y-108760292D01*
X142502005Y-108741820D01*
X142539501Y-108730445D01*
X142584638Y-108726000D01*
X143323362Y-108726000D01*
X143368499Y-108730445D01*
G37*
G36*
X141618499Y-108730445D02*
G01*
X141655995Y-108741820D01*
X141690554Y-108760292D01*
X141720847Y-108785153D01*
X141745708Y-108815446D01*
X141764180Y-108850005D01*
X141775555Y-108887501D01*
X141780000Y-108932638D01*
X141780000Y-109571362D01*
X141775555Y-109616499D01*
X141764180Y-109653995D01*
X141745708Y-109688554D01*
X141720847Y-109718847D01*
X141690554Y-109743708D01*
X141655995Y-109762180D01*
X141618499Y-109773555D01*
X141573362Y-109778000D01*
X140834638Y-109778000D01*
X140789501Y-109773555D01*
X140752005Y-109762180D01*
X140717446Y-109743708D01*
X140687153Y-109718847D01*
X140662292Y-109688554D01*
X140643820Y-109653995D01*
X140632445Y-109616499D01*
X140628000Y-109571362D01*
X140628000Y-108932638D01*
X140632445Y-108887501D01*
X140643820Y-108850005D01*
X140662292Y-108815446D01*
X140687153Y-108785153D01*
X140717446Y-108760292D01*
X140752005Y-108741820D01*
X140789501Y-108730445D01*
X140834638Y-108726000D01*
X141573362Y-108726000D01*
X141618499Y-108730445D01*
G37*
G36*
X129031499Y-108730445D02*
G01*
X129068995Y-108741820D01*
X129103554Y-108760292D01*
X129133847Y-108785153D01*
X129158708Y-108815446D01*
X129177180Y-108850005D01*
X129188555Y-108887501D01*
X129193000Y-108932638D01*
X129193000Y-109571362D01*
X129188555Y-109616499D01*
X129177180Y-109653995D01*
X129158708Y-109688554D01*
X129133847Y-109718847D01*
X129103554Y-109743708D01*
X129068995Y-109762180D01*
X129031499Y-109773555D01*
X128986362Y-109778000D01*
X128247638Y-109778000D01*
X128202501Y-109773555D01*
X128165005Y-109762180D01*
X128130446Y-109743708D01*
X128100153Y-109718847D01*
X128075292Y-109688554D01*
X128056820Y-109653995D01*
X128045445Y-109616499D01*
X128041000Y-109571362D01*
X128041000Y-108932638D01*
X128045445Y-108887501D01*
X128056820Y-108850005D01*
X128075292Y-108815446D01*
X128100153Y-108785153D01*
X128130446Y-108760292D01*
X128165005Y-108741820D01*
X128202501Y-108730445D01*
X128247638Y-108726000D01*
X128986362Y-108726000D01*
X129031499Y-108730445D01*
G37*
G36*
X137131499Y-108730445D02*
G01*
X137168995Y-108741820D01*
X137203554Y-108760292D01*
X137233847Y-108785153D01*
X137258708Y-108815446D01*
X137277180Y-108850005D01*
X137288555Y-108887501D01*
X137293000Y-108932638D01*
X137293000Y-109571362D01*
X137288555Y-109616499D01*
X137277180Y-109653995D01*
X137258708Y-109688554D01*
X137233847Y-109718847D01*
X137203554Y-109743708D01*
X137168995Y-109762180D01*
X137131499Y-109773555D01*
X137086362Y-109778000D01*
X136347638Y-109778000D01*
X136302501Y-109773555D01*
X136265005Y-109762180D01*
X136230446Y-109743708D01*
X136200153Y-109718847D01*
X136175292Y-109688554D01*
X136156820Y-109653995D01*
X136145445Y-109616499D01*
X136141000Y-109571362D01*
X136141000Y-108932638D01*
X136145445Y-108887501D01*
X136156820Y-108850005D01*
X136175292Y-108815446D01*
X136200153Y-108785153D01*
X136230446Y-108760292D01*
X136265005Y-108741820D01*
X136302501Y-108730445D01*
X136347638Y-108726000D01*
X137086362Y-108726000D01*
X137131499Y-108730445D01*
G37*
G36*
X130781499Y-108730445D02*
G01*
X130818995Y-108741820D01*
X130853554Y-108760292D01*
X130883847Y-108785153D01*
X130908708Y-108815446D01*
X130927180Y-108850005D01*
X130938555Y-108887501D01*
X130943000Y-108932638D01*
X130943000Y-109571362D01*
X130938555Y-109616499D01*
X130927180Y-109653995D01*
X130908708Y-109688554D01*
X130883847Y-109718847D01*
X130853554Y-109743708D01*
X130818995Y-109762180D01*
X130781499Y-109773555D01*
X130736362Y-109778000D01*
X129997638Y-109778000D01*
X129952501Y-109773555D01*
X129915005Y-109762180D01*
X129880446Y-109743708D01*
X129850153Y-109718847D01*
X129825292Y-109688554D01*
X129806820Y-109653995D01*
X129795445Y-109616499D01*
X129791000Y-109571362D01*
X129791000Y-108932638D01*
X129795445Y-108887501D01*
X129806820Y-108850005D01*
X129825292Y-108815446D01*
X129850153Y-108785153D01*
X129880446Y-108760292D01*
X129915005Y-108741820D01*
X129952501Y-108730445D01*
X129997638Y-108726000D01*
X130736362Y-108726000D01*
X130781499Y-108730445D01*
G37*
G36*
X126963000Y-108652000D02*
G01*
X121861000Y-108652000D01*
X121861000Y-106550000D01*
X126963000Y-106550000D01*
X126963000Y-108652000D01*
G37*
G36*
X159828499Y-107396445D02*
G01*
X159865995Y-107407820D01*
X159900554Y-107426292D01*
X159930847Y-107451153D01*
X159955708Y-107481446D01*
X159974180Y-107516005D01*
X159985555Y-107553501D01*
X159990000Y-107598638D01*
X159990000Y-108337362D01*
X159985555Y-108382499D01*
X159974180Y-108419995D01*
X159955708Y-108454554D01*
X159930847Y-108484847D01*
X159900554Y-108509708D01*
X159865995Y-108528180D01*
X159828499Y-108539555D01*
X159783362Y-108544000D01*
X159144638Y-108544000D01*
X159099501Y-108539555D01*
X159062005Y-108528180D01*
X159027446Y-108509708D01*
X158997153Y-108484847D01*
X158972292Y-108454554D01*
X158953820Y-108419995D01*
X158942445Y-108382499D01*
X158938000Y-108337362D01*
X158938000Y-107598638D01*
X158942445Y-107553501D01*
X158953820Y-107516005D01*
X158972292Y-107481446D01*
X158997153Y-107451153D01*
X159027446Y-107426292D01*
X159062005Y-107407820D01*
X159099501Y-107396445D01*
X159144638Y-107392000D01*
X159783362Y-107392000D01*
X159828499Y-107396445D01*
G37*
G36*
X161606499Y-107382445D02*
G01*
X161643995Y-107393820D01*
X161678554Y-107412292D01*
X161708847Y-107437153D01*
X161733708Y-107467446D01*
X161752180Y-107502005D01*
X161763555Y-107539501D01*
X161768000Y-107584638D01*
X161768000Y-108323362D01*
X161763555Y-108368499D01*
X161752180Y-108405995D01*
X161733708Y-108440554D01*
X161708847Y-108470847D01*
X161678554Y-108495708D01*
X161643995Y-108514180D01*
X161606499Y-108525555D01*
X161561362Y-108530000D01*
X160922638Y-108530000D01*
X160877501Y-108525555D01*
X160840005Y-108514180D01*
X160805446Y-108495708D01*
X160775153Y-108470847D01*
X160750292Y-108440554D01*
X160731820Y-108405995D01*
X160720445Y-108368499D01*
X160716000Y-108323362D01*
X160716000Y-107584638D01*
X160720445Y-107539501D01*
X160731820Y-107502005D01*
X160750292Y-107467446D01*
X160775153Y-107437153D01*
X160805446Y-107412292D01*
X160840005Y-107393820D01*
X160877501Y-107382445D01*
X160922638Y-107378000D01*
X161561362Y-107378000D01*
X161606499Y-107382445D01*
G37*
G36*
X178275000Y-108055333D02*
G01*
X174693000Y-108055333D01*
X174693000Y-106106667D01*
X178275000Y-106106667D01*
X178275000Y-108055333D01*
G37*
G36*
X156816499Y-106063445D02*
G01*
X156853995Y-106074820D01*
X156888554Y-106093292D01*
X156918847Y-106118153D01*
X156943708Y-106148446D01*
X156962180Y-106183005D01*
X156973555Y-106220501D01*
X156978000Y-106265638D01*
X156978000Y-106904362D01*
X156973555Y-106949499D01*
X156962180Y-106986995D01*
X156943708Y-107021554D01*
X156918847Y-107051847D01*
X156888554Y-107076708D01*
X156853995Y-107095180D01*
X156816499Y-107106555D01*
X156771362Y-107111000D01*
X156032638Y-107111000D01*
X155987501Y-107106555D01*
X155950005Y-107095180D01*
X155915446Y-107076708D01*
X155885153Y-107051847D01*
X155860292Y-107021554D01*
X155841820Y-106986995D01*
X155830445Y-106949499D01*
X155826000Y-106904362D01*
X155826000Y-106265638D01*
X155830445Y-106220501D01*
X155841820Y-106183005D01*
X155860292Y-106148446D01*
X155885153Y-106118153D01*
X155915446Y-106093292D01*
X155950005Y-106074820D01*
X155987501Y-106063445D01*
X156032638Y-106059000D01*
X156771362Y-106059000D01*
X156816499Y-106063445D01*
G37*
G36*
X155066499Y-106063445D02*
G01*
X155103995Y-106074820D01*
X155138554Y-106093292D01*
X155168847Y-106118153D01*
X155193708Y-106148446D01*
X155212180Y-106183005D01*
X155223555Y-106220501D01*
X155228000Y-106265638D01*
X155228000Y-106904362D01*
X155223555Y-106949499D01*
X155212180Y-106986995D01*
X155193708Y-107021554D01*
X155168847Y-107051847D01*
X155138554Y-107076708D01*
X155103995Y-107095180D01*
X155066499Y-107106555D01*
X155021362Y-107111000D01*
X154282638Y-107111000D01*
X154237501Y-107106555D01*
X154200005Y-107095180D01*
X154165446Y-107076708D01*
X154135153Y-107051847D01*
X154110292Y-107021554D01*
X154091820Y-106986995D01*
X154080445Y-106949499D01*
X154076000Y-106904362D01*
X154076000Y-106265638D01*
X154080445Y-106220501D01*
X154091820Y-106183005D01*
X154110292Y-106148446D01*
X154135153Y-106118153D01*
X154165446Y-106093292D01*
X154200005Y-106074820D01*
X154237501Y-106063445D01*
X154282638Y-106059000D01*
X155021362Y-106059000D01*
X155066499Y-106063445D01*
G37*
G36*
X159828499Y-105646445D02*
G01*
X159865995Y-105657820D01*
X159900554Y-105676292D01*
X159930847Y-105701153D01*
X159955708Y-105731446D01*
X159974180Y-105766005D01*
X159985555Y-105803501D01*
X159990000Y-105848638D01*
X159990000Y-106587362D01*
X159985555Y-106632499D01*
X159974180Y-106669995D01*
X159955708Y-106704554D01*
X159930847Y-106734847D01*
X159900554Y-106759708D01*
X159865995Y-106778180D01*
X159828499Y-106789555D01*
X159783362Y-106794000D01*
X159144638Y-106794000D01*
X159099501Y-106789555D01*
X159062005Y-106778180D01*
X159027446Y-106759708D01*
X158997153Y-106734847D01*
X158972292Y-106704554D01*
X158953820Y-106669995D01*
X158942445Y-106632499D01*
X158938000Y-106587362D01*
X158938000Y-105848638D01*
X158942445Y-105803501D01*
X158953820Y-105766005D01*
X158972292Y-105731446D01*
X158997153Y-105701153D01*
X159027446Y-105676292D01*
X159062005Y-105657820D01*
X159099501Y-105646445D01*
X159144638Y-105642000D01*
X159783362Y-105642000D01*
X159828499Y-105646445D01*
G37*
G36*
X161606499Y-105632445D02*
G01*
X161643995Y-105643820D01*
X161678554Y-105662292D01*
X161708847Y-105687153D01*
X161733708Y-105717446D01*
X161752180Y-105752005D01*
X161763555Y-105789501D01*
X161768000Y-105834638D01*
X161768000Y-106573362D01*
X161763555Y-106618499D01*
X161752180Y-106655995D01*
X161733708Y-106690554D01*
X161708847Y-106720847D01*
X161678554Y-106745708D01*
X161643995Y-106764180D01*
X161606499Y-106775555D01*
X161561362Y-106780000D01*
X160922638Y-106780000D01*
X160877501Y-106775555D01*
X160840005Y-106764180D01*
X160805446Y-106745708D01*
X160775153Y-106720847D01*
X160750292Y-106690554D01*
X160731820Y-106655995D01*
X160720445Y-106618499D01*
X160716000Y-106573362D01*
X160716000Y-105834638D01*
X160720445Y-105789501D01*
X160731820Y-105752005D01*
X160750292Y-105717446D01*
X160775153Y-105687153D01*
X160805446Y-105662292D01*
X160840005Y-105643820D01*
X160877501Y-105632445D01*
X160922638Y-105628000D01*
X161561362Y-105628000D01*
X161606499Y-105632445D01*
G37*
G36*
X145704000Y-106010500D02*
G01*
X144402000Y-106010500D01*
X144402000Y-99793500D01*
X145704000Y-99793500D01*
X145704000Y-106010500D01*
G37*
G36*
X150904000Y-106010500D02*
G01*
X149602000Y-106010500D01*
X149602000Y-99793500D01*
X150904000Y-99793500D01*
X150904000Y-106010500D01*
G37*
G36*
X126963000Y-105477000D02*
G01*
X121861000Y-105477000D01*
X121861000Y-103375000D01*
X126963000Y-103375000D01*
X126963000Y-105477000D01*
G37*
G36*
X155052499Y-104285445D02*
G01*
X155089995Y-104296820D01*
X155124554Y-104315292D01*
X155154847Y-104340153D01*
X155179708Y-104370446D01*
X155198180Y-104405005D01*
X155209555Y-104442501D01*
X155214000Y-104487638D01*
X155214000Y-105126362D01*
X155209555Y-105171499D01*
X155198180Y-105208995D01*
X155179708Y-105243554D01*
X155154847Y-105273847D01*
X155124554Y-105298708D01*
X155089995Y-105317180D01*
X155052499Y-105328555D01*
X155007362Y-105333000D01*
X154268638Y-105333000D01*
X154223501Y-105328555D01*
X154186005Y-105317180D01*
X154151446Y-105298708D01*
X154121153Y-105273847D01*
X154096292Y-105243554D01*
X154077820Y-105208995D01*
X154066445Y-105171499D01*
X154062000Y-105126362D01*
X154062000Y-104487638D01*
X154066445Y-104442501D01*
X154077820Y-104405005D01*
X154096292Y-104370446D01*
X154121153Y-104340153D01*
X154151446Y-104315292D01*
X154186005Y-104296820D01*
X154223501Y-104285445D01*
X154268638Y-104281000D01*
X155007362Y-104281000D01*
X155052499Y-104285445D01*
G37*
G36*
X156802499Y-104285445D02*
G01*
X156839995Y-104296820D01*
X156874554Y-104315292D01*
X156904847Y-104340153D01*
X156929708Y-104370446D01*
X156948180Y-104405005D01*
X156959555Y-104442501D01*
X156964000Y-104487638D01*
X156964000Y-105126362D01*
X156959555Y-105171499D01*
X156948180Y-105208995D01*
X156929708Y-105243554D01*
X156904847Y-105273847D01*
X156874554Y-105298708D01*
X156839995Y-105317180D01*
X156802499Y-105328555D01*
X156757362Y-105333000D01*
X156018638Y-105333000D01*
X155973501Y-105328555D01*
X155936005Y-105317180D01*
X155901446Y-105298708D01*
X155871153Y-105273847D01*
X155846292Y-105243554D01*
X155827820Y-105208995D01*
X155816445Y-105171499D01*
X155812000Y-105126362D01*
X155812000Y-104487638D01*
X155816445Y-104442501D01*
X155827820Y-104405005D01*
X155846292Y-104370446D01*
X155871153Y-104340153D01*
X155901446Y-104315292D01*
X155936005Y-104296820D01*
X155973501Y-104285445D01*
X156018638Y-104281000D01*
X156757362Y-104281000D01*
X156802499Y-104285445D01*
G37*
G36*
X178275000Y-105285333D02*
G01*
X174693000Y-105285333D01*
X174693000Y-103336667D01*
X178275000Y-103336667D01*
X178275000Y-105285333D01*
G37*
G36*
X159092000Y-104430000D02*
G01*
X158090000Y-104430000D01*
X158090000Y-103528000D01*
X159092000Y-103528000D01*
X159092000Y-104430000D01*
G37*
G36*
X161092000Y-103480000D02*
G01*
X160090000Y-103480000D01*
X160090000Y-102578000D01*
X161092000Y-102578000D01*
X161092000Y-103480000D01*
G37*
G36*
X159092000Y-102530000D02*
G01*
X158090000Y-102530000D01*
X158090000Y-101628000D01*
X159092000Y-101628000D01*
X159092000Y-102530000D01*
G37*
G36*
X178275000Y-102515333D02*
G01*
X174693000Y-102515333D01*
X174693000Y-100566667D01*
X178275000Y-100566667D01*
X178275000Y-102515333D01*
G37*
G36*
X126963000Y-102302000D02*
G01*
X121861000Y-102302000D01*
X121861000Y-100200000D01*
X126963000Y-100200000D01*
X126963000Y-102302000D01*
G37*
G36*
X159076000Y-100747000D02*
G01*
X158074000Y-100747000D01*
X158074000Y-99845000D01*
X159076000Y-99845000D01*
X159076000Y-100747000D01*
G37*
G36*
X161076000Y-99797000D02*
G01*
X160074000Y-99797000D01*
X160074000Y-98895000D01*
X161076000Y-98895000D01*
X161076000Y-99797000D01*
G37*
G36*
X159076000Y-98847000D02*
G01*
X158074000Y-98847000D01*
X158074000Y-97945000D01*
X159076000Y-97945000D01*
X159076000Y-98847000D01*
G37*
M02*
