G04 #@! TF.GenerationSoftware,KiCad,Pcbnew,5.1.5+dfsg1-2build2*
G04 #@! TF.CreationDate,2022-03-06T19:54:29+01:00*
G04 #@! TF.ProjectId,yusufitium-USB-RS232,79757375-6669-4746-9975-6d2d5553422d,rev?*
G04 #@! TF.SameCoordinates,Original*
G04 #@! TF.FileFunction,Legend,Bot*
G04 #@! TF.FilePolarity,Positive*
%FSLAX46Y46*%
G04 Gerber Fmt 4.6, Leading zero omitted, Abs format (unit mm)*
G04 Created by KiCad (PCBNEW 5.1.5+dfsg1-2build2) date 2022-03-06 19:54:29*
%MOMM*%
%LPD*%
G04 APERTURE LIST*
%ADD10C,0.150000*%
%ADD11C,0.250000*%
%ADD12C,0.120000*%
G04 APERTURE END LIST*
D10*
X124570571Y-114625714D02*
X124332476Y-115292380D01*
X124094380Y-114625714D01*
X123761047Y-114387619D02*
X123713428Y-114340000D01*
X123618190Y-114292380D01*
X123380095Y-114292380D01*
X123284857Y-114340000D01*
X123237238Y-114387619D01*
X123189619Y-114482857D01*
X123189619Y-114578095D01*
X123237238Y-114720952D01*
X123808666Y-115292380D01*
X123189619Y-115292380D01*
X122761047Y-115197142D02*
X122713428Y-115244761D01*
X122761047Y-115292380D01*
X122808666Y-115244761D01*
X122761047Y-115197142D01*
X122761047Y-115292380D01*
X122094380Y-114292380D02*
X121999142Y-114292380D01*
X121903904Y-114340000D01*
X121856285Y-114387619D01*
X121808666Y-114482857D01*
X121761047Y-114673333D01*
X121761047Y-114911428D01*
X121808666Y-115101904D01*
X121856285Y-115197142D01*
X121903904Y-115244761D01*
X121999142Y-115292380D01*
X122094380Y-115292380D01*
X122189619Y-115244761D01*
X122237238Y-115197142D01*
X122284857Y-115101904D01*
X122332476Y-114911428D01*
X122332476Y-114673333D01*
X122284857Y-114482857D01*
X122237238Y-114387619D01*
X122189619Y-114340000D01*
X122094380Y-114292380D01*
X177122809Y-115038380D02*
X177122809Y-114038380D01*
X176694238Y-115038380D02*
X176694238Y-114514571D01*
X176741857Y-114419333D01*
X176837095Y-114371714D01*
X176979952Y-114371714D01*
X177075190Y-114419333D01*
X177122809Y-114466952D01*
X176360904Y-114371714D02*
X175979952Y-114371714D01*
X176218047Y-114038380D02*
X176218047Y-114895523D01*
X176170428Y-114990761D01*
X176075190Y-115038380D01*
X175979952Y-115038380D01*
X175789476Y-114371714D02*
X175408523Y-114371714D01*
X175646619Y-114038380D02*
X175646619Y-114895523D01*
X175599000Y-114990761D01*
X175503761Y-115038380D01*
X175408523Y-115038380D01*
X175075190Y-114371714D02*
X175075190Y-115371714D01*
X175075190Y-114419333D02*
X174979952Y-114371714D01*
X174789476Y-114371714D01*
X174694238Y-114419333D01*
X174646619Y-114466952D01*
X174599000Y-114562190D01*
X174599000Y-114847904D01*
X174646619Y-114943142D01*
X174694238Y-114990761D01*
X174789476Y-115038380D01*
X174979952Y-115038380D01*
X175075190Y-114990761D01*
X174218047Y-114990761D02*
X174122809Y-115038380D01*
X173932333Y-115038380D01*
X173837095Y-114990761D01*
X173789476Y-114895523D01*
X173789476Y-114847904D01*
X173837095Y-114752666D01*
X173932333Y-114705047D01*
X174075190Y-114705047D01*
X174170428Y-114657428D01*
X174218047Y-114562190D01*
X174218047Y-114514571D01*
X174170428Y-114419333D01*
X174075190Y-114371714D01*
X173932333Y-114371714D01*
X173837095Y-114419333D01*
X173360904Y-114943142D02*
X173313285Y-114990761D01*
X173360904Y-115038380D01*
X173408523Y-114990761D01*
X173360904Y-114943142D01*
X173360904Y-115038380D01*
X173360904Y-114419333D02*
X173313285Y-114466952D01*
X173360904Y-114514571D01*
X173408523Y-114466952D01*
X173360904Y-114419333D01*
X173360904Y-114514571D01*
X172170428Y-113990761D02*
X173027571Y-115276476D01*
X171122809Y-113990761D02*
X171979952Y-115276476D01*
X170360904Y-114371714D02*
X170360904Y-115181238D01*
X170408523Y-115276476D01*
X170456142Y-115324095D01*
X170551380Y-115371714D01*
X170694238Y-115371714D01*
X170789476Y-115324095D01*
X170360904Y-114990761D02*
X170456142Y-115038380D01*
X170646619Y-115038380D01*
X170741857Y-114990761D01*
X170789476Y-114943142D01*
X170837095Y-114847904D01*
X170837095Y-114562190D01*
X170789476Y-114466952D01*
X170741857Y-114419333D01*
X170646619Y-114371714D01*
X170456142Y-114371714D01*
X170360904Y-114419333D01*
X169884714Y-115038380D02*
X169884714Y-114371714D01*
X169884714Y-114038380D02*
X169932333Y-114086000D01*
X169884714Y-114133619D01*
X169837095Y-114086000D01*
X169884714Y-114038380D01*
X169884714Y-114133619D01*
X169551380Y-114371714D02*
X169170428Y-114371714D01*
X169408523Y-114038380D02*
X169408523Y-114895523D01*
X169360904Y-114990761D01*
X169265666Y-115038380D01*
X169170428Y-115038380D01*
X168837095Y-115038380D02*
X168837095Y-114038380D01*
X168408523Y-115038380D02*
X168408523Y-114514571D01*
X168456142Y-114419333D01*
X168551380Y-114371714D01*
X168694238Y-114371714D01*
X168789476Y-114419333D01*
X168837095Y-114466952D01*
X167503761Y-114371714D02*
X167503761Y-115038380D01*
X167932333Y-114371714D02*
X167932333Y-114895523D01*
X167884714Y-114990761D01*
X167789476Y-115038380D01*
X167646619Y-115038380D01*
X167551380Y-114990761D01*
X167503761Y-114943142D01*
X167027571Y-115038380D02*
X167027571Y-114038380D01*
X167027571Y-114419333D02*
X166932333Y-114371714D01*
X166741857Y-114371714D01*
X166646619Y-114419333D01*
X166599000Y-114466952D01*
X166551380Y-114562190D01*
X166551380Y-114847904D01*
X166599000Y-114943142D01*
X166646619Y-114990761D01*
X166741857Y-115038380D01*
X166932333Y-115038380D01*
X167027571Y-114990761D01*
X166122809Y-114943142D02*
X166075190Y-114990761D01*
X166122809Y-115038380D01*
X166170428Y-114990761D01*
X166122809Y-114943142D01*
X166122809Y-115038380D01*
X165218047Y-114990761D02*
X165313285Y-115038380D01*
X165503761Y-115038380D01*
X165599000Y-114990761D01*
X165646619Y-114943142D01*
X165694238Y-114847904D01*
X165694238Y-114562190D01*
X165646619Y-114466952D01*
X165599000Y-114419333D01*
X165503761Y-114371714D01*
X165313285Y-114371714D01*
X165218047Y-114419333D01*
X164646619Y-115038380D02*
X164741857Y-114990761D01*
X164789476Y-114943142D01*
X164837095Y-114847904D01*
X164837095Y-114562190D01*
X164789476Y-114466952D01*
X164741857Y-114419333D01*
X164646619Y-114371714D01*
X164503761Y-114371714D01*
X164408523Y-114419333D01*
X164360904Y-114466952D01*
X164313285Y-114562190D01*
X164313285Y-114847904D01*
X164360904Y-114943142D01*
X164408523Y-114990761D01*
X164503761Y-115038380D01*
X164646619Y-115038380D01*
X163884714Y-115038380D02*
X163884714Y-114371714D01*
X163884714Y-114466952D02*
X163837095Y-114419333D01*
X163741857Y-114371714D01*
X163599000Y-114371714D01*
X163503761Y-114419333D01*
X163456142Y-114514571D01*
X163456142Y-115038380D01*
X163456142Y-114514571D02*
X163408523Y-114419333D01*
X163313285Y-114371714D01*
X163170428Y-114371714D01*
X163075190Y-114419333D01*
X163027571Y-114514571D01*
X163027571Y-115038380D01*
X161837095Y-113990761D02*
X162694238Y-115276476D01*
X161075190Y-114990761D02*
X161170428Y-115038380D01*
X161360904Y-115038380D01*
X161456142Y-114990761D01*
X161503761Y-114943142D01*
X161551380Y-114847904D01*
X161551380Y-114562190D01*
X161503761Y-114466952D01*
X161456142Y-114419333D01*
X161360904Y-114371714D01*
X161170428Y-114371714D01*
X161075190Y-114419333D01*
X160218047Y-115038380D02*
X160218047Y-114514571D01*
X160265666Y-114419333D01*
X160360904Y-114371714D01*
X160551380Y-114371714D01*
X160646619Y-114419333D01*
X160218047Y-114990761D02*
X160313285Y-115038380D01*
X160551380Y-115038380D01*
X160646619Y-114990761D01*
X160694238Y-114895523D01*
X160694238Y-114800285D01*
X160646619Y-114705047D01*
X160551380Y-114657428D01*
X160313285Y-114657428D01*
X160218047Y-114609809D01*
X159741857Y-114371714D02*
X159741857Y-115371714D01*
X159741857Y-114419333D02*
X159646619Y-114371714D01*
X159456142Y-114371714D01*
X159360904Y-114419333D01*
X159313285Y-114466952D01*
X159265666Y-114562190D01*
X159265666Y-114847904D01*
X159313285Y-114943142D01*
X159360904Y-114990761D01*
X159456142Y-115038380D01*
X159646619Y-115038380D01*
X159741857Y-114990761D01*
X158979952Y-114371714D02*
X158599000Y-114371714D01*
X158837095Y-114038380D02*
X158837095Y-114895523D01*
X158789476Y-114990761D01*
X158694238Y-115038380D01*
X158599000Y-115038380D01*
X157837095Y-115038380D02*
X157837095Y-114514571D01*
X157884714Y-114419333D01*
X157979952Y-114371714D01*
X158170428Y-114371714D01*
X158265666Y-114419333D01*
X157837095Y-114990761D02*
X157932333Y-115038380D01*
X158170428Y-115038380D01*
X158265666Y-114990761D01*
X158313285Y-114895523D01*
X158313285Y-114800285D01*
X158265666Y-114705047D01*
X158170428Y-114657428D01*
X157932333Y-114657428D01*
X157837095Y-114609809D01*
X157360904Y-115038380D02*
X157360904Y-114371714D01*
X157360904Y-114038380D02*
X157408523Y-114086000D01*
X157360904Y-114133619D01*
X157313285Y-114086000D01*
X157360904Y-114038380D01*
X157360904Y-114133619D01*
X156884714Y-114371714D02*
X156884714Y-115038380D01*
X156884714Y-114466952D02*
X156837095Y-114419333D01*
X156741857Y-114371714D01*
X156599000Y-114371714D01*
X156503761Y-114419333D01*
X156456142Y-114514571D01*
X156456142Y-115038380D01*
X155979952Y-114371714D02*
X155979952Y-115228857D01*
X156027571Y-115324095D01*
X156122809Y-115371714D01*
X156170428Y-115371714D01*
X155979952Y-114038380D02*
X156027571Y-114086000D01*
X155979952Y-114133619D01*
X155932333Y-114086000D01*
X155979952Y-114038380D01*
X155979952Y-114133619D01*
X155360904Y-115038380D02*
X155456142Y-114990761D01*
X155503761Y-114943142D01*
X155551380Y-114847904D01*
X155551380Y-114562190D01*
X155503761Y-114466952D01*
X155456142Y-114419333D01*
X155360904Y-114371714D01*
X155218047Y-114371714D01*
X155122809Y-114419333D01*
X155075190Y-114466952D01*
X155027571Y-114562190D01*
X155027571Y-114847904D01*
X155075190Y-114943142D01*
X155122809Y-114990761D01*
X155218047Y-115038380D01*
X155360904Y-115038380D01*
X154551380Y-115038380D02*
X154360904Y-115038380D01*
X154265666Y-114990761D01*
X154218047Y-114943142D01*
X154122809Y-114800285D01*
X154075190Y-114609809D01*
X154075190Y-114228857D01*
X154122809Y-114133619D01*
X154170428Y-114086000D01*
X154265666Y-114038380D01*
X154456142Y-114038380D01*
X154551380Y-114086000D01*
X154599000Y-114133619D01*
X154646619Y-114228857D01*
X154646619Y-114466952D01*
X154599000Y-114562190D01*
X154551380Y-114609809D01*
X154456142Y-114657428D01*
X154265666Y-114657428D01*
X154170428Y-114609809D01*
X154122809Y-114562190D01*
X154075190Y-114466952D01*
X153599000Y-115038380D02*
X153408523Y-115038380D01*
X153313285Y-114990761D01*
X153265666Y-114943142D01*
X153170428Y-114800285D01*
X153122809Y-114609809D01*
X153122809Y-114228857D01*
X153170428Y-114133619D01*
X153218047Y-114086000D01*
X153313285Y-114038380D01*
X153503761Y-114038380D01*
X153599000Y-114086000D01*
X153646619Y-114133619D01*
X153694238Y-114228857D01*
X153694238Y-114466952D01*
X153646619Y-114562190D01*
X153599000Y-114609809D01*
X153503761Y-114657428D01*
X153313285Y-114657428D01*
X153218047Y-114609809D01*
X153170428Y-114562190D01*
X153122809Y-114466952D01*
X151979952Y-113990761D02*
X152837095Y-115276476D01*
X151646619Y-114038380D02*
X151646619Y-114847904D01*
X151599000Y-114943142D01*
X151551380Y-114990761D01*
X151456142Y-115038380D01*
X151265666Y-115038380D01*
X151170428Y-114990761D01*
X151122809Y-114943142D01*
X151075190Y-114847904D01*
X151075190Y-114038380D01*
X150646619Y-114990761D02*
X150503761Y-115038380D01*
X150265666Y-115038380D01*
X150170428Y-114990761D01*
X150122809Y-114943142D01*
X150075190Y-114847904D01*
X150075190Y-114752666D01*
X150122809Y-114657428D01*
X150170428Y-114609809D01*
X150265666Y-114562190D01*
X150456142Y-114514571D01*
X150551380Y-114466952D01*
X150599000Y-114419333D01*
X150646619Y-114324095D01*
X150646619Y-114228857D01*
X150599000Y-114133619D01*
X150551380Y-114086000D01*
X150456142Y-114038380D01*
X150218047Y-114038380D01*
X150075190Y-114086000D01*
X149313285Y-114514571D02*
X149170428Y-114562190D01*
X149122809Y-114609809D01*
X149075190Y-114705047D01*
X149075190Y-114847904D01*
X149122809Y-114943142D01*
X149170428Y-114990761D01*
X149265666Y-115038380D01*
X149646619Y-115038380D01*
X149646619Y-114038380D01*
X149313285Y-114038380D01*
X149218047Y-114086000D01*
X149170428Y-114133619D01*
X149122809Y-114228857D01*
X149122809Y-114324095D01*
X149170428Y-114419333D01*
X149218047Y-114466952D01*
X149313285Y-114514571D01*
X149646619Y-114514571D01*
X148646619Y-114657428D02*
X147884714Y-114657428D01*
X146837095Y-115038380D02*
X147170428Y-114562190D01*
X147408523Y-115038380D02*
X147408523Y-114038380D01*
X147027571Y-114038380D01*
X146932333Y-114086000D01*
X146884714Y-114133619D01*
X146837095Y-114228857D01*
X146837095Y-114371714D01*
X146884714Y-114466952D01*
X146932333Y-114514571D01*
X147027571Y-114562190D01*
X147408523Y-114562190D01*
X146456142Y-114990761D02*
X146313285Y-115038380D01*
X146075190Y-115038380D01*
X145979952Y-114990761D01*
X145932333Y-114943142D01*
X145884714Y-114847904D01*
X145884714Y-114752666D01*
X145932333Y-114657428D01*
X145979952Y-114609809D01*
X146075190Y-114562190D01*
X146265666Y-114514571D01*
X146360904Y-114466952D01*
X146408523Y-114419333D01*
X146456142Y-114324095D01*
X146456142Y-114228857D01*
X146408523Y-114133619D01*
X146360904Y-114086000D01*
X146265666Y-114038380D01*
X146027571Y-114038380D01*
X145884714Y-114086000D01*
X145503761Y-114133619D02*
X145456142Y-114086000D01*
X145360904Y-114038380D01*
X145122809Y-114038380D01*
X145027571Y-114086000D01*
X144979952Y-114133619D01*
X144932333Y-114228857D01*
X144932333Y-114324095D01*
X144979952Y-114466952D01*
X145551380Y-115038380D01*
X144932333Y-115038380D01*
X144599000Y-114038380D02*
X143979952Y-114038380D01*
X144313285Y-114419333D01*
X144170428Y-114419333D01*
X144075190Y-114466952D01*
X144027571Y-114514571D01*
X143979952Y-114609809D01*
X143979952Y-114847904D01*
X144027571Y-114943142D01*
X144075190Y-114990761D01*
X144170428Y-115038380D01*
X144456142Y-115038380D01*
X144551380Y-114990761D01*
X144599000Y-114943142D01*
X143599000Y-114133619D02*
X143551380Y-114086000D01*
X143456142Y-114038380D01*
X143218047Y-114038380D01*
X143122809Y-114086000D01*
X143075190Y-114133619D01*
X143027571Y-114228857D01*
X143027571Y-114324095D01*
X143075190Y-114466952D01*
X143646619Y-115038380D01*
X143027571Y-115038380D01*
X171297857Y-111521428D02*
X171250238Y-111569047D01*
X171202619Y-111711904D01*
X171202619Y-111807142D01*
X171250238Y-111950000D01*
X171345476Y-112045238D01*
X171440714Y-112092857D01*
X171631190Y-112140476D01*
X171774047Y-112140476D01*
X171964523Y-112092857D01*
X172059761Y-112045238D01*
X172155000Y-111950000D01*
X172202619Y-111807142D01*
X172202619Y-111711904D01*
X172155000Y-111569047D01*
X172107380Y-111521428D01*
X171202619Y-111092857D02*
X172202619Y-111092857D01*
X171202619Y-110664285D02*
X171726428Y-110664285D01*
X171821666Y-110711904D01*
X171869285Y-110807142D01*
X171869285Y-110950000D01*
X171821666Y-111045238D01*
X171774047Y-111092857D01*
X171250238Y-109807142D02*
X171202619Y-109902380D01*
X171202619Y-110092857D01*
X171250238Y-110188095D01*
X171345476Y-110235714D01*
X171726428Y-110235714D01*
X171821666Y-110188095D01*
X171869285Y-110092857D01*
X171869285Y-109902380D01*
X171821666Y-109807142D01*
X171726428Y-109759523D01*
X171631190Y-109759523D01*
X171535952Y-110235714D01*
X171250238Y-108902380D02*
X171202619Y-108997619D01*
X171202619Y-109188095D01*
X171250238Y-109283333D01*
X171297857Y-109330952D01*
X171393095Y-109378571D01*
X171678809Y-109378571D01*
X171774047Y-109330952D01*
X171821666Y-109283333D01*
X171869285Y-109188095D01*
X171869285Y-108997619D01*
X171821666Y-108902380D01*
X171202619Y-108473809D02*
X172202619Y-108473809D01*
X171583571Y-108378571D02*
X171202619Y-108092857D01*
X171869285Y-108092857D02*
X171488333Y-108473809D01*
X171250238Y-106950000D02*
X171202619Y-106854761D01*
X171202619Y-106664285D01*
X171250238Y-106569047D01*
X171345476Y-106521428D01*
X171393095Y-106521428D01*
X171488333Y-106569047D01*
X171535952Y-106664285D01*
X171535952Y-106807142D01*
X171583571Y-106902380D01*
X171678809Y-106950000D01*
X171726428Y-106950000D01*
X171821666Y-106902380D01*
X171869285Y-106807142D01*
X171869285Y-106664285D01*
X171821666Y-106569047D01*
X171250238Y-105664285D02*
X171202619Y-105759523D01*
X171202619Y-105950000D01*
X171250238Y-106045238D01*
X171297857Y-106092857D01*
X171393095Y-106140476D01*
X171678809Y-106140476D01*
X171774047Y-106092857D01*
X171821666Y-106045238D01*
X171869285Y-105950000D01*
X171869285Y-105759523D01*
X171821666Y-105664285D01*
X171202619Y-105235714D02*
X172202619Y-105235714D01*
X171202619Y-104807142D02*
X171726428Y-104807142D01*
X171821666Y-104854761D01*
X171869285Y-104950000D01*
X171869285Y-105092857D01*
X171821666Y-105188095D01*
X171774047Y-105235714D01*
X171250238Y-103950000D02*
X171202619Y-104045238D01*
X171202619Y-104235714D01*
X171250238Y-104330952D01*
X171345476Y-104378571D01*
X171726428Y-104378571D01*
X171821666Y-104330952D01*
X171869285Y-104235714D01*
X171869285Y-104045238D01*
X171821666Y-103950000D01*
X171726428Y-103902380D01*
X171631190Y-103902380D01*
X171535952Y-104378571D01*
X171202619Y-103473809D02*
X171869285Y-103473809D01*
X171774047Y-103473809D02*
X171821666Y-103426190D01*
X171869285Y-103330952D01*
X171869285Y-103188095D01*
X171821666Y-103092857D01*
X171726428Y-103045238D01*
X171202619Y-103045238D01*
X171726428Y-103045238D02*
X171821666Y-102997619D01*
X171869285Y-102902380D01*
X171869285Y-102759523D01*
X171821666Y-102664285D01*
X171726428Y-102616666D01*
X171202619Y-102616666D01*
X171202619Y-101711904D02*
X171726428Y-101711904D01*
X171821666Y-101759523D01*
X171869285Y-101854761D01*
X171869285Y-102045238D01*
X171821666Y-102140476D01*
X171250238Y-101711904D02*
X171202619Y-101807142D01*
X171202619Y-102045238D01*
X171250238Y-102140476D01*
X171345476Y-102188095D01*
X171440714Y-102188095D01*
X171535952Y-102140476D01*
X171583571Y-102045238D01*
X171583571Y-101807142D01*
X171631190Y-101711904D01*
X171869285Y-101378571D02*
X171869285Y-100997619D01*
X172202619Y-101235714D02*
X171345476Y-101235714D01*
X171250238Y-101188095D01*
X171202619Y-101092857D01*
X171202619Y-100997619D01*
X171202619Y-100664285D02*
X171869285Y-100664285D01*
X172202619Y-100664285D02*
X172155000Y-100711904D01*
X172107380Y-100664285D01*
X172155000Y-100616666D01*
X172202619Y-100664285D01*
X172107380Y-100664285D01*
X171250238Y-99759523D02*
X171202619Y-99854761D01*
X171202619Y-100045238D01*
X171250238Y-100140476D01*
X171297857Y-100188095D01*
X171393095Y-100235714D01*
X171678809Y-100235714D01*
X171774047Y-100188095D01*
X171821666Y-100140476D01*
X171869285Y-100045238D01*
X171869285Y-99854761D01*
X171821666Y-99759523D01*
X169552619Y-106640476D02*
X170076428Y-106640476D01*
X170171666Y-106688095D01*
X170219285Y-106783333D01*
X170219285Y-106973809D01*
X170171666Y-107069047D01*
X169600238Y-106640476D02*
X169552619Y-106735714D01*
X169552619Y-106973809D01*
X169600238Y-107069047D01*
X169695476Y-107116666D01*
X169790714Y-107116666D01*
X169885952Y-107069047D01*
X169933571Y-106973809D01*
X169933571Y-106735714D01*
X169981190Y-106640476D01*
X170219285Y-106164285D02*
X169552619Y-106164285D01*
X170124047Y-106164285D02*
X170171666Y-106116666D01*
X170219285Y-106021428D01*
X170219285Y-105878571D01*
X170171666Y-105783333D01*
X170076428Y-105735714D01*
X169552619Y-105735714D01*
X169552619Y-104830952D02*
X170552619Y-104830952D01*
X169600238Y-104830952D02*
X169552619Y-104926190D01*
X169552619Y-105116666D01*
X169600238Y-105211904D01*
X169647857Y-105259523D01*
X169743095Y-105307142D01*
X170028809Y-105307142D01*
X170124047Y-105259523D01*
X170171666Y-105211904D01*
X170219285Y-105116666D01*
X170219285Y-104926190D01*
X170171666Y-104830952D01*
X167902619Y-111330952D02*
X168902619Y-111330952D01*
X168902619Y-110950000D01*
X168855000Y-110854761D01*
X168807380Y-110807142D01*
X168712142Y-110759523D01*
X168569285Y-110759523D01*
X168474047Y-110807142D01*
X168426428Y-110854761D01*
X168378809Y-110950000D01*
X168378809Y-111330952D01*
X167997857Y-109759523D02*
X167950238Y-109807142D01*
X167902619Y-109950000D01*
X167902619Y-110045238D01*
X167950238Y-110188095D01*
X168045476Y-110283333D01*
X168140714Y-110330952D01*
X168331190Y-110378571D01*
X168474047Y-110378571D01*
X168664523Y-110330952D01*
X168759761Y-110283333D01*
X168855000Y-110188095D01*
X168902619Y-110045238D01*
X168902619Y-109950000D01*
X168855000Y-109807142D01*
X168807380Y-109759523D01*
X168426428Y-108997619D02*
X168378809Y-108854761D01*
X168331190Y-108807142D01*
X168235952Y-108759523D01*
X168093095Y-108759523D01*
X167997857Y-108807142D01*
X167950238Y-108854761D01*
X167902619Y-108950000D01*
X167902619Y-109330952D01*
X168902619Y-109330952D01*
X168902619Y-108997619D01*
X168855000Y-108902380D01*
X168807380Y-108854761D01*
X168712142Y-108807142D01*
X168616904Y-108807142D01*
X168521666Y-108854761D01*
X168474047Y-108902380D01*
X168426428Y-108997619D01*
X168426428Y-109330952D01*
X167902619Y-107426190D02*
X167950238Y-107521428D01*
X167997857Y-107569047D01*
X168093095Y-107616666D01*
X168378809Y-107616666D01*
X168474047Y-107569047D01*
X168521666Y-107521428D01*
X168569285Y-107426190D01*
X168569285Y-107283333D01*
X168521666Y-107188095D01*
X168474047Y-107140476D01*
X168378809Y-107092857D01*
X168093095Y-107092857D01*
X167997857Y-107140476D01*
X167950238Y-107188095D01*
X167902619Y-107283333D01*
X167902619Y-107426190D01*
X168569285Y-106664285D02*
X167902619Y-106664285D01*
X168474047Y-106664285D02*
X168521666Y-106616666D01*
X168569285Y-106521428D01*
X168569285Y-106378571D01*
X168521666Y-106283333D01*
X168426428Y-106235714D01*
X167902619Y-106235714D01*
X168855000Y-104473809D02*
X168902619Y-104569047D01*
X168902619Y-104711904D01*
X168855000Y-104854761D01*
X168759761Y-104950000D01*
X168664523Y-104997619D01*
X168474047Y-105045238D01*
X168331190Y-105045238D01*
X168140714Y-104997619D01*
X168045476Y-104950000D01*
X167950238Y-104854761D01*
X167902619Y-104711904D01*
X167902619Y-104616666D01*
X167950238Y-104473809D01*
X167997857Y-104426190D01*
X168331190Y-104426190D01*
X168331190Y-104616666D01*
X167902619Y-103997619D02*
X168569285Y-103997619D01*
X168902619Y-103997619D02*
X168855000Y-104045238D01*
X168807380Y-103997619D01*
X168855000Y-103950000D01*
X168902619Y-103997619D01*
X168807380Y-103997619D01*
X168569285Y-103664285D02*
X168569285Y-103283333D01*
X168902619Y-103521428D02*
X168045476Y-103521428D01*
X167950238Y-103473809D01*
X167902619Y-103378571D01*
X167902619Y-103283333D01*
X167902619Y-102950000D02*
X168902619Y-102950000D01*
X168426428Y-102950000D02*
X168426428Y-102378571D01*
X167902619Y-102378571D02*
X168902619Y-102378571D01*
X168569285Y-101473809D02*
X167902619Y-101473809D01*
X168569285Y-101902380D02*
X168045476Y-101902380D01*
X167950238Y-101854761D01*
X167902619Y-101759523D01*
X167902619Y-101616666D01*
X167950238Y-101521428D01*
X167997857Y-101473809D01*
X167902619Y-100997619D02*
X168902619Y-100997619D01*
X168521666Y-100997619D02*
X168569285Y-100902380D01*
X168569285Y-100711904D01*
X168521666Y-100616666D01*
X168474047Y-100569047D01*
X168378809Y-100521428D01*
X168093095Y-100521428D01*
X167997857Y-100569047D01*
X167950238Y-100616666D01*
X167902619Y-100711904D01*
X167902619Y-100902380D01*
X167950238Y-100997619D01*
D11*
X141183285Y-99223285D02*
X141183285Y-99937571D01*
X141683285Y-98437571D02*
X141183285Y-99223285D01*
X140683285Y-98437571D01*
X139540428Y-98937571D02*
X139540428Y-99937571D01*
X140183285Y-98937571D02*
X140183285Y-99723285D01*
X140111857Y-99866142D01*
X139969000Y-99937571D01*
X139754714Y-99937571D01*
X139611857Y-99866142D01*
X139540428Y-99794714D01*
X138897571Y-99866142D02*
X138754714Y-99937571D01*
X138469000Y-99937571D01*
X138326142Y-99866142D01*
X138254714Y-99723285D01*
X138254714Y-99651857D01*
X138326142Y-99509000D01*
X138469000Y-99437571D01*
X138683285Y-99437571D01*
X138826142Y-99366142D01*
X138897571Y-99223285D01*
X138897571Y-99151857D01*
X138826142Y-99009000D01*
X138683285Y-98937571D01*
X138469000Y-98937571D01*
X138326142Y-99009000D01*
X136969000Y-98937571D02*
X136969000Y-99937571D01*
X137611857Y-98937571D02*
X137611857Y-99723285D01*
X137540428Y-99866142D01*
X137397571Y-99937571D01*
X137183285Y-99937571D01*
X137040428Y-99866142D01*
X136969000Y-99794714D01*
X136469000Y-98937571D02*
X135897571Y-98937571D01*
X136254714Y-99937571D02*
X136254714Y-98651857D01*
X136183285Y-98509000D01*
X136040428Y-98437571D01*
X135897571Y-98437571D01*
X135397571Y-99937571D02*
X135397571Y-98937571D01*
X135397571Y-98437571D02*
X135469000Y-98509000D01*
X135397571Y-98580428D01*
X135326142Y-98509000D01*
X135397571Y-98437571D01*
X135397571Y-98580428D01*
X134897571Y-98937571D02*
X134326142Y-98937571D01*
X134683285Y-98437571D02*
X134683285Y-99723285D01*
X134611857Y-99866142D01*
X134469000Y-99937571D01*
X134326142Y-99937571D01*
X133826142Y-99937571D02*
X133826142Y-98937571D01*
X133826142Y-98437571D02*
X133897571Y-98509000D01*
X133826142Y-98580428D01*
X133754714Y-98509000D01*
X133826142Y-98437571D01*
X133826142Y-98580428D01*
X132469000Y-98937571D02*
X132469000Y-99937571D01*
X133111857Y-98937571D02*
X133111857Y-99723285D01*
X133040428Y-99866142D01*
X132897571Y-99937571D01*
X132683285Y-99937571D01*
X132540428Y-99866142D01*
X132469000Y-99794714D01*
X131754714Y-99937571D02*
X131754714Y-98937571D01*
X131754714Y-99080428D02*
X131683285Y-99009000D01*
X131540428Y-98937571D01*
X131326142Y-98937571D01*
X131183285Y-99009000D01*
X131111857Y-99151857D01*
X131111857Y-99937571D01*
X131111857Y-99151857D02*
X131040428Y-99009000D01*
X130897571Y-98937571D01*
X130683285Y-98937571D01*
X130540428Y-99009000D01*
X130469000Y-99151857D01*
X130469000Y-99937571D01*
X140183285Y-101437571D02*
X140183285Y-102937571D01*
X140183285Y-101509000D02*
X140040428Y-101437571D01*
X139754714Y-101437571D01*
X139611857Y-101509000D01*
X139540428Y-101580428D01*
X139469000Y-101723285D01*
X139469000Y-102151857D01*
X139540428Y-102294714D01*
X139611857Y-102366142D01*
X139754714Y-102437571D01*
X140040428Y-102437571D01*
X140183285Y-102366142D01*
X138611857Y-102437571D02*
X138754714Y-102366142D01*
X138826142Y-102294714D01*
X138897571Y-102151857D01*
X138897571Y-101723285D01*
X138826142Y-101580428D01*
X138754714Y-101509000D01*
X138611857Y-101437571D01*
X138397571Y-101437571D01*
X138254714Y-101509000D01*
X138183285Y-101580428D01*
X138111857Y-101723285D01*
X138111857Y-102151857D01*
X138183285Y-102294714D01*
X138254714Y-102366142D01*
X138397571Y-102437571D01*
X138611857Y-102437571D01*
X137611857Y-101437571D02*
X137326142Y-102437571D01*
X137040428Y-101723285D01*
X136754714Y-102437571D01*
X136469000Y-101437571D01*
X135326142Y-102366142D02*
X135469000Y-102437571D01*
X135754714Y-102437571D01*
X135897571Y-102366142D01*
X135969000Y-102223285D01*
X135969000Y-101651857D01*
X135897571Y-101509000D01*
X135754714Y-101437571D01*
X135469000Y-101437571D01*
X135326142Y-101509000D01*
X135254714Y-101651857D01*
X135254714Y-101794714D01*
X135969000Y-101937571D01*
X134611857Y-102437571D02*
X134611857Y-101437571D01*
X134611857Y-101723285D02*
X134540428Y-101580428D01*
X134469000Y-101509000D01*
X134326142Y-101437571D01*
X134183285Y-101437571D01*
X133111857Y-102366142D02*
X133254714Y-102437571D01*
X133540428Y-102437571D01*
X133683285Y-102366142D01*
X133754714Y-102223285D01*
X133754714Y-101651857D01*
X133683285Y-101509000D01*
X133540428Y-101437571D01*
X133254714Y-101437571D01*
X133111857Y-101509000D01*
X133040428Y-101651857D01*
X133040428Y-101794714D01*
X133754714Y-101937571D01*
X131754714Y-102437571D02*
X131754714Y-100937571D01*
X131754714Y-102366142D02*
X131897571Y-102437571D01*
X132183285Y-102437571D01*
X132326142Y-102366142D01*
X132397571Y-102294714D01*
X132469000Y-102151857D01*
X132469000Y-101723285D01*
X132397571Y-101580428D01*
X132326142Y-101509000D01*
X132183285Y-101437571D01*
X131897571Y-101437571D01*
X131754714Y-101509000D01*
X142397571Y-103437571D02*
X142397571Y-104651857D01*
X142326142Y-104794714D01*
X142254714Y-104866142D01*
X142111857Y-104937571D01*
X141826142Y-104937571D01*
X141683285Y-104866142D01*
X141611857Y-104794714D01*
X141540428Y-104651857D01*
X141540428Y-103437571D01*
X140897571Y-104866142D02*
X140683285Y-104937571D01*
X140326142Y-104937571D01*
X140183285Y-104866142D01*
X140111857Y-104794714D01*
X140040428Y-104651857D01*
X140040428Y-104509000D01*
X140111857Y-104366142D01*
X140183285Y-104294714D01*
X140326142Y-104223285D01*
X140611857Y-104151857D01*
X140754714Y-104080428D01*
X140826142Y-104009000D01*
X140897571Y-103866142D01*
X140897571Y-103723285D01*
X140826142Y-103580428D01*
X140754714Y-103509000D01*
X140611857Y-103437571D01*
X140254714Y-103437571D01*
X140040428Y-103509000D01*
X138897571Y-104151857D02*
X138683285Y-104223285D01*
X138611857Y-104294714D01*
X138540428Y-104437571D01*
X138540428Y-104651857D01*
X138611857Y-104794714D01*
X138683285Y-104866142D01*
X138826142Y-104937571D01*
X139397571Y-104937571D01*
X139397571Y-103437571D01*
X138897571Y-103437571D01*
X138754714Y-103509000D01*
X138683285Y-103580428D01*
X138611857Y-103723285D01*
X138611857Y-103866142D01*
X138683285Y-104009000D01*
X138754714Y-104080428D01*
X138897571Y-104151857D01*
X139397571Y-104151857D01*
X137897571Y-104366142D02*
X136754714Y-104366142D01*
X135183285Y-104937571D02*
X135683285Y-104223285D01*
X136040428Y-104937571D02*
X136040428Y-103437571D01*
X135469000Y-103437571D01*
X135326142Y-103509000D01*
X135254714Y-103580428D01*
X135183285Y-103723285D01*
X135183285Y-103937571D01*
X135254714Y-104080428D01*
X135326142Y-104151857D01*
X135469000Y-104223285D01*
X136040428Y-104223285D01*
X134611857Y-104866142D02*
X134397571Y-104937571D01*
X134040428Y-104937571D01*
X133897571Y-104866142D01*
X133826142Y-104794714D01*
X133754714Y-104651857D01*
X133754714Y-104509000D01*
X133826142Y-104366142D01*
X133897571Y-104294714D01*
X134040428Y-104223285D01*
X134326142Y-104151857D01*
X134469000Y-104080428D01*
X134540428Y-104009000D01*
X134611857Y-103866142D01*
X134611857Y-103723285D01*
X134540428Y-103580428D01*
X134469000Y-103509000D01*
X134326142Y-103437571D01*
X133969000Y-103437571D01*
X133754714Y-103509000D01*
X133183285Y-103580428D02*
X133111857Y-103509000D01*
X132969000Y-103437571D01*
X132611857Y-103437571D01*
X132469000Y-103509000D01*
X132397571Y-103580428D01*
X132326142Y-103723285D01*
X132326142Y-103866142D01*
X132397571Y-104080428D01*
X133254714Y-104937571D01*
X132326142Y-104937571D01*
X131826142Y-103437571D02*
X130897571Y-103437571D01*
X131397571Y-104009000D01*
X131183285Y-104009000D01*
X131040428Y-104080428D01*
X130969000Y-104151857D01*
X130897571Y-104294714D01*
X130897571Y-104651857D01*
X130969000Y-104794714D01*
X131040428Y-104866142D01*
X131183285Y-104937571D01*
X131611857Y-104937571D01*
X131754714Y-104866142D01*
X131826142Y-104794714D01*
X130326142Y-103580428D02*
X130254714Y-103509000D01*
X130111857Y-103437571D01*
X129754714Y-103437571D01*
X129611857Y-103509000D01*
X129540428Y-103580428D01*
X129469000Y-103723285D01*
X129469000Y-103866142D01*
X129540428Y-104080428D01*
X130397571Y-104937571D01*
X129469000Y-104937571D01*
D10*
X145578000Y-106267000D02*
X145578000Y-107377000D01*
X149728000Y-107377000D02*
X149728000Y-106267000D01*
X149728000Y-98427000D02*
X149728000Y-99537000D01*
X145578000Y-98427000D02*
X145578000Y-99537000D01*
X145578000Y-107377000D02*
X149728000Y-107377000D01*
X145578000Y-98427000D02*
X149728000Y-98427000D01*
X145578000Y-106267000D02*
X144453000Y-106267000D01*
D12*
X160351000Y-101449000D02*
X158891000Y-101449000D01*
X160351000Y-104609000D02*
X158191000Y-104609000D01*
X160351000Y-104609000D02*
X160351000Y-103679000D01*
X160351000Y-101449000D02*
X160351000Y-102379000D01*
X160335000Y-97766000D02*
X160335000Y-98696000D01*
X160335000Y-100926000D02*
X160335000Y-99996000D01*
X160335000Y-100926000D02*
X158175000Y-100926000D01*
X160335000Y-97766000D02*
X158875000Y-97766000D01*
X135670733Y-109762000D02*
X136013267Y-109762000D01*
X135670733Y-108742000D02*
X136013267Y-108742000D01*
X141907733Y-108742000D02*
X142250267Y-108742000D01*
X141907733Y-109762000D02*
X142250267Y-109762000D01*
X155355733Y-106075000D02*
X155698267Y-106075000D01*
X155355733Y-107095000D02*
X155698267Y-107095000D01*
X155341733Y-105317000D02*
X155684267Y-105317000D01*
X155341733Y-104297000D02*
X155684267Y-104297000D01*
X129320733Y-108742000D02*
X129663267Y-108742000D01*
X129320733Y-109762000D02*
X129663267Y-109762000D01*
X160732000Y-107250267D02*
X160732000Y-106907733D01*
X161752000Y-107250267D02*
X161752000Y-106907733D01*
X159974000Y-107264267D02*
X159974000Y-106921733D01*
X158954000Y-107264267D02*
X158954000Y-106921733D01*
X127587000Y-99346000D02*
X120602000Y-99346000D01*
X120602000Y-99346000D02*
X120602000Y-112681000D01*
D10*
X148414904Y-107815380D02*
X148414904Y-108624904D01*
X148367285Y-108720142D01*
X148319666Y-108767761D01*
X148224428Y-108815380D01*
X148033952Y-108815380D01*
X147938714Y-108767761D01*
X147891095Y-108720142D01*
X147843476Y-108624904D01*
X147843476Y-107815380D01*
X146843476Y-108815380D02*
X147414904Y-108815380D01*
X147129190Y-108815380D02*
X147129190Y-107815380D01*
X147224428Y-107958238D01*
X147319666Y-108053476D01*
X147414904Y-108101095D01*
X162607238Y-103576619D02*
X162702476Y-103529000D01*
X162797714Y-103433761D01*
X162940571Y-103290904D01*
X163035809Y-103243285D01*
X163131047Y-103243285D01*
X163083428Y-103481380D02*
X163178666Y-103433761D01*
X163273904Y-103338523D01*
X163321523Y-103148047D01*
X163321523Y-102814714D01*
X163273904Y-102624238D01*
X163178666Y-102529000D01*
X163083428Y-102481380D01*
X162892952Y-102481380D01*
X162797714Y-102529000D01*
X162702476Y-102624238D01*
X162654857Y-102814714D01*
X162654857Y-103148047D01*
X162702476Y-103338523D01*
X162797714Y-103433761D01*
X162892952Y-103481380D01*
X163083428Y-103481380D01*
X161702476Y-103481380D02*
X162273904Y-103481380D01*
X161988190Y-103481380D02*
X161988190Y-102481380D01*
X162083428Y-102624238D01*
X162178666Y-102719476D01*
X162273904Y-102767095D01*
X162734238Y-99832619D02*
X162829476Y-99785000D01*
X162924714Y-99689761D01*
X163067571Y-99546904D01*
X163162809Y-99499285D01*
X163258047Y-99499285D01*
X163210428Y-99737380D02*
X163305666Y-99689761D01*
X163400904Y-99594523D01*
X163448523Y-99404047D01*
X163448523Y-99070714D01*
X163400904Y-98880238D01*
X163305666Y-98785000D01*
X163210428Y-98737380D01*
X163019952Y-98737380D01*
X162924714Y-98785000D01*
X162829476Y-98880238D01*
X162781857Y-99070714D01*
X162781857Y-99404047D01*
X162829476Y-99594523D01*
X162924714Y-99689761D01*
X163019952Y-99737380D01*
X163210428Y-99737380D01*
X162400904Y-98832619D02*
X162353285Y-98785000D01*
X162258047Y-98737380D01*
X162019952Y-98737380D01*
X161924714Y-98785000D01*
X161877095Y-98832619D01*
X161829476Y-98927857D01*
X161829476Y-99023095D01*
X161877095Y-99165952D01*
X162448523Y-99737380D01*
X161829476Y-99737380D01*
X135754666Y-108180380D02*
X136088000Y-107704190D01*
X136326095Y-108180380D02*
X136326095Y-107180380D01*
X135945142Y-107180380D01*
X135849904Y-107228000D01*
X135802285Y-107275619D01*
X135754666Y-107370857D01*
X135754666Y-107513714D01*
X135802285Y-107608952D01*
X135849904Y-107656571D01*
X135945142Y-107704190D01*
X136326095Y-107704190D01*
X135373714Y-107275619D02*
X135326095Y-107228000D01*
X135230857Y-107180380D01*
X134992761Y-107180380D01*
X134897523Y-107228000D01*
X134849904Y-107275619D01*
X134802285Y-107370857D01*
X134802285Y-107466095D01*
X134849904Y-107608952D01*
X135421333Y-108180380D01*
X134802285Y-108180380D01*
X142245666Y-108180380D02*
X142579000Y-107704190D01*
X142817095Y-108180380D02*
X142817095Y-107180380D01*
X142436142Y-107180380D01*
X142340904Y-107228000D01*
X142293285Y-107275619D01*
X142245666Y-107370857D01*
X142245666Y-107513714D01*
X142293285Y-107608952D01*
X142340904Y-107656571D01*
X142436142Y-107704190D01*
X142817095Y-107704190D01*
X141912333Y-107180380D02*
X141293285Y-107180380D01*
X141626619Y-107561333D01*
X141483761Y-107561333D01*
X141388523Y-107608952D01*
X141340904Y-107656571D01*
X141293285Y-107751809D01*
X141293285Y-107989904D01*
X141340904Y-108085142D01*
X141388523Y-108132761D01*
X141483761Y-108180380D01*
X141769476Y-108180380D01*
X141864714Y-108132761D01*
X141912333Y-108085142D01*
X155693666Y-108467380D02*
X156027000Y-107991190D01*
X156265095Y-108467380D02*
X156265095Y-107467380D01*
X155884142Y-107467380D01*
X155788904Y-107515000D01*
X155741285Y-107562619D01*
X155693666Y-107657857D01*
X155693666Y-107800714D01*
X155741285Y-107895952D01*
X155788904Y-107943571D01*
X155884142Y-107991190D01*
X156265095Y-107991190D01*
X154836523Y-107800714D02*
X154836523Y-108467380D01*
X155074619Y-107419761D02*
X155312714Y-108134047D01*
X154693666Y-108134047D01*
X155566666Y-103735380D02*
X155900000Y-103259190D01*
X156138095Y-103735380D02*
X156138095Y-102735380D01*
X155757142Y-102735380D01*
X155661904Y-102783000D01*
X155614285Y-102830619D01*
X155566666Y-102925857D01*
X155566666Y-103068714D01*
X155614285Y-103163952D01*
X155661904Y-103211571D01*
X155757142Y-103259190D01*
X156138095Y-103259190D01*
X154661904Y-102735380D02*
X155138095Y-102735380D01*
X155185714Y-103211571D01*
X155138095Y-103163952D01*
X155042857Y-103116333D01*
X154804761Y-103116333D01*
X154709523Y-103163952D01*
X154661904Y-103211571D01*
X154614285Y-103306809D01*
X154614285Y-103544904D01*
X154661904Y-103640142D01*
X154709523Y-103687761D01*
X154804761Y-103735380D01*
X155042857Y-103735380D01*
X155138095Y-103687761D01*
X155185714Y-103640142D01*
X129658666Y-108180380D02*
X129992000Y-107704190D01*
X130230095Y-108180380D02*
X130230095Y-107180380D01*
X129849142Y-107180380D01*
X129753904Y-107228000D01*
X129706285Y-107275619D01*
X129658666Y-107370857D01*
X129658666Y-107513714D01*
X129706285Y-107608952D01*
X129753904Y-107656571D01*
X129849142Y-107704190D01*
X130230095Y-107704190D01*
X128801523Y-107180380D02*
X128992000Y-107180380D01*
X129087238Y-107228000D01*
X129134857Y-107275619D01*
X129230095Y-107418476D01*
X129277714Y-107608952D01*
X129277714Y-107989904D01*
X129230095Y-108085142D01*
X129182476Y-108132761D01*
X129087238Y-108180380D01*
X128896761Y-108180380D01*
X128801523Y-108132761D01*
X128753904Y-108085142D01*
X128706285Y-107989904D01*
X128706285Y-107751809D01*
X128753904Y-107656571D01*
X128801523Y-107608952D01*
X128896761Y-107561333D01*
X129087238Y-107561333D01*
X129182476Y-107608952D01*
X129230095Y-107656571D01*
X129277714Y-107751809D01*
X161821380Y-109706333D02*
X161345190Y-109373000D01*
X161821380Y-109134904D02*
X160821380Y-109134904D01*
X160821380Y-109515857D01*
X160869000Y-109611095D01*
X160916619Y-109658714D01*
X161011857Y-109706333D01*
X161154714Y-109706333D01*
X161249952Y-109658714D01*
X161297571Y-109611095D01*
X161345190Y-109515857D01*
X161345190Y-109134904D01*
X160821380Y-110039666D02*
X160821380Y-110706333D01*
X161821380Y-110277761D01*
X160043380Y-109720333D02*
X159567190Y-109387000D01*
X160043380Y-109148904D02*
X159043380Y-109148904D01*
X159043380Y-109529857D01*
X159091000Y-109625095D01*
X159138619Y-109672714D01*
X159233857Y-109720333D01*
X159376714Y-109720333D01*
X159471952Y-109672714D01*
X159519571Y-109625095D01*
X159567190Y-109529857D01*
X159567190Y-109148904D01*
X159471952Y-110291761D02*
X159424333Y-110196523D01*
X159376714Y-110148904D01*
X159281476Y-110101285D01*
X159233857Y-110101285D01*
X159138619Y-110148904D01*
X159091000Y-110196523D01*
X159043380Y-110291761D01*
X159043380Y-110482238D01*
X159091000Y-110577476D01*
X159138619Y-110625095D01*
X159233857Y-110672714D01*
X159281476Y-110672714D01*
X159376714Y-110625095D01*
X159424333Y-110577476D01*
X159471952Y-110482238D01*
X159471952Y-110291761D01*
X159519571Y-110196523D01*
X159567190Y-110148904D01*
X159662428Y-110101285D01*
X159852904Y-110101285D01*
X159948142Y-110148904D01*
X159995761Y-110196523D01*
X160043380Y-110291761D01*
X160043380Y-110482238D01*
X159995761Y-110577476D01*
X159948142Y-110625095D01*
X159852904Y-110672714D01*
X159662428Y-110672714D01*
X159567190Y-110625095D01*
X159519571Y-110577476D01*
X159471952Y-110482238D01*
X124745333Y-97528380D02*
X124745333Y-98242666D01*
X124792952Y-98385523D01*
X124888190Y-98480761D01*
X125031047Y-98528380D01*
X125126285Y-98528380D01*
X124316761Y-97623619D02*
X124269142Y-97576000D01*
X124173904Y-97528380D01*
X123935809Y-97528380D01*
X123840571Y-97576000D01*
X123792952Y-97623619D01*
X123745333Y-97718857D01*
X123745333Y-97814095D01*
X123792952Y-97956952D01*
X124364380Y-98528380D01*
X123745333Y-98528380D01*
M02*
