G04 #@! TF.GenerationSoftware,KiCad,Pcbnew,5.1.5+dfsg1-2build2*
G04 #@! TF.CreationDate,2022-03-06T19:54:29+01:00*
G04 #@! TF.ProjectId,yusufitium-USB-RS232,79757375-6669-4746-9975-6d2d5553422d,rev?*
G04 #@! TF.SameCoordinates,Original*
G04 #@! TF.FileFunction,Soldermask,Top*
G04 #@! TF.FilePolarity,Negative*
%FSLAX46Y46*%
G04 Gerber Fmt 4.6, Leading zero omitted, Abs format (unit mm)*
G04 Created by KiCad (PCBNEW 5.1.5+dfsg1-2build2) date 2022-03-06 19:54:29*
%MOMM*%
%LPD*%
G04 APERTURE LIST*
%ADD10C,0.100000*%
G04 APERTURE END LIST*
D10*
G36*
X166962499Y-113048445D02*
G01*
X166999995Y-113059820D01*
X167034554Y-113078292D01*
X167064847Y-113103153D01*
X167089708Y-113133446D01*
X167108180Y-113168005D01*
X167119555Y-113205501D01*
X167124000Y-113250638D01*
X167124000Y-113889362D01*
X167119555Y-113934499D01*
X167108180Y-113971995D01*
X167089708Y-114006554D01*
X167064847Y-114036847D01*
X167034554Y-114061708D01*
X166999995Y-114080180D01*
X166962499Y-114091555D01*
X166917362Y-114096000D01*
X166178638Y-114096000D01*
X166133501Y-114091555D01*
X166096005Y-114080180D01*
X166061446Y-114061708D01*
X166031153Y-114036847D01*
X166006292Y-114006554D01*
X165987820Y-113971995D01*
X165976445Y-113934499D01*
X165972000Y-113889362D01*
X165972000Y-113250638D01*
X165976445Y-113205501D01*
X165987820Y-113168005D01*
X166006292Y-113133446D01*
X166031153Y-113103153D01*
X166061446Y-113078292D01*
X166096005Y-113059820D01*
X166133501Y-113048445D01*
X166178638Y-113044000D01*
X166917362Y-113044000D01*
X166962499Y-113048445D01*
G37*
G36*
X165212499Y-113048445D02*
G01*
X165249995Y-113059820D01*
X165284554Y-113078292D01*
X165314847Y-113103153D01*
X165339708Y-113133446D01*
X165358180Y-113168005D01*
X165369555Y-113205501D01*
X165374000Y-113250638D01*
X165374000Y-113889362D01*
X165369555Y-113934499D01*
X165358180Y-113971995D01*
X165339708Y-114006554D01*
X165314847Y-114036847D01*
X165284554Y-114061708D01*
X165249995Y-114080180D01*
X165212499Y-114091555D01*
X165167362Y-114096000D01*
X164428638Y-114096000D01*
X164383501Y-114091555D01*
X164346005Y-114080180D01*
X164311446Y-114061708D01*
X164281153Y-114036847D01*
X164256292Y-114006554D01*
X164237820Y-113971995D01*
X164226445Y-113934499D01*
X164222000Y-113889362D01*
X164222000Y-113250638D01*
X164226445Y-113205501D01*
X164237820Y-113168005D01*
X164256292Y-113133446D01*
X164281153Y-113103153D01*
X164311446Y-113078292D01*
X164346005Y-113059820D01*
X164383501Y-113048445D01*
X164428638Y-113044000D01*
X165167362Y-113044000D01*
X165212499Y-113048445D01*
G37*
G36*
X135777000Y-113378000D02*
G01*
X133875000Y-113378000D01*
X133875000Y-111476000D01*
X135777000Y-111476000D01*
X135777000Y-113378000D01*
G37*
G36*
X142000000Y-113378000D02*
G01*
X140098000Y-113378000D01*
X140098000Y-111476000D01*
X142000000Y-111476000D01*
X142000000Y-113378000D01*
G37*
G36*
X131420395Y-111512546D02*
G01*
X131593466Y-111584234D01*
X131593467Y-111584235D01*
X131749227Y-111688310D01*
X131881690Y-111820773D01*
X131902987Y-111852646D01*
X131985766Y-111976534D01*
X132057454Y-112149605D01*
X132094000Y-112333333D01*
X132094000Y-112520667D01*
X132057454Y-112704395D01*
X131985766Y-112877466D01*
X131985765Y-112877467D01*
X131881690Y-113033227D01*
X131749227Y-113165690D01*
X131745762Y-113168005D01*
X131593466Y-113269766D01*
X131420395Y-113341454D01*
X131236667Y-113378000D01*
X131049333Y-113378000D01*
X130865605Y-113341454D01*
X130692534Y-113269766D01*
X130540238Y-113168005D01*
X130536773Y-113165690D01*
X130404310Y-113033227D01*
X130300235Y-112877467D01*
X130300234Y-112877466D01*
X130228546Y-112704395D01*
X130192000Y-112520667D01*
X130192000Y-112333333D01*
X130228546Y-112149605D01*
X130300234Y-111976534D01*
X130383013Y-111852646D01*
X130404310Y-111820773D01*
X130536773Y-111688310D01*
X130692533Y-111584235D01*
X130692534Y-111584234D01*
X130865605Y-111512546D01*
X131049333Y-111476000D01*
X131236667Y-111476000D01*
X131420395Y-111512546D01*
G37*
G36*
X129554000Y-113378000D02*
G01*
X127652000Y-113378000D01*
X127652000Y-111476000D01*
X129554000Y-111476000D01*
X129554000Y-113378000D01*
G37*
G36*
X143866395Y-111512546D02*
G01*
X144039466Y-111584234D01*
X144039467Y-111584235D01*
X144195227Y-111688310D01*
X144327690Y-111820773D01*
X144348987Y-111852646D01*
X144431766Y-111976534D01*
X144503454Y-112149605D01*
X144540000Y-112333333D01*
X144540000Y-112520667D01*
X144503454Y-112704395D01*
X144431766Y-112877466D01*
X144431765Y-112877467D01*
X144327690Y-113033227D01*
X144195227Y-113165690D01*
X144191762Y-113168005D01*
X144039466Y-113269766D01*
X143866395Y-113341454D01*
X143682667Y-113378000D01*
X143495333Y-113378000D01*
X143311605Y-113341454D01*
X143138534Y-113269766D01*
X142986238Y-113168005D01*
X142982773Y-113165690D01*
X142850310Y-113033227D01*
X142746235Y-112877467D01*
X142746234Y-112877466D01*
X142674546Y-112704395D01*
X142638000Y-112520667D01*
X142638000Y-112333333D01*
X142674546Y-112149605D01*
X142746234Y-111976534D01*
X142829013Y-111852646D01*
X142850310Y-111820773D01*
X142982773Y-111688310D01*
X143138533Y-111584235D01*
X143138534Y-111584234D01*
X143311605Y-111512546D01*
X143495333Y-111476000D01*
X143682667Y-111476000D01*
X143866395Y-111512546D01*
G37*
G36*
X137643395Y-111512546D02*
G01*
X137816466Y-111584234D01*
X137816467Y-111584235D01*
X137972227Y-111688310D01*
X138104690Y-111820773D01*
X138125987Y-111852646D01*
X138208766Y-111976534D01*
X138280454Y-112149605D01*
X138317000Y-112333333D01*
X138317000Y-112520667D01*
X138280454Y-112704395D01*
X138208766Y-112877466D01*
X138208765Y-112877467D01*
X138104690Y-113033227D01*
X137972227Y-113165690D01*
X137968762Y-113168005D01*
X137816466Y-113269766D01*
X137643395Y-113341454D01*
X137459667Y-113378000D01*
X137272333Y-113378000D01*
X137088605Y-113341454D01*
X136915534Y-113269766D01*
X136763238Y-113168005D01*
X136759773Y-113165690D01*
X136627310Y-113033227D01*
X136523235Y-112877467D01*
X136523234Y-112877466D01*
X136451546Y-112704395D01*
X136415000Y-112520667D01*
X136415000Y-112333333D01*
X136451546Y-112149605D01*
X136523234Y-111976534D01*
X136606013Y-111852646D01*
X136627310Y-111820773D01*
X136759773Y-111688310D01*
X136915533Y-111584235D01*
X136915534Y-111584234D01*
X137088605Y-111512546D01*
X137272333Y-111476000D01*
X137459667Y-111476000D01*
X137643395Y-111512546D01*
G37*
G36*
X157376512Y-111530927D02*
G01*
X157525812Y-111560624D01*
X157689784Y-111628544D01*
X157837354Y-111727147D01*
X157962853Y-111852646D01*
X158061456Y-112000216D01*
X158129376Y-112164188D01*
X158164000Y-112338259D01*
X158164000Y-112515741D01*
X158129376Y-112689812D01*
X158061456Y-112853784D01*
X157962853Y-113001354D01*
X157837354Y-113126853D01*
X157689784Y-113225456D01*
X157525812Y-113293376D01*
X157376512Y-113323073D01*
X157351742Y-113328000D01*
X157174258Y-113328000D01*
X157149488Y-113323073D01*
X157000188Y-113293376D01*
X156836216Y-113225456D01*
X156688646Y-113126853D01*
X156563147Y-113001354D01*
X156464544Y-112853784D01*
X156396624Y-112689812D01*
X156362000Y-112515741D01*
X156362000Y-112338259D01*
X156396624Y-112164188D01*
X156464544Y-112000216D01*
X156563147Y-111852646D01*
X156688646Y-111727147D01*
X156836216Y-111628544D01*
X157000188Y-111560624D01*
X157149488Y-111530927D01*
X157174258Y-111526000D01*
X157351742Y-111526000D01*
X157376512Y-111530927D01*
G37*
G36*
X154836512Y-111530927D02*
G01*
X154985812Y-111560624D01*
X155149784Y-111628544D01*
X155297354Y-111727147D01*
X155422853Y-111852646D01*
X155521456Y-112000216D01*
X155589376Y-112164188D01*
X155624000Y-112338259D01*
X155624000Y-112515741D01*
X155589376Y-112689812D01*
X155521456Y-112853784D01*
X155422853Y-113001354D01*
X155297354Y-113126853D01*
X155149784Y-113225456D01*
X154985812Y-113293376D01*
X154836512Y-113323073D01*
X154811742Y-113328000D01*
X154634258Y-113328000D01*
X154609488Y-113323073D01*
X154460188Y-113293376D01*
X154296216Y-113225456D01*
X154148646Y-113126853D01*
X154023147Y-113001354D01*
X153924544Y-112853784D01*
X153856624Y-112689812D01*
X153822000Y-112515741D01*
X153822000Y-112338259D01*
X153856624Y-112164188D01*
X153924544Y-112000216D01*
X154023147Y-111852646D01*
X154148646Y-111727147D01*
X154296216Y-111628544D01*
X154460188Y-111560624D01*
X154609488Y-111530927D01*
X154634258Y-111526000D01*
X154811742Y-111526000D01*
X154836512Y-111530927D01*
G37*
G36*
X150544000Y-113328000D02*
G01*
X148742000Y-113328000D01*
X148742000Y-111526000D01*
X150544000Y-111526000D01*
X150544000Y-113328000D01*
G37*
G36*
X152296512Y-111530927D02*
G01*
X152445812Y-111560624D01*
X152609784Y-111628544D01*
X152757354Y-111727147D01*
X152882853Y-111852646D01*
X152981456Y-112000216D01*
X153049376Y-112164188D01*
X153084000Y-112338259D01*
X153084000Y-112515741D01*
X153049376Y-112689812D01*
X152981456Y-112853784D01*
X152882853Y-113001354D01*
X152757354Y-113126853D01*
X152609784Y-113225456D01*
X152445812Y-113293376D01*
X152296512Y-113323073D01*
X152271742Y-113328000D01*
X152094258Y-113328000D01*
X152069488Y-113323073D01*
X151920188Y-113293376D01*
X151756216Y-113225456D01*
X151608646Y-113126853D01*
X151483147Y-113001354D01*
X151384544Y-112853784D01*
X151316624Y-112689812D01*
X151282000Y-112515741D01*
X151282000Y-112338259D01*
X151316624Y-112164188D01*
X151384544Y-112000216D01*
X151483147Y-111852646D01*
X151608646Y-111727147D01*
X151756216Y-111628544D01*
X151920188Y-111560624D01*
X152069488Y-111530927D01*
X152094258Y-111526000D01*
X152271742Y-111526000D01*
X152296512Y-111530927D01*
G37*
G36*
X178275000Y-112210333D02*
G01*
X174693000Y-112210333D01*
X174693000Y-110261667D01*
X178275000Y-110261667D01*
X178275000Y-112210333D01*
G37*
G36*
X165226499Y-111016445D02*
G01*
X165263995Y-111027820D01*
X165298554Y-111046292D01*
X165328847Y-111071153D01*
X165353708Y-111101446D01*
X165372180Y-111136005D01*
X165383555Y-111173501D01*
X165388000Y-111218638D01*
X165388000Y-111857362D01*
X165383555Y-111902499D01*
X165372180Y-111939995D01*
X165353708Y-111974554D01*
X165328847Y-112004847D01*
X165298554Y-112029708D01*
X165263995Y-112048180D01*
X165226499Y-112059555D01*
X165181362Y-112064000D01*
X164442638Y-112064000D01*
X164397501Y-112059555D01*
X164360005Y-112048180D01*
X164325446Y-112029708D01*
X164295153Y-112004847D01*
X164270292Y-111974554D01*
X164251820Y-111939995D01*
X164240445Y-111902499D01*
X164236000Y-111857362D01*
X164236000Y-111218638D01*
X164240445Y-111173501D01*
X164251820Y-111136005D01*
X164270292Y-111101446D01*
X164295153Y-111071153D01*
X164325446Y-111046292D01*
X164360005Y-111027820D01*
X164397501Y-111016445D01*
X164442638Y-111012000D01*
X165181362Y-111012000D01*
X165226499Y-111016445D01*
G37*
G36*
X166976499Y-111016445D02*
G01*
X167013995Y-111027820D01*
X167048554Y-111046292D01*
X167078847Y-111071153D01*
X167103708Y-111101446D01*
X167122180Y-111136005D01*
X167133555Y-111173501D01*
X167138000Y-111218638D01*
X167138000Y-111857362D01*
X167133555Y-111902499D01*
X167122180Y-111939995D01*
X167103708Y-111974554D01*
X167078847Y-112004847D01*
X167048554Y-112029708D01*
X167013995Y-112048180D01*
X166976499Y-112059555D01*
X166931362Y-112064000D01*
X166192638Y-112064000D01*
X166147501Y-112059555D01*
X166110005Y-112048180D01*
X166075446Y-112029708D01*
X166045153Y-112004847D01*
X166020292Y-111974554D01*
X166001820Y-111939995D01*
X165990445Y-111902499D01*
X165986000Y-111857362D01*
X165986000Y-111218638D01*
X165990445Y-111173501D01*
X166001820Y-111136005D01*
X166020292Y-111101446D01*
X166045153Y-111071153D01*
X166075446Y-111046292D01*
X166110005Y-111027820D01*
X166147501Y-111016445D01*
X166192638Y-111012000D01*
X166931362Y-111012000D01*
X166976499Y-111016445D01*
G37*
G36*
X123786000Y-110455000D02*
G01*
X122384000Y-110455000D01*
X122384000Y-108703000D01*
X123786000Y-108703000D01*
X123786000Y-110455000D01*
G37*
G36*
X171766499Y-108920445D02*
G01*
X171803995Y-108931820D01*
X171838554Y-108950292D01*
X171868847Y-108975153D01*
X171893708Y-109005446D01*
X171912180Y-109040005D01*
X171923555Y-109077501D01*
X171928000Y-109122638D01*
X171928000Y-109861362D01*
X171923555Y-109906499D01*
X171912180Y-109943995D01*
X171893708Y-109978554D01*
X171868847Y-110008847D01*
X171838554Y-110033708D01*
X171803995Y-110052180D01*
X171766499Y-110063555D01*
X171721362Y-110068000D01*
X171082638Y-110068000D01*
X171037501Y-110063555D01*
X171000005Y-110052180D01*
X170965446Y-110033708D01*
X170935153Y-110008847D01*
X170910292Y-109978554D01*
X170891820Y-109943995D01*
X170880445Y-109906499D01*
X170876000Y-109861362D01*
X170876000Y-109122638D01*
X170880445Y-109077501D01*
X170891820Y-109040005D01*
X170910292Y-109005446D01*
X170935153Y-108975153D01*
X170965446Y-108950292D01*
X171000005Y-108931820D01*
X171037501Y-108920445D01*
X171082638Y-108916000D01*
X171721362Y-108916000D01*
X171766499Y-108920445D01*
G37*
G36*
X164273928Y-109030764D02*
G01*
X164295009Y-109037160D01*
X164314445Y-109047548D01*
X164331476Y-109061524D01*
X164345452Y-109078555D01*
X164355840Y-109097991D01*
X164362236Y-109119072D01*
X164365000Y-109147140D01*
X164365000Y-109610860D01*
X164362236Y-109638928D01*
X164355840Y-109660009D01*
X164345452Y-109679445D01*
X164331476Y-109696476D01*
X164314445Y-109710452D01*
X164295009Y-109720840D01*
X164273928Y-109727236D01*
X164245860Y-109730000D01*
X162432140Y-109730000D01*
X162404072Y-109727236D01*
X162382991Y-109720840D01*
X162363555Y-109710452D01*
X162346524Y-109696476D01*
X162332548Y-109679445D01*
X162322160Y-109660009D01*
X162315764Y-109638928D01*
X162313000Y-109610860D01*
X162313000Y-109147140D01*
X162315764Y-109119072D01*
X162322160Y-109097991D01*
X162332548Y-109078555D01*
X162346524Y-109061524D01*
X162363555Y-109047548D01*
X162382991Y-109037160D01*
X162404072Y-109030764D01*
X162432140Y-109028000D01*
X164245860Y-109028000D01*
X164273928Y-109030764D01*
G37*
G36*
X169223928Y-109030764D02*
G01*
X169245009Y-109037160D01*
X169264445Y-109047548D01*
X169281476Y-109061524D01*
X169295452Y-109078555D01*
X169305840Y-109097991D01*
X169312236Y-109119072D01*
X169315000Y-109147140D01*
X169315000Y-109610860D01*
X169312236Y-109638928D01*
X169305840Y-109660009D01*
X169295452Y-109679445D01*
X169281476Y-109696476D01*
X169264445Y-109710452D01*
X169245009Y-109720840D01*
X169223928Y-109727236D01*
X169195860Y-109730000D01*
X167382140Y-109730000D01*
X167354072Y-109727236D01*
X167332991Y-109720840D01*
X167313555Y-109710452D01*
X167296524Y-109696476D01*
X167282548Y-109679445D01*
X167272160Y-109660009D01*
X167265764Y-109638928D01*
X167263000Y-109610860D01*
X167263000Y-109147140D01*
X167265764Y-109119072D01*
X167272160Y-109097991D01*
X167282548Y-109078555D01*
X167296524Y-109061524D01*
X167313555Y-109047548D01*
X167332991Y-109037160D01*
X167354072Y-109030764D01*
X167382140Y-109028000D01*
X169195860Y-109028000D01*
X169223928Y-109030764D01*
G37*
G36*
X126486000Y-109455000D02*
G01*
X124834000Y-109455000D01*
X124834000Y-107928000D01*
X124879001Y-107928000D01*
X124903387Y-107925598D01*
X124926836Y-107918485D01*
X124948447Y-107906934D01*
X124967389Y-107891389D01*
X124982934Y-107872447D01*
X124994485Y-107850836D01*
X125001598Y-107827387D01*
X125004000Y-107803001D01*
X125004000Y-104604999D01*
X125001598Y-104580613D01*
X124994485Y-104557164D01*
X124982934Y-104535553D01*
X124967389Y-104516611D01*
X124948447Y-104501066D01*
X124926836Y-104489515D01*
X124903387Y-104482402D01*
X124879001Y-104480000D01*
X124834000Y-104480000D01*
X124834000Y-102953000D01*
X126486000Y-102953000D01*
X126486000Y-109455000D01*
G37*
G36*
X178275000Y-109440333D02*
G01*
X174693000Y-109440333D01*
X174693000Y-107491667D01*
X178275000Y-107491667D01*
X178275000Y-109440333D01*
G37*
G36*
X164273928Y-107760764D02*
G01*
X164295009Y-107767160D01*
X164314445Y-107777548D01*
X164331476Y-107791524D01*
X164345452Y-107808555D01*
X164355840Y-107827991D01*
X164362236Y-107849072D01*
X164365000Y-107877140D01*
X164365000Y-108340860D01*
X164362236Y-108368928D01*
X164355840Y-108390009D01*
X164345452Y-108409445D01*
X164331476Y-108426476D01*
X164314445Y-108440452D01*
X164295009Y-108450840D01*
X164273928Y-108457236D01*
X164245860Y-108460000D01*
X162432140Y-108460000D01*
X162404072Y-108457236D01*
X162382991Y-108450840D01*
X162363555Y-108440452D01*
X162346524Y-108426476D01*
X162332548Y-108409445D01*
X162322160Y-108390009D01*
X162315764Y-108368928D01*
X162313000Y-108340860D01*
X162313000Y-107877140D01*
X162315764Y-107849072D01*
X162322160Y-107827991D01*
X162332548Y-107808555D01*
X162346524Y-107791524D01*
X162363555Y-107777548D01*
X162382991Y-107767160D01*
X162404072Y-107760764D01*
X162432140Y-107758000D01*
X164245860Y-107758000D01*
X164273928Y-107760764D01*
G37*
G36*
X169223928Y-107760764D02*
G01*
X169245009Y-107767160D01*
X169264445Y-107777548D01*
X169281476Y-107791524D01*
X169295452Y-107808555D01*
X169305840Y-107827991D01*
X169312236Y-107849072D01*
X169315000Y-107877140D01*
X169315000Y-108340860D01*
X169312236Y-108368928D01*
X169305840Y-108390009D01*
X169295452Y-108409445D01*
X169281476Y-108426476D01*
X169264445Y-108440452D01*
X169245009Y-108450840D01*
X169223928Y-108457236D01*
X169195860Y-108460000D01*
X167382140Y-108460000D01*
X167354072Y-108457236D01*
X167332991Y-108450840D01*
X167313555Y-108440452D01*
X167296524Y-108426476D01*
X167282548Y-108409445D01*
X167272160Y-108390009D01*
X167265764Y-108368928D01*
X167263000Y-108340860D01*
X167263000Y-107877140D01*
X167265764Y-107849072D01*
X167272160Y-107827991D01*
X167282548Y-107808555D01*
X167296524Y-107791524D01*
X167313555Y-107777548D01*
X167332991Y-107767160D01*
X167354072Y-107760764D01*
X167382140Y-107758000D01*
X169195860Y-107758000D01*
X169223928Y-107760764D01*
G37*
G36*
X171766499Y-107170445D02*
G01*
X171803995Y-107181820D01*
X171838554Y-107200292D01*
X171868847Y-107225153D01*
X171893708Y-107255446D01*
X171912180Y-107290005D01*
X171923555Y-107327501D01*
X171928000Y-107372638D01*
X171928000Y-108111362D01*
X171923555Y-108156499D01*
X171912180Y-108193995D01*
X171893708Y-108228554D01*
X171868847Y-108258847D01*
X171838554Y-108283708D01*
X171803995Y-108302180D01*
X171766499Y-108313555D01*
X171721362Y-108318000D01*
X171082638Y-108318000D01*
X171037501Y-108313555D01*
X171000005Y-108302180D01*
X170965446Y-108283708D01*
X170935153Y-108258847D01*
X170910292Y-108228554D01*
X170891820Y-108193995D01*
X170880445Y-108156499D01*
X170876000Y-108111362D01*
X170876000Y-107372638D01*
X170880445Y-107327501D01*
X170891820Y-107290005D01*
X170910292Y-107255446D01*
X170935153Y-107225153D01*
X170965446Y-107200292D01*
X171000005Y-107181820D01*
X171037501Y-107170445D01*
X171082638Y-107166000D01*
X171721362Y-107166000D01*
X171766499Y-107170445D01*
G37*
G36*
X124086000Y-108305000D02*
G01*
X122084000Y-108305000D01*
X122084000Y-107203000D01*
X124086000Y-107203000D01*
X124086000Y-108305000D01*
G37*
G36*
X152179000Y-107403000D02*
G01*
X150327000Y-107403000D01*
X150327000Y-98401000D01*
X152179000Y-98401000D01*
X152179000Y-107403000D01*
G37*
G36*
X144979000Y-107403000D02*
G01*
X143127000Y-107403000D01*
X143127000Y-98401000D01*
X144979000Y-98401000D01*
X144979000Y-107403000D01*
G37*
G36*
X164273928Y-106490764D02*
G01*
X164295009Y-106497160D01*
X164314445Y-106507548D01*
X164331476Y-106521524D01*
X164345452Y-106538555D01*
X164355840Y-106557991D01*
X164362236Y-106579072D01*
X164365000Y-106607140D01*
X164365000Y-107070860D01*
X164362236Y-107098928D01*
X164355840Y-107120009D01*
X164345452Y-107139445D01*
X164331476Y-107156476D01*
X164314445Y-107170452D01*
X164295009Y-107180840D01*
X164273928Y-107187236D01*
X164245860Y-107190000D01*
X162432140Y-107190000D01*
X162404072Y-107187236D01*
X162382991Y-107180840D01*
X162363555Y-107170452D01*
X162346524Y-107156476D01*
X162332548Y-107139445D01*
X162322160Y-107120009D01*
X162315764Y-107098928D01*
X162313000Y-107070860D01*
X162313000Y-106607140D01*
X162315764Y-106579072D01*
X162322160Y-106557991D01*
X162332548Y-106538555D01*
X162346524Y-106521524D01*
X162363555Y-106507548D01*
X162382991Y-106497160D01*
X162404072Y-106490764D01*
X162432140Y-106488000D01*
X164245860Y-106488000D01*
X164273928Y-106490764D01*
G37*
G36*
X169223928Y-106490764D02*
G01*
X169245009Y-106497160D01*
X169264445Y-106507548D01*
X169281476Y-106521524D01*
X169295452Y-106538555D01*
X169305840Y-106557991D01*
X169312236Y-106579072D01*
X169315000Y-106607140D01*
X169315000Y-107070860D01*
X169312236Y-107098928D01*
X169305840Y-107120009D01*
X169295452Y-107139445D01*
X169281476Y-107156476D01*
X169264445Y-107170452D01*
X169245009Y-107180840D01*
X169223928Y-107187236D01*
X169195860Y-107190000D01*
X167382140Y-107190000D01*
X167354072Y-107187236D01*
X167332991Y-107180840D01*
X167313555Y-107170452D01*
X167296524Y-107156476D01*
X167282548Y-107139445D01*
X167272160Y-107120009D01*
X167265764Y-107098928D01*
X167263000Y-107070860D01*
X167263000Y-106607140D01*
X167265764Y-106579072D01*
X167272160Y-106557991D01*
X167282548Y-106538555D01*
X167296524Y-106521524D01*
X167313555Y-106507548D01*
X167332991Y-106497160D01*
X167354072Y-106490764D01*
X167382140Y-106488000D01*
X169195860Y-106488000D01*
X169223928Y-106490764D01*
G37*
G36*
X155066499Y-106063445D02*
G01*
X155103995Y-106074820D01*
X155138554Y-106093292D01*
X155168847Y-106118153D01*
X155193708Y-106148446D01*
X155212180Y-106183005D01*
X155223555Y-106220501D01*
X155228000Y-106265638D01*
X155228000Y-106904362D01*
X155223555Y-106949499D01*
X155212180Y-106986995D01*
X155193708Y-107021554D01*
X155168847Y-107051847D01*
X155138554Y-107076708D01*
X155103995Y-107095180D01*
X155066499Y-107106555D01*
X155021362Y-107111000D01*
X154282638Y-107111000D01*
X154237501Y-107106555D01*
X154200005Y-107095180D01*
X154165446Y-107076708D01*
X154135153Y-107051847D01*
X154110292Y-107021554D01*
X154091820Y-106986995D01*
X154080445Y-106949499D01*
X154076000Y-106904362D01*
X154076000Y-106265638D01*
X154080445Y-106220501D01*
X154091820Y-106183005D01*
X154110292Y-106148446D01*
X154135153Y-106118153D01*
X154165446Y-106093292D01*
X154200005Y-106074820D01*
X154237501Y-106063445D01*
X154282638Y-106059000D01*
X155021362Y-106059000D01*
X155066499Y-106063445D01*
G37*
G36*
X156816499Y-106063445D02*
G01*
X156853995Y-106074820D01*
X156888554Y-106093292D01*
X156918847Y-106118153D01*
X156943708Y-106148446D01*
X156962180Y-106183005D01*
X156973555Y-106220501D01*
X156978000Y-106265638D01*
X156978000Y-106904362D01*
X156973555Y-106949499D01*
X156962180Y-106986995D01*
X156943708Y-107021554D01*
X156918847Y-107051847D01*
X156888554Y-107076708D01*
X156853995Y-107095180D01*
X156816499Y-107106555D01*
X156771362Y-107111000D01*
X156032638Y-107111000D01*
X155987501Y-107106555D01*
X155950005Y-107095180D01*
X155915446Y-107076708D01*
X155885153Y-107051847D01*
X155860292Y-107021554D01*
X155841820Y-106986995D01*
X155830445Y-106949499D01*
X155826000Y-106904362D01*
X155826000Y-106265638D01*
X155830445Y-106220501D01*
X155841820Y-106183005D01*
X155860292Y-106148446D01*
X155885153Y-106118153D01*
X155915446Y-106093292D01*
X155950005Y-106074820D01*
X155987501Y-106063445D01*
X156032638Y-106059000D01*
X156771362Y-106059000D01*
X156816499Y-106063445D01*
G37*
G36*
X178275000Y-106670333D02*
G01*
X174693000Y-106670333D01*
X174693000Y-104721667D01*
X178275000Y-104721667D01*
X178275000Y-106670333D01*
G37*
G36*
X132269499Y-105491445D02*
G01*
X132306995Y-105502820D01*
X132341554Y-105521292D01*
X132371847Y-105546153D01*
X132396708Y-105576446D01*
X132415180Y-105611005D01*
X132426555Y-105648501D01*
X132431000Y-105693638D01*
X132431000Y-106432362D01*
X132426555Y-106477499D01*
X132415180Y-106514995D01*
X132396708Y-106549554D01*
X132371847Y-106579847D01*
X132341554Y-106604708D01*
X132306995Y-106623180D01*
X132269499Y-106634555D01*
X132224362Y-106639000D01*
X131585638Y-106639000D01*
X131540501Y-106634555D01*
X131503005Y-106623180D01*
X131468446Y-106604708D01*
X131438153Y-106579847D01*
X131413292Y-106549554D01*
X131394820Y-106514995D01*
X131383445Y-106477499D01*
X131379000Y-106432362D01*
X131379000Y-105693638D01*
X131383445Y-105648501D01*
X131394820Y-105611005D01*
X131413292Y-105576446D01*
X131438153Y-105546153D01*
X131468446Y-105521292D01*
X131503005Y-105502820D01*
X131540501Y-105491445D01*
X131585638Y-105487000D01*
X132224362Y-105487000D01*
X132269499Y-105491445D01*
G37*
G36*
X130237499Y-105491445D02*
G01*
X130274995Y-105502820D01*
X130309554Y-105521292D01*
X130339847Y-105546153D01*
X130364708Y-105576446D01*
X130383180Y-105611005D01*
X130394555Y-105648501D01*
X130399000Y-105693638D01*
X130399000Y-106432362D01*
X130394555Y-106477499D01*
X130383180Y-106514995D01*
X130364708Y-106549554D01*
X130339847Y-106579847D01*
X130309554Y-106604708D01*
X130274995Y-106623180D01*
X130237499Y-106634555D01*
X130192362Y-106639000D01*
X129553638Y-106639000D01*
X129508501Y-106634555D01*
X129471005Y-106623180D01*
X129436446Y-106604708D01*
X129406153Y-106579847D01*
X129381292Y-106549554D01*
X129362820Y-106514995D01*
X129351445Y-106477499D01*
X129347000Y-106432362D01*
X129347000Y-105693638D01*
X129351445Y-105648501D01*
X129362820Y-105611005D01*
X129381292Y-105576446D01*
X129406153Y-105546153D01*
X129436446Y-105521292D01*
X129471005Y-105502820D01*
X129508501Y-105491445D01*
X129553638Y-105487000D01*
X130192362Y-105487000D01*
X130237499Y-105491445D01*
G37*
G36*
X159003499Y-105555445D02*
G01*
X159040995Y-105566820D01*
X159075554Y-105585292D01*
X159105847Y-105610153D01*
X159130708Y-105640446D01*
X159149180Y-105675005D01*
X159160555Y-105712501D01*
X159165000Y-105757638D01*
X159165000Y-106396362D01*
X159160555Y-106441499D01*
X159149180Y-106478995D01*
X159130708Y-106513554D01*
X159105847Y-106543847D01*
X159075554Y-106568708D01*
X159040995Y-106587180D01*
X159003499Y-106598555D01*
X158958362Y-106603000D01*
X158219638Y-106603000D01*
X158174501Y-106598555D01*
X158137005Y-106587180D01*
X158102446Y-106568708D01*
X158072153Y-106543847D01*
X158047292Y-106513554D01*
X158028820Y-106478995D01*
X158017445Y-106441499D01*
X158013000Y-106396362D01*
X158013000Y-105757638D01*
X158017445Y-105712501D01*
X158028820Y-105675005D01*
X158047292Y-105640446D01*
X158072153Y-105610153D01*
X158102446Y-105585292D01*
X158137005Y-105566820D01*
X158174501Y-105555445D01*
X158219638Y-105551000D01*
X158958362Y-105551000D01*
X159003499Y-105555445D01*
G37*
G36*
X160753499Y-105555445D02*
G01*
X160790995Y-105566820D01*
X160825554Y-105585292D01*
X160855847Y-105610153D01*
X160880708Y-105640446D01*
X160899180Y-105675005D01*
X160910555Y-105712501D01*
X160915000Y-105757638D01*
X160915000Y-106396362D01*
X160910555Y-106441499D01*
X160899180Y-106478995D01*
X160880708Y-106513554D01*
X160855847Y-106543847D01*
X160825554Y-106568708D01*
X160790995Y-106587180D01*
X160753499Y-106598555D01*
X160708362Y-106603000D01*
X159969638Y-106603000D01*
X159924501Y-106598555D01*
X159887005Y-106587180D01*
X159852446Y-106568708D01*
X159822153Y-106543847D01*
X159797292Y-106513554D01*
X159778820Y-106478995D01*
X159767445Y-106441499D01*
X159763000Y-106396362D01*
X159763000Y-105757638D01*
X159767445Y-105712501D01*
X159778820Y-105675005D01*
X159797292Y-105640446D01*
X159822153Y-105610153D01*
X159852446Y-105585292D01*
X159887005Y-105566820D01*
X159924501Y-105555445D01*
X159969638Y-105551000D01*
X160708362Y-105551000D01*
X160753499Y-105555445D01*
G37*
G36*
X139381499Y-105378445D02*
G01*
X139418995Y-105389820D01*
X139453554Y-105408292D01*
X139483847Y-105433153D01*
X139508708Y-105463446D01*
X139527180Y-105498005D01*
X139538555Y-105535501D01*
X139543000Y-105580638D01*
X139543000Y-106319362D01*
X139538555Y-106364499D01*
X139527180Y-106401995D01*
X139508708Y-106436554D01*
X139483847Y-106466847D01*
X139453554Y-106491708D01*
X139418995Y-106510180D01*
X139381499Y-106521555D01*
X139336362Y-106526000D01*
X138697638Y-106526000D01*
X138652501Y-106521555D01*
X138615005Y-106510180D01*
X138580446Y-106491708D01*
X138550153Y-106466847D01*
X138525292Y-106436554D01*
X138506820Y-106401995D01*
X138495445Y-106364499D01*
X138491000Y-106319362D01*
X138491000Y-105580638D01*
X138495445Y-105535501D01*
X138506820Y-105498005D01*
X138525292Y-105463446D01*
X138550153Y-105433153D01*
X138580446Y-105408292D01*
X138615005Y-105389820D01*
X138652501Y-105378445D01*
X138697638Y-105374000D01*
X139336362Y-105374000D01*
X139381499Y-105378445D01*
G37*
G36*
X137349499Y-105378445D02*
G01*
X137386995Y-105389820D01*
X137421554Y-105408292D01*
X137451847Y-105433153D01*
X137476708Y-105463446D01*
X137495180Y-105498005D01*
X137506555Y-105535501D01*
X137511000Y-105580638D01*
X137511000Y-106319362D01*
X137506555Y-106364499D01*
X137495180Y-106401995D01*
X137476708Y-106436554D01*
X137451847Y-106466847D01*
X137421554Y-106491708D01*
X137386995Y-106510180D01*
X137349499Y-106521555D01*
X137304362Y-106526000D01*
X136665638Y-106526000D01*
X136620501Y-106521555D01*
X136583005Y-106510180D01*
X136548446Y-106491708D01*
X136518153Y-106466847D01*
X136493292Y-106436554D01*
X136474820Y-106401995D01*
X136463445Y-106364499D01*
X136459000Y-106319362D01*
X136459000Y-105580638D01*
X136463445Y-105535501D01*
X136474820Y-105498005D01*
X136493292Y-105463446D01*
X136518153Y-105433153D01*
X136548446Y-105408292D01*
X136583005Y-105389820D01*
X136620501Y-105378445D01*
X136665638Y-105374000D01*
X137304362Y-105374000D01*
X137349499Y-105378445D01*
G37*
G36*
X135317499Y-105378445D02*
G01*
X135354995Y-105389820D01*
X135389554Y-105408292D01*
X135419847Y-105433153D01*
X135444708Y-105463446D01*
X135463180Y-105498005D01*
X135474555Y-105535501D01*
X135479000Y-105580638D01*
X135479000Y-106319362D01*
X135474555Y-106364499D01*
X135463180Y-106401995D01*
X135444708Y-106436554D01*
X135419847Y-106466847D01*
X135389554Y-106491708D01*
X135354995Y-106510180D01*
X135317499Y-106521555D01*
X135272362Y-106526000D01*
X134633638Y-106526000D01*
X134588501Y-106521555D01*
X134551005Y-106510180D01*
X134516446Y-106491708D01*
X134486153Y-106466847D01*
X134461292Y-106436554D01*
X134442820Y-106401995D01*
X134431445Y-106364499D01*
X134427000Y-106319362D01*
X134427000Y-105580638D01*
X134431445Y-105535501D01*
X134442820Y-105498005D01*
X134461292Y-105463446D01*
X134486153Y-105433153D01*
X134516446Y-105408292D01*
X134551005Y-105389820D01*
X134588501Y-105378445D01*
X134633638Y-105374000D01*
X135272362Y-105374000D01*
X135317499Y-105378445D01*
G37*
G36*
X171766499Y-105223445D02*
G01*
X171803995Y-105234820D01*
X171838554Y-105253292D01*
X171868847Y-105278153D01*
X171893708Y-105308446D01*
X171912180Y-105343005D01*
X171923555Y-105380501D01*
X171928000Y-105425638D01*
X171928000Y-106164362D01*
X171923555Y-106209499D01*
X171912180Y-106246995D01*
X171893708Y-106281554D01*
X171868847Y-106311847D01*
X171838554Y-106336708D01*
X171803995Y-106355180D01*
X171766499Y-106366555D01*
X171721362Y-106371000D01*
X171082638Y-106371000D01*
X171037501Y-106366555D01*
X171000005Y-106355180D01*
X170965446Y-106336708D01*
X170935153Y-106311847D01*
X170910292Y-106281554D01*
X170891820Y-106246995D01*
X170880445Y-106209499D01*
X170876000Y-106164362D01*
X170876000Y-105425638D01*
X170880445Y-105380501D01*
X170891820Y-105343005D01*
X170910292Y-105308446D01*
X170935153Y-105278153D01*
X170965446Y-105253292D01*
X171000005Y-105234820D01*
X171037501Y-105223445D01*
X171082638Y-105219000D01*
X171721362Y-105219000D01*
X171766499Y-105223445D01*
G37*
G36*
X124086000Y-106005000D02*
G01*
X122084000Y-106005000D01*
X122084000Y-104103000D01*
X124086000Y-104103000D01*
X124086000Y-106005000D01*
G37*
G36*
X169223928Y-105220764D02*
G01*
X169245009Y-105227160D01*
X169264445Y-105237548D01*
X169281476Y-105251524D01*
X169295452Y-105268555D01*
X169305840Y-105287991D01*
X169312236Y-105309072D01*
X169315000Y-105337140D01*
X169315000Y-105800860D01*
X169312236Y-105828928D01*
X169305840Y-105850009D01*
X169295452Y-105869445D01*
X169281476Y-105886476D01*
X169264445Y-105900452D01*
X169245009Y-105910840D01*
X169223928Y-105917236D01*
X169195860Y-105920000D01*
X167382140Y-105920000D01*
X167354072Y-105917236D01*
X167332991Y-105910840D01*
X167313555Y-105900452D01*
X167296524Y-105886476D01*
X167282548Y-105869445D01*
X167272160Y-105850009D01*
X167265764Y-105828928D01*
X167263000Y-105800860D01*
X167263000Y-105337140D01*
X167265764Y-105309072D01*
X167272160Y-105287991D01*
X167282548Y-105268555D01*
X167296524Y-105251524D01*
X167313555Y-105237548D01*
X167332991Y-105227160D01*
X167354072Y-105220764D01*
X167382140Y-105218000D01*
X169195860Y-105218000D01*
X169223928Y-105220764D01*
G37*
G36*
X164273928Y-105220764D02*
G01*
X164295009Y-105227160D01*
X164314445Y-105237548D01*
X164331476Y-105251524D01*
X164345452Y-105268555D01*
X164355840Y-105287991D01*
X164362236Y-105309072D01*
X164365000Y-105337140D01*
X164365000Y-105800860D01*
X164362236Y-105828928D01*
X164355840Y-105850009D01*
X164345452Y-105869445D01*
X164331476Y-105886476D01*
X164314445Y-105900452D01*
X164295009Y-105910840D01*
X164273928Y-105917236D01*
X164245860Y-105920000D01*
X162432140Y-105920000D01*
X162404072Y-105917236D01*
X162382991Y-105910840D01*
X162363555Y-105900452D01*
X162346524Y-105886476D01*
X162332548Y-105869445D01*
X162322160Y-105850009D01*
X162315764Y-105828928D01*
X162313000Y-105800860D01*
X162313000Y-105337140D01*
X162315764Y-105309072D01*
X162322160Y-105287991D01*
X162332548Y-105268555D01*
X162346524Y-105251524D01*
X162363555Y-105237548D01*
X162382991Y-105227160D01*
X162404072Y-105220764D01*
X162432140Y-105218000D01*
X164245860Y-105218000D01*
X164273928Y-105220764D01*
G37*
G36*
X130237499Y-103741445D02*
G01*
X130274995Y-103752820D01*
X130309554Y-103771292D01*
X130339847Y-103796153D01*
X130364708Y-103826446D01*
X130383180Y-103861005D01*
X130394555Y-103898501D01*
X130399000Y-103943638D01*
X130399000Y-104682362D01*
X130394555Y-104727499D01*
X130383180Y-104764995D01*
X130364708Y-104799554D01*
X130339847Y-104829847D01*
X130309554Y-104854708D01*
X130274995Y-104873180D01*
X130237499Y-104884555D01*
X130192362Y-104889000D01*
X129553638Y-104889000D01*
X129508501Y-104884555D01*
X129471005Y-104873180D01*
X129436446Y-104854708D01*
X129406153Y-104829847D01*
X129381292Y-104799554D01*
X129362820Y-104764995D01*
X129351445Y-104727499D01*
X129347000Y-104682362D01*
X129347000Y-103943638D01*
X129351445Y-103898501D01*
X129362820Y-103861005D01*
X129381292Y-103826446D01*
X129406153Y-103796153D01*
X129436446Y-103771292D01*
X129471005Y-103752820D01*
X129508501Y-103741445D01*
X129553638Y-103737000D01*
X130192362Y-103737000D01*
X130237499Y-103741445D01*
G37*
G36*
X132269499Y-103741445D02*
G01*
X132306995Y-103752820D01*
X132341554Y-103771292D01*
X132371847Y-103796153D01*
X132396708Y-103826446D01*
X132415180Y-103861005D01*
X132426555Y-103898501D01*
X132431000Y-103943638D01*
X132431000Y-104682362D01*
X132426555Y-104727499D01*
X132415180Y-104764995D01*
X132396708Y-104799554D01*
X132371847Y-104829847D01*
X132341554Y-104854708D01*
X132306995Y-104873180D01*
X132269499Y-104884555D01*
X132224362Y-104889000D01*
X131585638Y-104889000D01*
X131540501Y-104884555D01*
X131503005Y-104873180D01*
X131468446Y-104854708D01*
X131438153Y-104829847D01*
X131413292Y-104799554D01*
X131394820Y-104764995D01*
X131383445Y-104727499D01*
X131379000Y-104682362D01*
X131379000Y-103943638D01*
X131383445Y-103898501D01*
X131394820Y-103861005D01*
X131413292Y-103826446D01*
X131438153Y-103796153D01*
X131468446Y-103771292D01*
X131503005Y-103752820D01*
X131540501Y-103741445D01*
X131585638Y-103737000D01*
X132224362Y-103737000D01*
X132269499Y-103741445D01*
G37*
G36*
X159003499Y-103777445D02*
G01*
X159040995Y-103788820D01*
X159075554Y-103807292D01*
X159105847Y-103832153D01*
X159130708Y-103862446D01*
X159149180Y-103897005D01*
X159160555Y-103934501D01*
X159165000Y-103979638D01*
X159165000Y-104618362D01*
X159160555Y-104663499D01*
X159149180Y-104700995D01*
X159130708Y-104735554D01*
X159105847Y-104765847D01*
X159075554Y-104790708D01*
X159040995Y-104809180D01*
X159003499Y-104820555D01*
X158958362Y-104825000D01*
X158219638Y-104825000D01*
X158174501Y-104820555D01*
X158137005Y-104809180D01*
X158102446Y-104790708D01*
X158072153Y-104765847D01*
X158047292Y-104735554D01*
X158028820Y-104700995D01*
X158017445Y-104663499D01*
X158013000Y-104618362D01*
X158013000Y-103979638D01*
X158017445Y-103934501D01*
X158028820Y-103897005D01*
X158047292Y-103862446D01*
X158072153Y-103832153D01*
X158102446Y-103807292D01*
X158137005Y-103788820D01*
X158174501Y-103777445D01*
X158219638Y-103773000D01*
X158958362Y-103773000D01*
X159003499Y-103777445D01*
G37*
G36*
X160753499Y-103777445D02*
G01*
X160790995Y-103788820D01*
X160825554Y-103807292D01*
X160855847Y-103832153D01*
X160880708Y-103862446D01*
X160899180Y-103897005D01*
X160910555Y-103934501D01*
X160915000Y-103979638D01*
X160915000Y-104618362D01*
X160910555Y-104663499D01*
X160899180Y-104700995D01*
X160880708Y-104735554D01*
X160855847Y-104765847D01*
X160825554Y-104790708D01*
X160790995Y-104809180D01*
X160753499Y-104820555D01*
X160708362Y-104825000D01*
X159969638Y-104825000D01*
X159924501Y-104820555D01*
X159887005Y-104809180D01*
X159852446Y-104790708D01*
X159822153Y-104765847D01*
X159797292Y-104735554D01*
X159778820Y-104700995D01*
X159767445Y-104663499D01*
X159763000Y-104618362D01*
X159763000Y-103979638D01*
X159767445Y-103934501D01*
X159778820Y-103897005D01*
X159797292Y-103862446D01*
X159822153Y-103832153D01*
X159852446Y-103807292D01*
X159887005Y-103788820D01*
X159924501Y-103777445D01*
X159969638Y-103773000D01*
X160708362Y-103773000D01*
X160753499Y-103777445D01*
G37*
G36*
X139381499Y-103628445D02*
G01*
X139418995Y-103639820D01*
X139453554Y-103658292D01*
X139483847Y-103683153D01*
X139508708Y-103713446D01*
X139527180Y-103748005D01*
X139538555Y-103785501D01*
X139543000Y-103830638D01*
X139543000Y-104569362D01*
X139538555Y-104614499D01*
X139527180Y-104651995D01*
X139508708Y-104686554D01*
X139483847Y-104716847D01*
X139453554Y-104741708D01*
X139418995Y-104760180D01*
X139381499Y-104771555D01*
X139336362Y-104776000D01*
X138697638Y-104776000D01*
X138652501Y-104771555D01*
X138615005Y-104760180D01*
X138580446Y-104741708D01*
X138550153Y-104716847D01*
X138525292Y-104686554D01*
X138506820Y-104651995D01*
X138495445Y-104614499D01*
X138491000Y-104569362D01*
X138491000Y-103830638D01*
X138495445Y-103785501D01*
X138506820Y-103748005D01*
X138525292Y-103713446D01*
X138550153Y-103683153D01*
X138580446Y-103658292D01*
X138615005Y-103639820D01*
X138652501Y-103628445D01*
X138697638Y-103624000D01*
X139336362Y-103624000D01*
X139381499Y-103628445D01*
G37*
G36*
X137349499Y-103628445D02*
G01*
X137386995Y-103639820D01*
X137421554Y-103658292D01*
X137451847Y-103683153D01*
X137476708Y-103713446D01*
X137495180Y-103748005D01*
X137506555Y-103785501D01*
X137511000Y-103830638D01*
X137511000Y-104569362D01*
X137506555Y-104614499D01*
X137495180Y-104651995D01*
X137476708Y-104686554D01*
X137451847Y-104716847D01*
X137421554Y-104741708D01*
X137386995Y-104760180D01*
X137349499Y-104771555D01*
X137304362Y-104776000D01*
X136665638Y-104776000D01*
X136620501Y-104771555D01*
X136583005Y-104760180D01*
X136548446Y-104741708D01*
X136518153Y-104716847D01*
X136493292Y-104686554D01*
X136474820Y-104651995D01*
X136463445Y-104614499D01*
X136459000Y-104569362D01*
X136459000Y-103830638D01*
X136463445Y-103785501D01*
X136474820Y-103748005D01*
X136493292Y-103713446D01*
X136518153Y-103683153D01*
X136548446Y-103658292D01*
X136583005Y-103639820D01*
X136620501Y-103628445D01*
X136665638Y-103624000D01*
X137304362Y-103624000D01*
X137349499Y-103628445D01*
G37*
G36*
X135317499Y-103628445D02*
G01*
X135354995Y-103639820D01*
X135389554Y-103658292D01*
X135419847Y-103683153D01*
X135444708Y-103713446D01*
X135463180Y-103748005D01*
X135474555Y-103785501D01*
X135479000Y-103830638D01*
X135479000Y-104569362D01*
X135474555Y-104614499D01*
X135463180Y-104651995D01*
X135444708Y-104686554D01*
X135419847Y-104716847D01*
X135389554Y-104741708D01*
X135354995Y-104760180D01*
X135317499Y-104771555D01*
X135272362Y-104776000D01*
X134633638Y-104776000D01*
X134588501Y-104771555D01*
X134551005Y-104760180D01*
X134516446Y-104741708D01*
X134486153Y-104716847D01*
X134461292Y-104686554D01*
X134442820Y-104651995D01*
X134431445Y-104614499D01*
X134427000Y-104569362D01*
X134427000Y-103830638D01*
X134431445Y-103785501D01*
X134442820Y-103748005D01*
X134461292Y-103713446D01*
X134486153Y-103683153D01*
X134516446Y-103658292D01*
X134551005Y-103639820D01*
X134588501Y-103628445D01*
X134633638Y-103624000D01*
X135272362Y-103624000D01*
X135317499Y-103628445D01*
G37*
G36*
X169223928Y-103950764D02*
G01*
X169245009Y-103957160D01*
X169264445Y-103967548D01*
X169281476Y-103981524D01*
X169295452Y-103998555D01*
X169305840Y-104017991D01*
X169312236Y-104039072D01*
X169315000Y-104067140D01*
X169315000Y-104530860D01*
X169312236Y-104558928D01*
X169305840Y-104580009D01*
X169295452Y-104599445D01*
X169281476Y-104616476D01*
X169264445Y-104630452D01*
X169245009Y-104640840D01*
X169223928Y-104647236D01*
X169195860Y-104650000D01*
X167382140Y-104650000D01*
X167354072Y-104647236D01*
X167332991Y-104640840D01*
X167313555Y-104630452D01*
X167296524Y-104616476D01*
X167282548Y-104599445D01*
X167272160Y-104580009D01*
X167265764Y-104558928D01*
X167263000Y-104530860D01*
X167263000Y-104067140D01*
X167265764Y-104039072D01*
X167272160Y-104017991D01*
X167282548Y-103998555D01*
X167296524Y-103981524D01*
X167313555Y-103967548D01*
X167332991Y-103957160D01*
X167354072Y-103950764D01*
X167382140Y-103948000D01*
X169195860Y-103948000D01*
X169223928Y-103950764D01*
G37*
G36*
X164273928Y-103950764D02*
G01*
X164295009Y-103957160D01*
X164314445Y-103967548D01*
X164331476Y-103981524D01*
X164345452Y-103998555D01*
X164355840Y-104017991D01*
X164362236Y-104039072D01*
X164365000Y-104067140D01*
X164365000Y-104530860D01*
X164362236Y-104558928D01*
X164355840Y-104580009D01*
X164345452Y-104599445D01*
X164331476Y-104616476D01*
X164314445Y-104630452D01*
X164295009Y-104640840D01*
X164273928Y-104647236D01*
X164245860Y-104650000D01*
X162432140Y-104650000D01*
X162404072Y-104647236D01*
X162382991Y-104640840D01*
X162363555Y-104630452D01*
X162346524Y-104616476D01*
X162332548Y-104599445D01*
X162322160Y-104580009D01*
X162315764Y-104558928D01*
X162313000Y-104530860D01*
X162313000Y-104067140D01*
X162315764Y-104039072D01*
X162322160Y-104017991D01*
X162332548Y-103998555D01*
X162346524Y-103981524D01*
X162363555Y-103967548D01*
X162382991Y-103957160D01*
X162404072Y-103950764D01*
X162432140Y-103948000D01*
X164245860Y-103948000D01*
X164273928Y-103950764D01*
G37*
G36*
X171766499Y-103473445D02*
G01*
X171803995Y-103484820D01*
X171838554Y-103503292D01*
X171868847Y-103528153D01*
X171893708Y-103558446D01*
X171912180Y-103593005D01*
X171923555Y-103630501D01*
X171928000Y-103675638D01*
X171928000Y-104414362D01*
X171923555Y-104459499D01*
X171912180Y-104496995D01*
X171893708Y-104531554D01*
X171868847Y-104561847D01*
X171838554Y-104586708D01*
X171803995Y-104605180D01*
X171766499Y-104616555D01*
X171721362Y-104621000D01*
X171082638Y-104621000D01*
X171037501Y-104616555D01*
X171000005Y-104605180D01*
X170965446Y-104586708D01*
X170935153Y-104561847D01*
X170910292Y-104531554D01*
X170891820Y-104496995D01*
X170880445Y-104459499D01*
X170876000Y-104414362D01*
X170876000Y-103675638D01*
X170880445Y-103630501D01*
X170891820Y-103593005D01*
X170910292Y-103558446D01*
X170935153Y-103528153D01*
X170965446Y-103503292D01*
X171000005Y-103484820D01*
X171037501Y-103473445D01*
X171082638Y-103469000D01*
X171721362Y-103469000D01*
X171766499Y-103473445D01*
G37*
G36*
X178275000Y-103900333D02*
G01*
X174693000Y-103900333D01*
X174693000Y-101951667D01*
X178275000Y-101951667D01*
X178275000Y-103900333D01*
G37*
G36*
X123786000Y-103705000D02*
G01*
X122384000Y-103705000D01*
X122384000Y-101953000D01*
X123786000Y-101953000D01*
X123786000Y-103705000D01*
G37*
G36*
X141413499Y-102443445D02*
G01*
X141450995Y-102454820D01*
X141485554Y-102473292D01*
X141515847Y-102498153D01*
X141540708Y-102528446D01*
X141559180Y-102563005D01*
X141570555Y-102600501D01*
X141575000Y-102645638D01*
X141575000Y-103384362D01*
X141570555Y-103429499D01*
X141559180Y-103466995D01*
X141540708Y-103501554D01*
X141515847Y-103531847D01*
X141485554Y-103556708D01*
X141450995Y-103575180D01*
X141413499Y-103586555D01*
X141368362Y-103591000D01*
X140729638Y-103591000D01*
X140684501Y-103586555D01*
X140647005Y-103575180D01*
X140612446Y-103556708D01*
X140582153Y-103531847D01*
X140557292Y-103501554D01*
X140538820Y-103466995D01*
X140527445Y-103429499D01*
X140523000Y-103384362D01*
X140523000Y-102645638D01*
X140527445Y-102600501D01*
X140538820Y-102563005D01*
X140557292Y-102528446D01*
X140582153Y-102498153D01*
X140612446Y-102473292D01*
X140647005Y-102454820D01*
X140684501Y-102443445D01*
X140729638Y-102439000D01*
X141368362Y-102439000D01*
X141413499Y-102443445D01*
G37*
G36*
X164273928Y-102680764D02*
G01*
X164295009Y-102687160D01*
X164314445Y-102697548D01*
X164331476Y-102711524D01*
X164345452Y-102728555D01*
X164355840Y-102747991D01*
X164362236Y-102769072D01*
X164365000Y-102797140D01*
X164365000Y-103260860D01*
X164362236Y-103288928D01*
X164355840Y-103310009D01*
X164345452Y-103329445D01*
X164331476Y-103346476D01*
X164314445Y-103360452D01*
X164295009Y-103370840D01*
X164273928Y-103377236D01*
X164245860Y-103380000D01*
X162432140Y-103380000D01*
X162404072Y-103377236D01*
X162382991Y-103370840D01*
X162363555Y-103360452D01*
X162346524Y-103346476D01*
X162332548Y-103329445D01*
X162322160Y-103310009D01*
X162315764Y-103288928D01*
X162313000Y-103260860D01*
X162313000Y-102797140D01*
X162315764Y-102769072D01*
X162322160Y-102747991D01*
X162332548Y-102728555D01*
X162346524Y-102711524D01*
X162363555Y-102697548D01*
X162382991Y-102687160D01*
X162404072Y-102680764D01*
X162432140Y-102678000D01*
X164245860Y-102678000D01*
X164273928Y-102680764D01*
G37*
G36*
X169223928Y-102680764D02*
G01*
X169245009Y-102687160D01*
X169264445Y-102697548D01*
X169281476Y-102711524D01*
X169295452Y-102728555D01*
X169305840Y-102747991D01*
X169312236Y-102769072D01*
X169315000Y-102797140D01*
X169315000Y-103260860D01*
X169312236Y-103288928D01*
X169305840Y-103310009D01*
X169295452Y-103329445D01*
X169281476Y-103346476D01*
X169264445Y-103360452D01*
X169245009Y-103370840D01*
X169223928Y-103377236D01*
X169195860Y-103380000D01*
X167382140Y-103380000D01*
X167354072Y-103377236D01*
X167332991Y-103370840D01*
X167313555Y-103360452D01*
X167296524Y-103346476D01*
X167282548Y-103329445D01*
X167272160Y-103310009D01*
X167265764Y-103288928D01*
X167263000Y-103260860D01*
X167263000Y-102797140D01*
X167265764Y-102769072D01*
X167272160Y-102747991D01*
X167282548Y-102728555D01*
X167296524Y-102711524D01*
X167313555Y-102697548D01*
X167332991Y-102687160D01*
X167354072Y-102680764D01*
X167382140Y-102678000D01*
X169195860Y-102678000D01*
X169223928Y-102680764D01*
G37*
G36*
X132269499Y-101695445D02*
G01*
X132306995Y-101706820D01*
X132341554Y-101725292D01*
X132371847Y-101750153D01*
X132396708Y-101780446D01*
X132415180Y-101815005D01*
X132426555Y-101852501D01*
X132431000Y-101897638D01*
X132431000Y-102636362D01*
X132426555Y-102681499D01*
X132415180Y-102718995D01*
X132396708Y-102753554D01*
X132371847Y-102783847D01*
X132341554Y-102808708D01*
X132306995Y-102827180D01*
X132269499Y-102838555D01*
X132224362Y-102843000D01*
X131585638Y-102843000D01*
X131540501Y-102838555D01*
X131503005Y-102827180D01*
X131468446Y-102808708D01*
X131438153Y-102783847D01*
X131413292Y-102753554D01*
X131394820Y-102718995D01*
X131383445Y-102681499D01*
X131379000Y-102636362D01*
X131379000Y-101897638D01*
X131383445Y-101852501D01*
X131394820Y-101815005D01*
X131413292Y-101780446D01*
X131438153Y-101750153D01*
X131468446Y-101725292D01*
X131503005Y-101706820D01*
X131540501Y-101695445D01*
X131585638Y-101691000D01*
X132224362Y-101691000D01*
X132269499Y-101695445D01*
G37*
G36*
X130237499Y-101681445D02*
G01*
X130274995Y-101692820D01*
X130309554Y-101711292D01*
X130339847Y-101736153D01*
X130364708Y-101766446D01*
X130383180Y-101801005D01*
X130394555Y-101838501D01*
X130399000Y-101883638D01*
X130399000Y-102622362D01*
X130394555Y-102667499D01*
X130383180Y-102704995D01*
X130364708Y-102739554D01*
X130339847Y-102769847D01*
X130309554Y-102794708D01*
X130274995Y-102813180D01*
X130237499Y-102824555D01*
X130192362Y-102829000D01*
X129553638Y-102829000D01*
X129508501Y-102824555D01*
X129471005Y-102813180D01*
X129436446Y-102794708D01*
X129406153Y-102769847D01*
X129381292Y-102739554D01*
X129362820Y-102704995D01*
X129351445Y-102667499D01*
X129347000Y-102622362D01*
X129347000Y-101883638D01*
X129351445Y-101838501D01*
X129362820Y-101801005D01*
X129381292Y-101766446D01*
X129406153Y-101736153D01*
X129436446Y-101711292D01*
X129471005Y-101692820D01*
X129508501Y-101681445D01*
X129553638Y-101677000D01*
X130192362Y-101677000D01*
X130237499Y-101681445D01*
G37*
G36*
X159003499Y-101745445D02*
G01*
X159040995Y-101756820D01*
X159075554Y-101775292D01*
X159105847Y-101800153D01*
X159130708Y-101830446D01*
X159149180Y-101865005D01*
X159160555Y-101902501D01*
X159165000Y-101947638D01*
X159165000Y-102586362D01*
X159160555Y-102631499D01*
X159149180Y-102668995D01*
X159130708Y-102703554D01*
X159105847Y-102733847D01*
X159075554Y-102758708D01*
X159040995Y-102777180D01*
X159003499Y-102788555D01*
X158958362Y-102793000D01*
X158219638Y-102793000D01*
X158174501Y-102788555D01*
X158137005Y-102777180D01*
X158102446Y-102758708D01*
X158072153Y-102733847D01*
X158047292Y-102703554D01*
X158028820Y-102668995D01*
X158017445Y-102631499D01*
X158013000Y-102586362D01*
X158013000Y-101947638D01*
X158017445Y-101902501D01*
X158028820Y-101865005D01*
X158047292Y-101830446D01*
X158072153Y-101800153D01*
X158102446Y-101775292D01*
X158137005Y-101756820D01*
X158174501Y-101745445D01*
X158219638Y-101741000D01*
X158958362Y-101741000D01*
X159003499Y-101745445D01*
G37*
G36*
X160753499Y-101745445D02*
G01*
X160790995Y-101756820D01*
X160825554Y-101775292D01*
X160855847Y-101800153D01*
X160880708Y-101830446D01*
X160899180Y-101865005D01*
X160910555Y-101902501D01*
X160915000Y-101947638D01*
X160915000Y-102586362D01*
X160910555Y-102631499D01*
X160899180Y-102668995D01*
X160880708Y-102703554D01*
X160855847Y-102733847D01*
X160825554Y-102758708D01*
X160790995Y-102777180D01*
X160753499Y-102788555D01*
X160708362Y-102793000D01*
X159969638Y-102793000D01*
X159924501Y-102788555D01*
X159887005Y-102777180D01*
X159852446Y-102758708D01*
X159822153Y-102733847D01*
X159797292Y-102703554D01*
X159778820Y-102668995D01*
X159767445Y-102631499D01*
X159763000Y-102586362D01*
X159763000Y-101947638D01*
X159767445Y-101902501D01*
X159778820Y-101865005D01*
X159797292Y-101830446D01*
X159822153Y-101800153D01*
X159852446Y-101775292D01*
X159887005Y-101756820D01*
X159924501Y-101745445D01*
X159969638Y-101741000D01*
X160708362Y-101741000D01*
X160753499Y-101745445D01*
G37*
G36*
X171766499Y-101554445D02*
G01*
X171803995Y-101565820D01*
X171838554Y-101584292D01*
X171868847Y-101609153D01*
X171893708Y-101639446D01*
X171912180Y-101674005D01*
X171923555Y-101711501D01*
X171928000Y-101756638D01*
X171928000Y-102495362D01*
X171923555Y-102540499D01*
X171912180Y-102577995D01*
X171893708Y-102612554D01*
X171868847Y-102642847D01*
X171838554Y-102667708D01*
X171803995Y-102686180D01*
X171766499Y-102697555D01*
X171721362Y-102702000D01*
X171082638Y-102702000D01*
X171037501Y-102697555D01*
X171000005Y-102686180D01*
X170965446Y-102667708D01*
X170935153Y-102642847D01*
X170910292Y-102612554D01*
X170891820Y-102577995D01*
X170880445Y-102540499D01*
X170876000Y-102495362D01*
X170876000Y-101756638D01*
X170880445Y-101711501D01*
X170891820Y-101674005D01*
X170910292Y-101639446D01*
X170935153Y-101609153D01*
X170965446Y-101584292D01*
X171000005Y-101565820D01*
X171037501Y-101554445D01*
X171082638Y-101550000D01*
X171721362Y-101550000D01*
X171766499Y-101554445D01*
G37*
G36*
X137352591Y-101491085D02*
G01*
X137386569Y-101501393D01*
X137417890Y-101518134D01*
X137445339Y-101540661D01*
X137467866Y-101568110D01*
X137484607Y-101599431D01*
X137494915Y-101633409D01*
X137499000Y-101674890D01*
X137499000Y-102351110D01*
X137494915Y-102392591D01*
X137484607Y-102426569D01*
X137467866Y-102457890D01*
X137445339Y-102485339D01*
X137417890Y-102507866D01*
X137386569Y-102524607D01*
X137352591Y-102534915D01*
X137311110Y-102539000D01*
X136709890Y-102539000D01*
X136668409Y-102534915D01*
X136634431Y-102524607D01*
X136603110Y-102507866D01*
X136575661Y-102485339D01*
X136553134Y-102457890D01*
X136536393Y-102426569D01*
X136526085Y-102392591D01*
X136522000Y-102351110D01*
X136522000Y-101674890D01*
X136526085Y-101633409D01*
X136536393Y-101599431D01*
X136553134Y-101568110D01*
X136575661Y-101540661D01*
X136603110Y-101518134D01*
X136634431Y-101501393D01*
X136668409Y-101491085D01*
X136709890Y-101487000D01*
X137311110Y-101487000D01*
X137352591Y-101491085D01*
G37*
G36*
X135777591Y-101491085D02*
G01*
X135811569Y-101501393D01*
X135842890Y-101518134D01*
X135870339Y-101540661D01*
X135892866Y-101568110D01*
X135909607Y-101599431D01*
X135919915Y-101633409D01*
X135924000Y-101674890D01*
X135924000Y-102351110D01*
X135919915Y-102392591D01*
X135909607Y-102426569D01*
X135892866Y-102457890D01*
X135870339Y-102485339D01*
X135842890Y-102507866D01*
X135811569Y-102524607D01*
X135777591Y-102534915D01*
X135736110Y-102539000D01*
X135134890Y-102539000D01*
X135093409Y-102534915D01*
X135059431Y-102524607D01*
X135028110Y-102507866D01*
X135000661Y-102485339D01*
X134978134Y-102457890D01*
X134961393Y-102426569D01*
X134951085Y-102392591D01*
X134947000Y-102351110D01*
X134947000Y-101674890D01*
X134951085Y-101633409D01*
X134961393Y-101599431D01*
X134978134Y-101568110D01*
X135000661Y-101540661D01*
X135028110Y-101518134D01*
X135059431Y-101501393D01*
X135093409Y-101491085D01*
X135134890Y-101487000D01*
X135736110Y-101487000D01*
X135777591Y-101491085D01*
G37*
G36*
X164273928Y-101410764D02*
G01*
X164295009Y-101417160D01*
X164314445Y-101427548D01*
X164331476Y-101441524D01*
X164345452Y-101458555D01*
X164355840Y-101477991D01*
X164362236Y-101499072D01*
X164365000Y-101527140D01*
X164365000Y-101990860D01*
X164362236Y-102018928D01*
X164355840Y-102040009D01*
X164345452Y-102059445D01*
X164331476Y-102076476D01*
X164314445Y-102090452D01*
X164295009Y-102100840D01*
X164273928Y-102107236D01*
X164245860Y-102110000D01*
X162432140Y-102110000D01*
X162404072Y-102107236D01*
X162382991Y-102100840D01*
X162363555Y-102090452D01*
X162346524Y-102076476D01*
X162332548Y-102059445D01*
X162322160Y-102040009D01*
X162315764Y-102018928D01*
X162313000Y-101990860D01*
X162313000Y-101527140D01*
X162315764Y-101499072D01*
X162322160Y-101477991D01*
X162332548Y-101458555D01*
X162346524Y-101441524D01*
X162363555Y-101427548D01*
X162382991Y-101417160D01*
X162404072Y-101410764D01*
X162432140Y-101408000D01*
X164245860Y-101408000D01*
X164273928Y-101410764D01*
G37*
G36*
X169223928Y-101410764D02*
G01*
X169245009Y-101417160D01*
X169264445Y-101427548D01*
X169281476Y-101441524D01*
X169295452Y-101458555D01*
X169305840Y-101477991D01*
X169312236Y-101499072D01*
X169315000Y-101527140D01*
X169315000Y-101990860D01*
X169312236Y-102018928D01*
X169305840Y-102040009D01*
X169295452Y-102059445D01*
X169281476Y-102076476D01*
X169264445Y-102090452D01*
X169245009Y-102100840D01*
X169223928Y-102107236D01*
X169195860Y-102110000D01*
X167382140Y-102110000D01*
X167354072Y-102107236D01*
X167332991Y-102100840D01*
X167313555Y-102090452D01*
X167296524Y-102076476D01*
X167282548Y-102059445D01*
X167272160Y-102040009D01*
X167265764Y-102018928D01*
X167263000Y-101990860D01*
X167263000Y-101527140D01*
X167265764Y-101499072D01*
X167272160Y-101477991D01*
X167282548Y-101458555D01*
X167296524Y-101441524D01*
X167313555Y-101427548D01*
X167332991Y-101417160D01*
X167354072Y-101410764D01*
X167382140Y-101408000D01*
X169195860Y-101408000D01*
X169223928Y-101410764D01*
G37*
G36*
X141413499Y-100693445D02*
G01*
X141450995Y-100704820D01*
X141485554Y-100723292D01*
X141515847Y-100748153D01*
X141540708Y-100778446D01*
X141559180Y-100813005D01*
X141570555Y-100850501D01*
X141575000Y-100895638D01*
X141575000Y-101634362D01*
X141570555Y-101679499D01*
X141559180Y-101716995D01*
X141540708Y-101751554D01*
X141515847Y-101781847D01*
X141485554Y-101806708D01*
X141450995Y-101825180D01*
X141413499Y-101836555D01*
X141368362Y-101841000D01*
X140729638Y-101841000D01*
X140684501Y-101836555D01*
X140647005Y-101825180D01*
X140612446Y-101806708D01*
X140582153Y-101781847D01*
X140557292Y-101751554D01*
X140538820Y-101716995D01*
X140527445Y-101679499D01*
X140523000Y-101634362D01*
X140523000Y-100895638D01*
X140527445Y-100850501D01*
X140538820Y-100813005D01*
X140557292Y-100778446D01*
X140582153Y-100748153D01*
X140612446Y-100723292D01*
X140647005Y-100704820D01*
X140684501Y-100693445D01*
X140729638Y-100689000D01*
X141368362Y-100689000D01*
X141413499Y-100693445D01*
G37*
G36*
X159003499Y-100094445D02*
G01*
X159040995Y-100105820D01*
X159075554Y-100124292D01*
X159105847Y-100149153D01*
X159130708Y-100179446D01*
X159149180Y-100214005D01*
X159160555Y-100251501D01*
X159165000Y-100296638D01*
X159165000Y-100935362D01*
X159160555Y-100980499D01*
X159149180Y-101017995D01*
X159130708Y-101052554D01*
X159105847Y-101082847D01*
X159075554Y-101107708D01*
X159040995Y-101126180D01*
X159003499Y-101137555D01*
X158958362Y-101142000D01*
X158219638Y-101142000D01*
X158174501Y-101137555D01*
X158137005Y-101126180D01*
X158102446Y-101107708D01*
X158072153Y-101082847D01*
X158047292Y-101052554D01*
X158028820Y-101017995D01*
X158017445Y-100980499D01*
X158013000Y-100935362D01*
X158013000Y-100296638D01*
X158017445Y-100251501D01*
X158028820Y-100214005D01*
X158047292Y-100179446D01*
X158072153Y-100149153D01*
X158102446Y-100124292D01*
X158137005Y-100105820D01*
X158174501Y-100094445D01*
X158219638Y-100090000D01*
X158958362Y-100090000D01*
X159003499Y-100094445D01*
G37*
G36*
X160753499Y-100094445D02*
G01*
X160790995Y-100105820D01*
X160825554Y-100124292D01*
X160855847Y-100149153D01*
X160880708Y-100179446D01*
X160899180Y-100214005D01*
X160910555Y-100251501D01*
X160915000Y-100296638D01*
X160915000Y-100935362D01*
X160910555Y-100980499D01*
X160899180Y-101017995D01*
X160880708Y-101052554D01*
X160855847Y-101082847D01*
X160825554Y-101107708D01*
X160790995Y-101126180D01*
X160753499Y-101137555D01*
X160708362Y-101142000D01*
X159969638Y-101142000D01*
X159924501Y-101137555D01*
X159887005Y-101126180D01*
X159852446Y-101107708D01*
X159822153Y-101082847D01*
X159797292Y-101052554D01*
X159778820Y-101017995D01*
X159767445Y-100980499D01*
X159763000Y-100935362D01*
X159763000Y-100296638D01*
X159767445Y-100251501D01*
X159778820Y-100214005D01*
X159797292Y-100179446D01*
X159822153Y-100149153D01*
X159852446Y-100124292D01*
X159887005Y-100105820D01*
X159924501Y-100094445D01*
X159969638Y-100090000D01*
X160708362Y-100090000D01*
X160753499Y-100094445D01*
G37*
G36*
X178275000Y-101130333D02*
G01*
X174693000Y-101130333D01*
X174693000Y-99181667D01*
X178275000Y-99181667D01*
X178275000Y-101130333D01*
G37*
G36*
X132269499Y-99945445D02*
G01*
X132306995Y-99956820D01*
X132341554Y-99975292D01*
X132371847Y-100000153D01*
X132396708Y-100030446D01*
X132415180Y-100065005D01*
X132426555Y-100102501D01*
X132431000Y-100147638D01*
X132431000Y-100886362D01*
X132426555Y-100931499D01*
X132415180Y-100968995D01*
X132396708Y-101003554D01*
X132371847Y-101033847D01*
X132341554Y-101058708D01*
X132306995Y-101077180D01*
X132269499Y-101088555D01*
X132224362Y-101093000D01*
X131585638Y-101093000D01*
X131540501Y-101088555D01*
X131503005Y-101077180D01*
X131468446Y-101058708D01*
X131438153Y-101033847D01*
X131413292Y-101003554D01*
X131394820Y-100968995D01*
X131383445Y-100931499D01*
X131379000Y-100886362D01*
X131379000Y-100147638D01*
X131383445Y-100102501D01*
X131394820Y-100065005D01*
X131413292Y-100030446D01*
X131438153Y-100000153D01*
X131468446Y-99975292D01*
X131503005Y-99956820D01*
X131540501Y-99945445D01*
X131585638Y-99941000D01*
X132224362Y-99941000D01*
X132269499Y-99945445D01*
G37*
G36*
X130237499Y-99931445D02*
G01*
X130274995Y-99942820D01*
X130309554Y-99961292D01*
X130339847Y-99986153D01*
X130364708Y-100016446D01*
X130383180Y-100051005D01*
X130394555Y-100088501D01*
X130399000Y-100133638D01*
X130399000Y-100872362D01*
X130394555Y-100917499D01*
X130383180Y-100954995D01*
X130364708Y-100989554D01*
X130339847Y-101019847D01*
X130309554Y-101044708D01*
X130274995Y-101063180D01*
X130237499Y-101074555D01*
X130192362Y-101079000D01*
X129553638Y-101079000D01*
X129508501Y-101074555D01*
X129471005Y-101063180D01*
X129436446Y-101044708D01*
X129406153Y-101019847D01*
X129381292Y-100989554D01*
X129362820Y-100954995D01*
X129351445Y-100917499D01*
X129347000Y-100872362D01*
X129347000Y-100133638D01*
X129351445Y-100088501D01*
X129362820Y-100051005D01*
X129381292Y-100016446D01*
X129406153Y-99986153D01*
X129436446Y-99961292D01*
X129471005Y-99942820D01*
X129508501Y-99931445D01*
X129553638Y-99927000D01*
X130192362Y-99927000D01*
X130237499Y-99931445D01*
G37*
G36*
X171766499Y-99804445D02*
G01*
X171803995Y-99815820D01*
X171838554Y-99834292D01*
X171868847Y-99859153D01*
X171893708Y-99889446D01*
X171912180Y-99924005D01*
X171923555Y-99961501D01*
X171928000Y-100006638D01*
X171928000Y-100745362D01*
X171923555Y-100790499D01*
X171912180Y-100827995D01*
X171893708Y-100862554D01*
X171868847Y-100892847D01*
X171838554Y-100917708D01*
X171803995Y-100936180D01*
X171766499Y-100947555D01*
X171721362Y-100952000D01*
X171082638Y-100952000D01*
X171037501Y-100947555D01*
X171000005Y-100936180D01*
X170965446Y-100917708D01*
X170935153Y-100892847D01*
X170910292Y-100862554D01*
X170891820Y-100827995D01*
X170880445Y-100790499D01*
X170876000Y-100745362D01*
X170876000Y-100006638D01*
X170880445Y-99961501D01*
X170891820Y-99924005D01*
X170910292Y-99889446D01*
X170935153Y-99859153D01*
X170965446Y-99834292D01*
X171000005Y-99815820D01*
X171037501Y-99804445D01*
X171082638Y-99800000D01*
X171721362Y-99800000D01*
X171766499Y-99804445D01*
G37*
G36*
X164273928Y-100140764D02*
G01*
X164295009Y-100147160D01*
X164314445Y-100157548D01*
X164331476Y-100171524D01*
X164345452Y-100188555D01*
X164355840Y-100207991D01*
X164362236Y-100229072D01*
X164365000Y-100257140D01*
X164365000Y-100720860D01*
X164362236Y-100748928D01*
X164355840Y-100770009D01*
X164345452Y-100789445D01*
X164331476Y-100806476D01*
X164314445Y-100820452D01*
X164295009Y-100830840D01*
X164273928Y-100837236D01*
X164245860Y-100840000D01*
X162432140Y-100840000D01*
X162404072Y-100837236D01*
X162382991Y-100830840D01*
X162363555Y-100820452D01*
X162346524Y-100806476D01*
X162332548Y-100789445D01*
X162322160Y-100770009D01*
X162315764Y-100748928D01*
X162313000Y-100720860D01*
X162313000Y-100257140D01*
X162315764Y-100229072D01*
X162322160Y-100207991D01*
X162332548Y-100188555D01*
X162346524Y-100171524D01*
X162363555Y-100157548D01*
X162382991Y-100147160D01*
X162404072Y-100140764D01*
X162432140Y-100138000D01*
X164245860Y-100138000D01*
X164273928Y-100140764D01*
G37*
G36*
X169223928Y-100140764D02*
G01*
X169245009Y-100147160D01*
X169264445Y-100157548D01*
X169281476Y-100171524D01*
X169295452Y-100188555D01*
X169305840Y-100207991D01*
X169312236Y-100229072D01*
X169315000Y-100257140D01*
X169315000Y-100720860D01*
X169312236Y-100748928D01*
X169305840Y-100770009D01*
X169295452Y-100789445D01*
X169281476Y-100806476D01*
X169264445Y-100820452D01*
X169245009Y-100830840D01*
X169223928Y-100837236D01*
X169195860Y-100840000D01*
X167382140Y-100840000D01*
X167354072Y-100837236D01*
X167332991Y-100830840D01*
X167313555Y-100820452D01*
X167296524Y-100806476D01*
X167282548Y-100789445D01*
X167272160Y-100770009D01*
X167265764Y-100748928D01*
X167263000Y-100720860D01*
X167263000Y-100257140D01*
X167265764Y-100229072D01*
X167272160Y-100207991D01*
X167282548Y-100188555D01*
X167296524Y-100171524D01*
X167313555Y-100157548D01*
X167332991Y-100147160D01*
X167354072Y-100140764D01*
X167382140Y-100138000D01*
X169195860Y-100138000D01*
X169223928Y-100140764D01*
G37*
G36*
X138106062Y-97789181D02*
G01*
X138140981Y-97799774D01*
X138173163Y-97816976D01*
X138201373Y-97840127D01*
X138224524Y-97868337D01*
X138241726Y-97900519D01*
X138252319Y-97935438D01*
X138256500Y-97977895D01*
X138256500Y-99444105D01*
X138252319Y-99486562D01*
X138241726Y-99521481D01*
X138224524Y-99553663D01*
X138201373Y-99581873D01*
X138173163Y-99605024D01*
X138140981Y-99622226D01*
X138106062Y-99632819D01*
X138063605Y-99637000D01*
X136922395Y-99637000D01*
X136879938Y-99632819D01*
X136845019Y-99622226D01*
X136812837Y-99605024D01*
X136784627Y-99581873D01*
X136761476Y-99553663D01*
X136744274Y-99521481D01*
X136733681Y-99486562D01*
X136729500Y-99444105D01*
X136729500Y-97977895D01*
X136733681Y-97935438D01*
X136744274Y-97900519D01*
X136761476Y-97868337D01*
X136784627Y-97840127D01*
X136812837Y-97816976D01*
X136845019Y-97799774D01*
X136879938Y-97789181D01*
X136922395Y-97785000D01*
X138063605Y-97785000D01*
X138106062Y-97789181D01*
G37*
G36*
X135131062Y-97789181D02*
G01*
X135165981Y-97799774D01*
X135198163Y-97816976D01*
X135226373Y-97840127D01*
X135249524Y-97868337D01*
X135266726Y-97900519D01*
X135277319Y-97935438D01*
X135281500Y-97977895D01*
X135281500Y-99444105D01*
X135277319Y-99486562D01*
X135266726Y-99521481D01*
X135249524Y-99553663D01*
X135226373Y-99581873D01*
X135198163Y-99605024D01*
X135165981Y-99622226D01*
X135131062Y-99632819D01*
X135088605Y-99637000D01*
X133947395Y-99637000D01*
X133904938Y-99632819D01*
X133870019Y-99622226D01*
X133837837Y-99605024D01*
X133809627Y-99581873D01*
X133786476Y-99553663D01*
X133769274Y-99521481D01*
X133758681Y-99486562D01*
X133754500Y-99444105D01*
X133754500Y-97977895D01*
X133758681Y-97935438D01*
X133769274Y-97900519D01*
X133786476Y-97868337D01*
X133809627Y-97840127D01*
X133837837Y-97816976D01*
X133870019Y-97799774D01*
X133904938Y-97789181D01*
X133947395Y-97785000D01*
X135088605Y-97785000D01*
X135131062Y-97789181D01*
G37*
M02*
